<svg width="23" height="22" viewBox="0 0 23 22" fill="none" xmlns="http://www.w3.org/2000/svg">
<path d="M1.5 8.65356L10.5033 1.45092C11.2548 0.849694 12.3227 0.849694 13.0742 1.45092L22.0775 8.65356" stroke="#FFFFFF" stroke-width="1.5" stroke-linecap="round" stroke-linejoin="round"/>
<path d="M9.19366 2.531L5.07816 5.87485C4.33094 6.48197 3.95732 6.78553 3.75759 7.20515C3.55786 7.62478 3.55786 8.10617 3.55786 9.06896V12.7689C3.55786 16.649 3.55786 18.5892 4.76326 19.7945C5.96867 20.9999 7.90873 20.9999 11.7889 20.9999C15.669 20.9999 17.6091 20.9999 18.8144 19.7945C20.0199 18.5892 20.0199 16.649 20.0199 12.7689V9.06896C20.0199 8.10617 20.0199 7.62478 19.8202 7.20515C19.6204 6.78553 19.2468 6.48197 18.4996 5.87485L14.3841 2.531C13.141 1.52099 12.5195 1.01599 11.7889 1.01599C11.0583 1.01599 10.4367 1.52099 9.19366 2.531Z" stroke="#FFFFFF" stroke-width="1.5"/>
<path d="M9.47363 15.084H14.1036" stroke="#FFFFFF" stroke-width="1.5" stroke-linecap="round"/>
</svg>
