<svg width="321" height="164" viewBox="0 0 321 164" fill="none" xmlns="http://www.w3.org/2000/svg">
<path d="M37.043 29V7.75977H42.1113V29H37.043ZM47.1797 24.5615V19.2734H45.2607V15.8018H47.1797V11.8467L51.8672 11.2168V15.8018H54.9873V19.2734H51.8672V24.8838C51.8672 26.0752 52.0283 26.9395 52.3506 27.4766C52.6729 28.0039 53.2783 28.4922 54.167 28.9414L48.9521 29.293C48.2979 28.9805 47.8389 28.5166 47.5752 27.9014C47.3115 27.2764 47.1797 26.1631 47.1797 24.5615ZM63.1025 7.75977L60.2754 15.9482H56.1006L59.4111 7.75977H63.1025ZM65.6807 28.3994V24.7666C66.8428 25.5088 67.7461 26.0117 68.3906 26.2754C69.0352 26.5293 69.6309 26.6562 70.1777 26.6562C70.6562 26.6562 71.042 26.5537 71.335 26.3486C71.6279 26.1338 71.7744 25.8555 71.7744 25.5137C71.7744 25.2207 71.6719 24.9766 71.4668 24.7812C71.2617 24.5859 70.9102 24.4004 70.4121 24.2246L68.7129 23.624C67.5996 23.2432 66.7549 22.7109 66.1787 22.0273C65.6025 21.334 65.3145 20.5186 65.3145 19.5811C65.3145 18.2529 65.7783 17.1885 66.7061 16.3877C67.6338 15.5771 68.8691 15.1719 70.4121 15.1719C71.125 15.1719 71.877 15.2744 72.668 15.4795C73.4688 15.6748 74.3574 15.9824 75.334 16.4023L74.7627 19.6104C74.1768 19.1123 73.5371 18.7217 72.8438 18.4385C72.1504 18.1553 71.501 18.0137 70.8955 18.0137C70.4463 18.0137 70.0801 18.1211 69.7969 18.3359C69.5137 18.541 69.3721 18.8047 69.3721 19.127C69.3721 19.4004 69.4502 19.6201 69.6064 19.7861C69.7725 19.9424 70.1338 20.1133 70.6904 20.2988L72.2725 20.8701C73.5127 21.3096 74.3965 21.8418 74.9238 22.4668C75.4609 23.0918 75.7295 23.9072 75.7295 24.9131C75.7295 26.3682 75.251 27.5205 74.2939 28.3701C73.3369 29.21 72.0332 29.6299 70.3828 29.6299C69.582 29.6299 68.791 29.5273 68.0098 29.3223C67.2383 29.127 66.4619 28.8193 65.6807 28.3994ZM95.6074 19.1562C95.334 19 95.0703 18.8877 94.8164 18.8193C94.5723 18.751 94.3281 18.7168 94.084 18.7168C93.2148 18.7168 92.4824 19.083 91.8867 19.8154C91.291 20.5381 90.9932 21.4512 90.9932 22.5547C90.9932 23.5898 91.252 24.4541 91.7695 25.1475C92.2969 25.8311 92.9365 26.1729 93.6885 26.1729C93.9912 26.1729 94.2988 26.0947 94.6113 25.9385C94.9336 25.7725 95.2656 25.5234 95.6074 25.1914V19.1562ZM100.207 15.8018V24.0488C100.207 25.084 100.227 25.9531 100.266 26.6562C100.305 27.3594 100.363 27.96 100.441 28.458L96.1787 29.6299L95.7686 28.3701C95.1924 28.7998 94.626 29.1172 94.0693 29.3223C93.5225 29.5273 92.9463 29.6299 92.3408 29.6299C90.6416 29.6299 89.2109 28.9512 88.0488 27.5938C86.8965 26.2363 86.3203 24.5469 86.3203 22.5254C86.3203 20.3965 86.9697 18.6387 88.2686 17.252C89.5674 15.8652 91.208 15.1719 93.1904 15.1719C93.6494 15.1719 94.1279 15.2354 94.626 15.3623C95.124 15.4893 95.6758 15.6846 96.2812 15.9482L100.207 15.8018ZM116.936 25.9678C117.268 26.0557 117.546 26.1191 117.771 26.1582C118.005 26.1973 118.215 26.2168 118.4 26.2168C119.299 26.2168 120.051 25.8506 120.656 25.1182C121.262 24.3857 121.564 23.458 121.564 22.335C121.564 21.3193 121.311 20.5039 120.803 19.8887C120.305 19.2637 119.655 18.9512 118.854 18.9512C118.63 18.9512 118.356 19.0098 118.034 19.127C117.722 19.2344 117.355 19.4053 116.936 19.6396V25.9678ZM112.351 29.6299V8.09668L116.936 7.4668V16.373C117.521 16.0703 118.083 15.8457 118.62 15.6992C119.167 15.543 119.694 15.4648 120.202 15.4648C121.999 15.4648 123.454 16.1045 124.567 17.3838C125.681 18.6533 126.237 20.3135 126.237 22.3643C126.237 24.5322 125.573 26.2803 124.245 27.6084C122.927 28.9365 121.188 29.6006 119.03 29.6006C118.757 29.6006 118.449 29.5811 118.107 29.542C117.766 29.5127 117.38 29.4639 116.95 29.3955L115.28 29L112.351 29.6299ZM128.684 10.8799C128.684 10.1768 128.928 9.58105 129.416 9.09277C129.904 8.60449 130.5 8.36035 131.203 8.36035C131.916 8.36035 132.512 8.60449 132.99 9.09277C133.479 9.57129 133.723 10.167 133.723 10.8799C133.723 11.583 133.479 12.1836 132.99 12.6816C132.502 13.1797 131.906 13.4287 131.203 13.4287C130.52 13.4287 129.929 13.1797 129.431 12.6816C128.933 12.1738 128.684 11.5732 128.684 10.8799ZM133.547 29H128.903V15.8018L133.547 15.1719V29ZM145.5 19.1562C145.227 19 144.963 18.8877 144.709 18.8193C144.465 18.751 144.221 18.7168 143.977 18.7168C143.107 18.7168 142.375 19.083 141.779 19.8154C141.184 20.5381 140.886 21.4512 140.886 22.5547C140.886 23.5898 141.145 24.4541 141.662 25.1475C142.189 25.8311 142.829 26.1729 143.581 26.1729C143.874 26.1729 144.182 26.0898 144.504 25.9238C144.836 25.7578 145.168 25.5137 145.5 25.1914V19.1562ZM150.1 15.8018V27.7695C150.1 28.9805 150.041 29.8887 149.924 30.4941C149.807 31.1094 149.616 31.6709 149.353 32.1787C148.806 33.2334 148.01 34.0293 146.965 34.5664C145.92 35.1133 144.655 35.3867 143.171 35.3867C142.282 35.3867 141.379 35.2891 140.461 35.0938C139.553 34.8984 138.586 34.5957 137.561 34.1855L137.502 30.5234C138.479 31.0508 139.367 31.4365 140.168 31.6807C140.969 31.9346 141.721 32.0615 142.424 32.0615C143.449 32.0615 144.245 31.8174 144.812 31.3291C145.378 30.8408 145.661 30.1523 145.661 29.2637V28.3701C145.134 28.7021 144.611 28.9463 144.094 29.1025C143.576 29.2588 143.029 29.3369 142.453 29.3369C140.588 29.3369 139.079 28.7119 137.927 27.4619C136.784 26.2119 136.213 24.5664 136.213 22.5254C136.213 20.4062 136.862 18.6533 138.161 17.2666C139.46 15.8701 141.101 15.1719 143.083 15.1719C143.542 15.1719 144.021 15.2354 144.519 15.3623C145.017 15.4893 145.568 15.6846 146.174 15.9482L150.1 15.8018ZM167.458 29.835H167.077L160.324 15.8018H165.275L168 21.7637L171.179 15.0254H171.721L174.724 21.7637L177.565 15.8018H181.77L174.812 29.835H174.416L171.032 22.3936L167.458 29.835ZM187.146 22.3936C187.146 23.5166 187.385 24.4248 187.863 25.1182C188.352 25.8018 188.972 26.1436 189.724 26.1436C190.476 26.1436 191.091 25.7969 191.569 25.1035C192.058 24.4102 192.302 23.5068 192.302 22.3936C192.302 21.29 192.058 20.3916 191.569 19.6982C191.091 18.9951 190.476 18.6436 189.724 18.6436C188.972 18.6436 188.352 18.9902 187.863 19.6836C187.385 20.377 187.146 21.2803 187.146 22.3936ZM182.458 22.3936C182.458 20.2939 183.142 18.5654 184.509 17.208C185.886 15.8506 187.624 15.1719 189.724 15.1719C191.833 15.1719 193.576 15.8506 194.953 17.208C196.33 18.5654 197.019 20.2939 197.019 22.3936C197.019 24.4932 196.33 26.2266 194.953 27.5938C193.576 28.9512 191.833 29.6299 189.724 29.6299C187.634 29.6299 185.9 28.9512 184.523 27.5938C183.146 26.2266 182.458 24.4932 182.458 22.3936ZM204.328 29H199.714V15.8018H204.006L204.094 18.1162C204.621 17.1885 205.236 16.5146 205.939 16.0947C206.652 15.6748 207.536 15.4648 208.591 15.4648H208.957V20.3867H208.474H207.961C206.525 20.3867 205.559 20.5527 205.061 20.8848C204.572 21.207 204.328 21.9932 204.328 23.2432V29ZM215.93 29H211.286V8.09668L215.93 7.4668V29ZM227.883 19.1562C227.609 19 227.346 18.8877 227.092 18.8193C226.848 18.751 226.604 18.7168 226.359 18.7168C225.49 18.7168 224.758 19.083 224.162 19.8154C223.566 20.5381 223.269 21.4512 223.269 22.5547C223.269 23.5898 223.527 24.4541 224.045 25.1475C224.572 25.8311 225.212 26.1729 225.964 26.1729C226.257 26.1729 226.56 26.1143 226.872 25.9971C227.194 25.8701 227.531 25.6797 227.883 25.4258V19.1562ZM232.482 7.4668V29L228.454 29.6299L228.278 28.6045C227.634 28.9561 226.999 29.2148 226.374 29.3809C225.749 29.5469 225.114 29.6299 224.47 29.6299C222.624 29.6299 221.184 29.0195 220.148 27.7988C219.113 26.5781 218.596 24.8887 218.596 22.7305C218.596 20.4648 219.201 18.6484 220.412 17.2812C221.633 15.9141 223.244 15.2305 225.246 15.2305C225.715 15.2305 226.164 15.2793 226.594 15.377C227.023 15.4648 227.453 15.6064 227.883 15.8018V8.09668L232.482 7.4668ZM248.493 22.3936C248.493 23.5166 248.732 24.4248 249.211 25.1182C249.699 25.8018 250.319 26.1436 251.071 26.1436C251.823 26.1436 252.438 25.7969 252.917 25.1035C253.405 24.4102 253.649 23.5068 253.649 22.3936C253.649 21.29 253.405 20.3916 252.917 19.6982C252.438 18.9951 251.823 18.6436 251.071 18.6436C250.319 18.6436 249.699 18.9902 249.211 19.6836C248.732 20.377 248.493 21.2803 248.493 22.3936ZM243.806 22.3936C243.806 20.2939 244.489 18.5654 245.856 17.208C247.233 15.8506 248.972 15.1719 251.071 15.1719C253.181 15.1719 254.924 15.8506 256.301 17.208C257.678 18.5654 258.366 20.2939 258.366 22.3936C258.366 24.4932 257.678 26.2266 256.301 27.5938C254.924 28.9512 253.181 29.6299 251.071 29.6299C248.981 29.6299 247.248 28.9512 245.871 27.5938C244.494 26.2266 243.806 24.4932 243.806 22.3936ZM269.616 15.8018H274.172V29L269.938 29.6299V27.0518C269.226 27.9307 268.479 28.5801 267.697 29C266.916 29.4199 266.062 29.6299 265.134 29.6299C263.737 29.6299 262.673 29.2295 261.94 28.4287C261.218 27.6279 260.856 26.4561 260.856 24.9131V15.8018H265.441V23.624C265.441 24.3174 265.583 24.8447 265.866 25.2061C266.149 25.5576 266.569 25.7334 267.126 25.7334C267.927 25.7334 268.542 25.4648 268.972 24.9277C269.401 24.3809 269.616 23.5996 269.616 22.584V15.8018ZM278.361 24.5615V19.2734H276.442V15.8018H278.361V11.8467L283.049 11.2168V15.8018H286.169V19.2734H283.049V24.8838C283.049 26.0752 283.21 26.9395 283.532 27.4766C283.854 28.0039 284.46 28.4922 285.349 28.9414L280.134 29.293C279.479 28.9805 279.021 28.5166 278.757 27.9014C278.493 27.2764 278.361 26.1631 278.361 24.5615ZM53.9912 60.5615V55.2734H52.0723V51.8018H53.9912V47.8467L58.6787 47.2168V51.8018H61.7988V55.2734H58.6787V60.8838C58.6787 62.0752 58.8398 62.9395 59.1621 63.4766C59.4844 64.0039 60.0898 64.4922 60.9785 64.9414L55.7637 65.293C55.1094 64.9805 54.6504 64.5166 54.3867 63.9014C54.123 63.2764 53.9912 62.1631 53.9912 60.5615ZM68.4639 65H63.8789V44.0967L68.4639 43.4668V53.6621C69.1084 52.9102 69.7969 52.3535 70.5293 51.9922C71.2715 51.6211 72.0723 51.4355 72.9316 51.4355C74.3281 51.4355 75.3877 51.8359 76.1104 52.6367C76.833 53.4375 77.1943 54.6094 77.1943 56.1523V65H72.6387V57.4414C72.6387 56.748 72.4971 56.2256 72.2139 55.874C71.9307 55.5225 71.5107 55.3467 70.9541 55.3467C70.1533 55.3467 69.5381 55.6152 69.1084 56.1523C68.6787 56.6895 68.4639 57.4707 68.4639 58.4961V65ZM84.123 57.1631L89.8506 56.9873V56.7822C89.8506 56.0889 89.6064 55.5225 89.1182 55.083C88.6299 54.6338 88.0146 54.4092 87.2725 54.4092C86.4424 54.4092 85.749 54.6533 85.1924 55.1416C84.6357 55.6201 84.2793 56.2939 84.123 57.1631ZM92.8828 60.2832L92.3701 64.3408C91.4717 64.7705 90.5879 65.0879 89.7188 65.293C88.8496 65.498 87.9707 65.6006 87.082 65.6006C84.8848 65.6006 83.1123 64.9707 81.7646 63.7109C80.417 62.4414 79.7432 60.791 79.7432 58.7598C79.7432 56.6406 80.4805 54.8535 81.9551 53.3984C83.4297 51.9336 85.2217 51.2012 87.3311 51.2012C89.1377 51.2012 90.6172 51.7383 91.7695 52.8125C92.9316 53.877 93.5127 55.2588 93.5127 56.958C93.5127 57.2217 93.4932 57.6416 93.4541 58.2178L93.4395 58.3057L93.0293 58.9062L84.0205 59.1553C84.0889 60.0439 84.46 60.7666 85.1338 61.3232C85.8076 61.8701 86.6572 62.1436 87.6826 62.1436C88.4053 62.1436 89.2061 61.9873 90.085 61.6748C90.9736 61.3623 91.9062 60.8984 92.8828 60.2832ZM100.778 65H96.1641V51.8018H100.456L100.544 54.1162C101.071 53.1885 101.687 52.5146 102.39 52.0947C103.103 51.6748 103.986 51.4648 105.041 51.4648H105.407V56.3867H104.924H104.411C102.976 56.3867 102.009 56.5527 101.511 56.8848C101.022 57.207 100.778 57.9932 100.778 59.2432V65ZM111.398 57.1631L117.126 56.9873V56.7822C117.126 56.0889 116.882 55.5225 116.394 55.083C115.905 54.6338 115.29 54.4092 114.548 54.4092C113.718 54.4092 113.024 54.6533 112.468 55.1416C111.911 55.6201 111.555 56.2939 111.398 57.1631ZM120.158 60.2832L119.646 64.3408C118.747 64.7705 117.863 65.0879 116.994 65.293C116.125 65.498 115.246 65.6006 114.357 65.6006C112.16 65.6006 110.388 64.9707 109.04 63.7109C107.692 62.4414 107.019 60.791 107.019 58.7598C107.019 56.6406 107.756 54.8535 109.23 53.3984C110.705 51.9336 112.497 51.2012 114.606 51.2012C116.413 51.2012 117.893 51.7383 119.045 52.8125C120.207 53.877 120.788 55.2588 120.788 56.958C120.788 57.2217 120.769 57.6416 120.729 58.2178L120.715 58.3057L120.305 58.9062L111.296 59.1553C111.364 60.0439 111.735 60.7666 112.409 61.3232C113.083 61.8701 113.933 62.1436 114.958 62.1436C115.681 62.1436 116.481 61.9873 117.36 61.6748C118.249 61.3623 119.182 60.8984 120.158 60.2832ZM140.593 55.1562C140.319 55 140.056 54.8877 139.802 54.8193C139.558 54.751 139.313 54.7168 139.069 54.7168C138.2 54.7168 137.468 55.083 136.872 55.8154C136.276 56.5381 135.979 57.4512 135.979 58.5547C135.979 59.5898 136.237 60.4541 136.755 61.1475C137.282 61.8311 137.922 62.1729 138.674 62.1729C138.967 62.1729 139.274 62.0898 139.597 61.9238C139.929 61.7578 140.261 61.5137 140.593 61.1914V55.1562ZM145.192 51.8018V63.7695C145.192 64.9805 145.134 65.8887 145.017 66.4941C144.899 67.1094 144.709 67.6709 144.445 68.1787C143.898 69.2334 143.103 70.0293 142.058 70.5664C141.013 71.1133 139.748 71.3867 138.264 71.3867C137.375 71.3867 136.472 71.2891 135.554 71.0938C134.646 70.8984 133.679 70.5957 132.653 70.1855L132.595 66.5234C133.571 67.0508 134.46 67.4365 135.261 67.6807C136.062 67.9346 136.813 68.0615 137.517 68.0615C138.542 68.0615 139.338 67.8174 139.904 67.3291C140.471 66.8408 140.754 66.1523 140.754 65.2637V64.3701C140.227 64.7021 139.704 64.9463 139.187 65.1025C138.669 65.2588 138.122 65.3369 137.546 65.3369C135.681 65.3369 134.172 64.7119 133.02 63.4619C131.877 62.2119 131.306 60.5664 131.306 58.5254C131.306 56.4062 131.955 54.6533 133.254 53.2666C134.553 51.8701 136.193 51.1719 138.176 51.1719C138.635 51.1719 139.113 51.2354 139.611 51.3623C140.109 51.4893 140.661 51.6846 141.267 51.9482L145.192 51.8018ZM152.531 58.3936C152.531 59.5166 152.771 60.4248 153.249 61.1182C153.737 61.8018 154.357 62.1436 155.109 62.1436C155.861 62.1436 156.477 61.7969 156.955 61.1035C157.443 60.4102 157.688 59.5068 157.688 58.3936C157.688 57.29 157.443 56.3916 156.955 55.6982C156.477 54.9951 155.861 54.6436 155.109 54.6436C154.357 54.6436 153.737 54.9902 153.249 55.6836C152.771 56.377 152.531 57.2803 152.531 58.3936ZM147.844 58.3936C147.844 56.2939 148.527 54.5654 149.895 53.208C151.271 51.8506 153.01 51.1719 155.109 51.1719C157.219 51.1719 158.962 51.8506 160.339 53.208C161.716 54.5654 162.404 56.2939 162.404 58.3936C162.404 60.4932 161.716 62.2266 160.339 63.5938C158.962 64.9512 157.219 65.6299 155.109 65.6299C153.02 65.6299 151.286 64.9512 149.909 63.5938C148.532 62.2266 147.844 60.4932 147.844 58.3936Z" fill="#1B1E28"/>
<path d="M177.316 57.1631L183.044 56.9873V56.7822C183.044 56.0889 182.8 55.5225 182.312 55.083C181.823 54.6338 181.208 54.4092 180.466 54.4092C179.636 54.4092 178.942 54.6533 178.386 55.1416C177.829 55.6201 177.473 56.2939 177.316 57.1631ZM186.076 60.2832L185.563 64.3408C184.665 64.7705 183.781 65.0879 182.912 65.293C182.043 65.498 181.164 65.6006 180.275 65.6006C178.078 65.6006 176.306 64.9707 174.958 63.7109C173.61 62.4414 172.937 60.791 172.937 58.7598C172.937 56.6406 173.674 54.8535 175.148 53.3984C176.623 51.9336 178.415 51.2012 180.524 51.2012C182.331 51.2012 183.811 51.7383 184.963 52.8125C186.125 53.877 186.706 55.2588 186.706 56.958C186.706 57.2217 186.687 57.6416 186.647 58.2178L186.633 58.3057L186.223 58.9062L177.214 59.1553C177.282 60.0439 177.653 60.7666 178.327 61.3232C179.001 61.8701 179.851 62.1436 180.876 62.1436C181.599 62.1436 182.399 61.9873 183.278 61.6748C184.167 61.3623 185.1 60.8984 186.076 60.2832ZM186.955 65L191.994 58.4961L187.263 51.8018H192.624L194.821 54.8926L197.209 51.8018H201.721L196.975 57.9834L201.955 65H196.55L194.162 61.5869L191.511 65H186.955ZM203.098 71.3574V51.8018H207.683C208.142 51.626 208.596 51.499 209.045 51.4209C209.494 51.333 209.953 51.2891 210.422 51.2891C212.326 51.2891 213.894 51.9482 215.124 53.2666C216.364 54.585 216.984 56.2842 216.984 58.3643C216.984 60.5225 216.315 62.2705 214.978 63.6084C213.649 64.9365 211.911 65.6006 209.763 65.6006C209.479 65.6006 209.177 65.5811 208.854 65.542C208.532 65.5127 208.132 65.4639 207.653 65.3955V70.5811L203.098 71.3574ZM207.683 61.9678C208.005 62.0557 208.283 62.1191 208.518 62.1582C208.752 62.1973 208.967 62.2168 209.162 62.2168C210.051 62.2168 210.793 61.8506 211.389 61.1182C211.984 60.3857 212.282 59.458 212.282 58.335C212.282 57.29 212.009 56.4258 211.462 55.7422C210.925 55.0586 210.256 54.7168 209.455 54.7168C209.211 54.7168 208.952 54.7461 208.679 54.8047C208.405 54.8535 208.073 54.9414 207.683 55.0684V61.9678ZM224.235 65H219.592V44.0967L224.235 43.4668V65ZM231.516 58.3936C231.516 59.5166 231.755 60.4248 232.233 61.1182C232.722 61.8018 233.342 62.1436 234.094 62.1436C234.846 62.1436 235.461 61.7969 235.939 61.1035C236.428 60.4102 236.672 59.5068 236.672 58.3936C236.672 57.29 236.428 56.3916 235.939 55.6982C235.461 54.9951 234.846 54.6436 234.094 54.6436C233.342 54.6436 232.722 54.9902 232.233 55.6836C231.755 56.377 231.516 57.2803 231.516 58.3936ZM226.828 58.3936C226.828 56.2939 227.512 54.5654 228.879 53.208C230.256 51.8506 231.994 51.1719 234.094 51.1719C236.203 51.1719 237.946 51.8506 239.323 53.208C240.7 54.5654 241.389 56.2939 241.389 58.3936C241.389 60.4932 240.7 62.2266 239.323 63.5938C237.946 64.9512 236.203 65.6299 234.094 65.6299C232.004 65.6299 230.271 64.9512 228.894 63.5938C227.517 62.2266 226.828 60.4932 226.828 58.3936ZM248.698 65H244.084V51.8018H248.376L248.464 54.1162C248.991 53.1885 249.606 52.5146 250.31 52.0947C251.022 51.6748 251.906 51.4648 252.961 51.4648H253.327V56.3867H252.844H252.331C250.896 56.3867 249.929 56.5527 249.431 56.8848C248.942 57.207 248.698 57.9932 248.698 59.2432V65ZM259.318 57.1631L265.046 56.9873V56.7822C265.046 56.0889 264.802 55.5225 264.313 55.083C263.825 54.6338 263.21 54.4092 262.468 54.4092C261.638 54.4092 260.944 54.6533 260.388 55.1416C259.831 55.6201 259.475 56.2939 259.318 57.1631ZM268.078 60.2832L267.565 64.3408C266.667 64.7705 265.783 65.0879 264.914 65.293C264.045 65.498 263.166 65.6006 262.277 65.6006C260.08 65.6006 258.308 64.9707 256.96 63.7109C255.612 62.4414 254.938 60.791 254.938 58.7598C254.938 56.6406 255.676 54.8535 257.15 53.3984C258.625 51.9336 260.417 51.2012 262.526 51.2012C264.333 51.2012 265.812 51.7383 266.965 52.8125C268.127 53.877 268.708 55.2588 268.708 56.958C268.708 57.2217 268.688 57.6416 268.649 58.2178L268.635 58.3057L268.225 58.9062L259.216 59.1553C259.284 60.0439 259.655 60.7666 260.329 61.3232C261.003 61.8701 261.853 62.1436 262.878 62.1436C263.601 62.1436 264.401 61.9873 265.28 61.6748C266.169 61.3623 267.102 60.8984 268.078 60.2832Z" fill="#FF7029"/>
<path d="M169.573 83.3516C180.567 75.4137 230.081 65.4515 271.62 82.9169C248.65 77.4172 201.713 73.4228 169.573 83.3516Z" fill="#FF7029"/>
<path d="M23.6406 98.9923H32.7578V100.383H28.9531V109.922H27.3828V100.383H23.6406V98.9923ZM35.0781 102.719C36.1719 102.719 37.0807 103.073 37.8047 103.781C38.5286 104.484 38.8906 105.37 38.8906 106.438C38.8906 107.474 38.5234 108.336 37.7891 109.024C37.0547 109.706 36.1302 110.047 35.0156 110.047C33.9375 110.047 33.0365 109.701 32.3125 109.008C31.5885 108.31 31.2266 107.44 31.2266 106.399C31.2266 105.346 31.5911 104.471 32.3203 103.774C33.0547 103.07 33.974 102.719 35.0781 102.719ZM35 104C34.3177 104 33.7578 104.224 33.3203 104.672C32.8828 105.12 32.6641 105.69 32.6641 106.383C32.6641 107.07 32.888 107.633 33.3359 108.07C33.7839 108.503 34.3594 108.719 35.0625 108.719C35.7604 108.719 36.3307 108.5 36.7734 108.063C37.2214 107.62 37.4453 107.055 37.4453 106.367C37.4453 105.685 37.2135 105.12 36.75 104.672C36.2865 104.224 35.7031 104 35 104ZM44.5547 105.219C44.5547 104.453 44.8333 103.849 45.3906 103.406C45.9531 102.958 46.7188 102.734 47.6875 102.734H50.6484V103.844H49.1953C49.4766 104.13 49.6719 104.391 49.7812 104.625C49.8906 104.859 49.9453 105.128 49.9453 105.43C49.9453 105.805 49.8385 106.175 49.625 106.539C49.4115 106.899 49.1354 107.175 48.7969 107.367C48.4635 107.56 47.9141 107.714 47.1484 107.828C46.612 107.906 46.3438 108.091 46.3438 108.383C46.3438 108.55 46.4427 108.688 46.6406 108.797C46.8438 108.901 47.2083 109.011 47.7344 109.125C48.6146 109.318 49.1797 109.469 49.4297 109.578C49.6849 109.688 49.9141 109.844 50.1172 110.047C50.4609 110.391 50.6328 110.823 50.6328 111.344C50.6328 112.026 50.3281 112.57 49.7188 112.977C49.1146 113.383 48.3047 113.586 47.2891 113.586C46.263 113.586 45.4427 113.38 44.8281 112.969C44.2188 112.563 43.9141 112.016 43.9141 111.328C43.9141 110.354 44.5156 109.727 45.7188 109.445C45.2396 109.138 45 108.833 45 108.531C45 108.302 45.1016 108.094 45.3047 107.906C45.513 107.719 45.7917 107.581 46.1406 107.492C45.0833 107.024 44.5547 106.266 44.5547 105.219ZM47.2266 103.969C46.8411 103.969 46.513 104.099 46.2422 104.359C45.9714 104.62 45.8359 104.932 45.8359 105.297C45.8359 105.667 45.9688 105.974 46.2344 106.219C46.5 106.458 46.8359 106.578 47.2422 106.578C47.6432 106.578 47.9766 106.456 48.2422 106.211C48.513 105.961 48.6484 105.651 48.6484 105.281C48.6484 104.906 48.513 104.594 48.2422 104.344C47.9714 104.094 47.6328 103.969 47.2266 103.969ZM46.8906 110.258C46.4115 110.258 46.0182 110.359 45.7109 110.563C45.4089 110.766 45.2578 111.026 45.2578 111.344C45.2578 112.083 45.9245 112.453 47.2578 112.453C47.888 112.453 48.375 112.359 48.7188 112.172C49.0677 111.99 49.2422 111.729 49.2422 111.391C49.2422 111.057 49.0234 110.784 48.5859 110.57C48.1484 110.362 47.5833 110.258 46.8906 110.258ZM57.875 106.453H52.8203C52.8568 107.141 53.0859 107.688 53.5078 108.094C53.9349 108.5 54.4844 108.703 55.1562 108.703C56.0938 108.703 56.9583 108.412 57.75 107.828V109.219C57.3125 109.511 56.8776 109.719 56.4453 109.844C56.0182 109.969 55.5156 110.031 54.9375 110.031C54.1458 110.031 53.5052 109.867 53.0156 109.539C52.526 109.211 52.1328 108.771 51.8359 108.219C51.5443 107.662 51.3984 107.018 51.3984 106.289C51.3984 105.195 51.7083 104.307 52.3281 103.625C52.9479 102.938 53.7526 102.594 54.7422 102.594C55.6953 102.594 56.4557 102.927 57.0234 103.594C57.5911 104.261 57.875 105.154 57.875 106.274V106.453ZM52.8516 105.602H56.4688C56.4323 105.034 56.263 104.596 55.9609 104.289C55.6589 103.982 55.2526 103.828 54.7422 103.828C54.2318 103.828 53.8125 103.982 53.4844 104.289C53.1615 104.596 52.9505 105.034 52.8516 105.602ZM58.4141 103.875L61.0859 101.25V102.734H63.3594V104.016H61.0859V107.539C61.0859 108.362 61.4271 108.774 62.1094 108.774C62.6198 108.774 63.1589 108.602 63.7266 108.258V109.586C63.1797 109.893 62.5833 110.047 61.9375 110.047C61.2865 110.047 60.7448 109.857 60.3125 109.477C60.1771 109.362 60.0651 109.234 59.9766 109.094C59.888 108.948 59.8125 108.761 59.75 108.531C59.6927 108.297 59.6641 107.854 59.6641 107.203V104.016H58.4141V103.875ZM68.1953 103.875L70.8672 101.25V102.734H73.1406V104.016H70.8672V107.539C70.8672 108.362 71.2083 108.774 71.8906 108.774C72.401 108.774 72.9401 108.602 73.5078 108.258V109.586C72.9609 109.893 72.3646 110.047 71.7188 110.047C71.0677 110.047 70.526 109.857 70.0938 109.477C69.9583 109.362 69.8464 109.234 69.7578 109.094C69.6693 108.948 69.5938 108.761 69.5312 108.531C69.474 108.297 69.4453 107.854 69.4453 107.203V104.016H68.1953V103.875ZM74.5 99.0079H75.9219V103.68C76.5156 102.956 77.2526 102.594 78.1328 102.594C78.612 102.594 79.0417 102.714 79.4219 102.953C79.8021 103.193 80.0833 103.524 80.2656 103.945C80.4531 104.367 80.5469 104.995 80.5469 105.828V109.922H79.125V105.477C79.125 104.951 78.9948 104.529 78.7344 104.211C78.4792 103.888 78.1406 103.727 77.7188 103.727C77.4062 103.727 77.112 103.807 76.8359 103.969C76.5599 104.13 76.2552 104.399 75.9219 104.774V109.922H74.5V99.0079ZM88.6562 106.453H83.6016C83.638 107.141 83.8672 107.688 84.2891 108.094C84.7161 108.5 85.2656 108.703 85.9375 108.703C86.875 108.703 87.7396 108.412 88.5312 107.828V109.219C88.0938 109.511 87.6589 109.719 87.2266 109.844C86.7995 109.969 86.2969 110.031 85.7188 110.031C84.9271 110.031 84.2865 109.867 83.7969 109.539C83.3073 109.211 82.9141 108.771 82.6172 108.219C82.3255 107.662 82.1797 107.018 82.1797 106.289C82.1797 105.195 82.4896 104.307 83.1094 103.625C83.7292 102.938 84.5339 102.594 85.5234 102.594C86.4766 102.594 87.237 102.927 87.8047 103.594C88.3724 104.261 88.6562 105.154 88.6562 106.274V106.453ZM83.6328 105.602H87.25C87.2135 105.034 87.0443 104.596 86.7422 104.289C86.4401 103.982 86.0339 103.828 85.5234 103.828C85.013 103.828 84.5938 103.982 84.2656 104.289C83.9427 104.596 83.7318 105.034 83.6328 105.602ZM94.5938 99.0079H96.0156V103.25C96.6302 102.802 97.2865 102.578 97.9844 102.578C98.8958 102.578 99.6406 102.922 100.219 103.609C100.797 104.297 101.086 105.18 101.086 106.258C101.086 107.414 100.74 108.336 100.047 109.024C99.3594 109.706 98.4375 110.047 97.2812 110.047C96.8177 110.047 96.3281 109.998 95.8125 109.899C95.3021 109.8 94.8958 109.675 94.5938 109.524V99.0079ZM96.0156 104.609V108.5C96.5 108.646 96.9974 108.719 97.5078 108.719C98.138 108.719 98.651 108.495 99.0469 108.047C99.4479 107.599 99.6484 107.024 99.6484 106.32C99.6484 105.607 99.4609 105.026 99.0859 104.578C98.7161 104.13 98.2318 103.906 97.6328 103.906C97.1016 103.906 96.5625 104.141 96.0156 104.609ZM108.781 106.453H103.727C103.763 107.141 103.992 107.688 104.414 108.094C104.841 108.5 105.391 108.703 106.062 108.703C107 108.703 107.865 108.412 108.656 107.828V109.219C108.219 109.511 107.784 109.719 107.352 109.844C106.924 109.969 106.422 110.031 105.844 110.031C105.052 110.031 104.411 109.867 103.922 109.539C103.432 109.211 103.039 108.771 102.742 108.219C102.451 107.662 102.305 107.018 102.305 106.289C102.305 105.195 102.615 104.307 103.234 103.625C103.854 102.938 104.659 102.594 105.648 102.594C106.602 102.594 107.362 102.927 107.93 103.594C108.497 104.261 108.781 105.154 108.781 106.274V106.453ZM103.758 105.602H107.375C107.339 105.034 107.169 104.596 106.867 104.289C106.565 103.982 106.159 103.828 105.648 103.828C105.138 103.828 104.719 103.982 104.391 104.289C104.068 104.596 103.857 105.034 103.758 105.602ZM109.977 109.406V107.875C110.378 108.156 110.786 108.386 111.203 108.563C111.625 108.734 111.979 108.82 112.266 108.82C112.562 108.82 112.818 108.748 113.031 108.602C113.245 108.456 113.352 108.281 113.352 108.078C113.352 107.87 113.281 107.698 113.141 107.563C113.005 107.422 112.708 107.221 112.25 106.961C111.333 106.451 110.732 106.016 110.445 105.656C110.164 105.292 110.023 104.896 110.023 104.469C110.023 103.917 110.237 103.466 110.664 103.117C111.096 102.768 111.651 102.594 112.328 102.594C113.031 102.594 113.753 102.792 114.492 103.188V104.594C113.648 104.083 112.958 103.828 112.422 103.828C112.146 103.828 111.922 103.888 111.75 104.008C111.583 104.123 111.5 104.276 111.5 104.469C111.5 104.636 111.576 104.794 111.727 104.945C111.883 105.096 112.154 105.279 112.539 105.492L113.047 105.781C114.245 106.458 114.844 107.208 114.844 108.031C114.844 108.62 114.612 109.104 114.148 109.484C113.69 109.859 113.099 110.047 112.375 110.047C111.948 110.047 111.568 110.003 111.234 109.914C110.901 109.82 110.482 109.651 109.977 109.406ZM115.477 103.875L118.148 101.25V102.734H120.422V104.016H118.148V107.539C118.148 108.362 118.49 108.774 119.172 108.774C119.682 108.774 120.221 108.602 120.789 108.258V109.586C120.242 109.893 119.646 110.047 119 110.047C118.349 110.047 117.807 109.857 117.375 109.477C117.24 109.362 117.128 109.234 117.039 109.094C116.951 108.948 116.875 108.761 116.812 108.531C116.755 108.297 116.727 107.854 116.727 107.203V104.016H115.477V103.875ZM129.703 102.719C130.797 102.719 131.706 103.073 132.43 103.781C133.154 104.484 133.516 105.37 133.516 106.438C133.516 107.474 133.148 108.336 132.414 109.024C131.68 109.706 130.755 110.047 129.641 110.047C128.562 110.047 127.661 109.701 126.938 109.008C126.214 108.31 125.852 107.44 125.852 106.399C125.852 105.346 126.216 104.471 126.945 103.774C127.68 103.07 128.599 102.719 129.703 102.719ZM129.625 104C128.943 104 128.383 104.224 127.945 104.672C127.508 105.12 127.289 105.69 127.289 106.383C127.289 107.07 127.513 107.633 127.961 108.07C128.409 108.503 128.984 108.719 129.688 108.719C130.385 108.719 130.956 108.5 131.398 108.063C131.846 107.62 132.07 107.055 132.07 106.367C132.07 105.685 131.839 105.12 131.375 104.672C130.911 104.224 130.328 104 129.625 104ZM135.258 102.734V102.305C135.258 101.149 135.503 100.287 135.992 99.7189C136.487 99.1512 137.078 98.8673 137.766 98.8673C138.062 98.8673 138.414 98.9142 138.82 99.0079V100.399C138.591 100.315 138.372 100.274 138.164 100.274C137.607 100.274 137.219 100.422 137 100.719C136.786 101.016 136.68 101.544 136.68 102.305V102.734H137.961V104.016H136.68V109.922H135.258V104.016H134.227V102.734H135.258ZM147.945 102.734H149.547L144.461 113.586H142.875L145.32 108.383L142.539 102.734H144.156L146.094 106.789L147.945 102.734ZM153.672 102.719C154.766 102.719 155.674 103.073 156.398 103.781C157.122 104.484 157.484 105.37 157.484 106.438C157.484 107.474 157.117 108.336 156.383 109.024C155.648 109.706 154.724 110.047 153.609 110.047C152.531 110.047 151.63 109.701 150.906 109.008C150.182 108.31 149.82 107.44 149.82 106.399C149.82 105.346 150.185 104.471 150.914 103.774C151.648 103.07 152.568 102.719 153.672 102.719ZM153.594 104C152.911 104 152.352 104.224 151.914 104.672C151.477 105.12 151.258 105.69 151.258 106.383C151.258 107.07 151.482 107.633 151.93 108.07C152.378 108.503 152.953 108.719 153.656 108.719C154.354 108.719 154.924 108.5 155.367 108.063C155.815 107.62 156.039 107.055 156.039 106.367C156.039 105.685 155.807 105.12 155.344 104.672C154.88 104.224 154.297 104 153.594 104ZM163.641 109.922V109.008C163.339 109.336 162.992 109.591 162.602 109.774C162.216 109.956 161.831 110.047 161.445 110.047C160.992 110.047 160.573 109.935 160.188 109.711C159.807 109.482 159.518 109.175 159.32 108.789C159.128 108.399 159.031 107.753 159.031 106.852V102.734H160.453V106.836C160.453 107.591 160.56 108.12 160.773 108.422C160.992 108.719 161.372 108.867 161.914 108.867C162.591 108.867 163.167 108.537 163.641 107.875V102.734H165.062V109.922H163.641ZM168.586 102.734V104.383L168.664 104.258C169.352 103.149 170.039 102.594 170.727 102.594C171.263 102.594 171.823 102.865 172.406 103.406L171.656 104.656C171.161 104.188 170.703 103.953 170.281 103.953C169.823 103.953 169.424 104.172 169.086 104.609C168.753 105.047 168.586 105.565 168.586 106.164V109.922H167.156V102.734H168.586ZM182.375 105.602V108.656C182.375 108.901 182.458 109.024 182.625 109.024C182.797 109.024 183.065 108.896 183.43 108.641V109.508C183.107 109.716 182.846 109.857 182.648 109.93C182.456 110.008 182.253 110.047 182.039 110.047C181.43 110.047 181.07 109.807 180.961 109.328C180.357 109.797 179.714 110.031 179.031 110.031C178.531 110.031 178.115 109.867 177.781 109.539C177.448 109.206 177.281 108.789 177.281 108.289C177.281 107.836 177.443 107.432 177.766 107.078C178.094 106.719 178.557 106.435 179.156 106.227L180.977 105.602V105.219C180.977 104.354 180.544 103.922 179.68 103.922C178.904 103.922 178.148 104.323 177.414 105.125V103.57C177.966 102.919 178.76 102.594 179.797 102.594C180.573 102.594 181.195 102.797 181.664 103.203C181.82 103.333 181.961 103.508 182.086 103.727C182.211 103.94 182.289 104.156 182.32 104.375C182.357 104.589 182.375 104.998 182.375 105.602ZM180.977 108.5V106.367L180.023 106.734C179.539 106.927 179.195 107.123 178.992 107.32C178.794 107.513 178.695 107.755 178.695 108.047C178.695 108.344 178.789 108.586 178.977 108.774C179.169 108.961 179.417 109.055 179.719 109.055C180.172 109.055 180.591 108.87 180.977 108.5ZM189.484 99.0079H190.914V109.922H187.875C186.812 109.922 185.964 109.586 185.328 108.914C184.698 108.242 184.383 107.341 184.383 106.211C184.383 105.154 184.714 104.284 185.375 103.602C186.042 102.919 186.891 102.578 187.922 102.578C188.401 102.578 188.922 102.68 189.484 102.883V99.0079ZM189.484 108.703V104.149C189.042 103.925 188.594 103.813 188.141 103.813C187.432 103.813 186.867 104.044 186.445 104.508C186.029 104.971 185.82 105.596 185.82 106.383C185.82 107.123 186.003 107.693 186.367 108.094C186.586 108.333 186.818 108.495 187.062 108.578C187.307 108.662 187.747 108.703 188.383 108.703H189.484ZM197.242 102.734H198.781L195.609 110.047H195.133L191.883 102.734H193.438L195.375 107.156L197.242 102.734ZM205.656 106.453H200.602C200.638 107.141 200.867 107.688 201.289 108.094C201.716 108.5 202.266 108.703 202.938 108.703C203.875 108.703 204.74 108.412 205.531 107.828V109.219C205.094 109.511 204.659 109.719 204.227 109.844C203.799 109.969 203.297 110.031 202.719 110.031C201.927 110.031 201.286 109.867 200.797 109.539C200.307 109.211 199.914 108.771 199.617 108.219C199.326 107.662 199.18 107.018 199.18 106.289C199.18 105.195 199.49 104.307 200.109 103.625C200.729 102.938 201.534 102.594 202.523 102.594C203.477 102.594 204.237 102.927 204.805 103.594C205.372 104.261 205.656 105.154 205.656 106.274V106.453ZM200.633 105.602H204.25C204.214 105.034 204.044 104.596 203.742 104.289C203.44 103.982 203.034 103.828 202.523 103.828C202.013 103.828 201.594 103.982 201.266 104.289C200.943 104.596 200.732 105.034 200.633 105.602ZM208.625 102.734V103.649C209.26 102.945 209.982 102.594 210.789 102.594C211.237 102.594 211.654 102.711 212.039 102.945C212.424 103.175 212.716 103.492 212.914 103.899C213.117 104.3 213.219 104.938 213.219 105.813V109.922H211.797V105.828C211.797 105.094 211.685 104.57 211.461 104.258C211.237 103.94 210.862 103.781 210.336 103.781C209.664 103.781 209.094 104.117 208.625 104.789V109.922H207.172V102.734H208.625ZM214.195 103.875L216.867 101.25V102.734H219.141V104.016H216.867V107.539C216.867 108.362 217.208 108.774 217.891 108.774C218.401 108.774 218.94 108.602 219.508 108.258V109.586C218.961 109.893 218.365 110.047 217.719 110.047C217.068 110.047 216.526 109.857 216.094 109.477C215.958 109.362 215.846 109.234 215.758 109.094C215.669 108.948 215.594 108.761 215.531 108.531C215.474 108.297 215.445 107.854 215.445 107.203V104.016H214.195V103.875ZM225.109 109.922V109.008C224.807 109.336 224.461 109.591 224.07 109.774C223.685 109.956 223.299 110.047 222.914 110.047C222.461 110.047 222.042 109.935 221.656 109.711C221.276 109.482 220.987 109.175 220.789 108.789C220.596 108.399 220.5 107.753 220.5 106.852V102.734H221.922V106.836C221.922 107.591 222.029 108.12 222.242 108.422C222.461 108.719 222.841 108.867 223.383 108.867C224.06 108.867 224.635 108.537 225.109 107.875V102.734H226.531V109.922H225.109ZM230.055 102.734V104.383L230.133 104.258C230.82 103.149 231.508 102.594 232.195 102.594C232.732 102.594 233.292 102.865 233.875 103.406L233.125 104.656C232.63 104.188 232.172 103.953 231.75 103.953C231.292 103.953 230.893 104.172 230.555 104.609C230.221 105.047 230.055 105.565 230.055 106.164V109.922H228.625V102.734H230.055ZM240.672 106.453H235.617C235.654 107.141 235.883 107.688 236.305 108.094C236.732 108.5 237.281 108.703 237.953 108.703C238.891 108.703 239.755 108.412 240.547 107.828V109.219C240.109 109.511 239.674 109.719 239.242 109.844C238.815 109.969 238.312 110.031 237.734 110.031C236.943 110.031 236.302 109.867 235.812 109.539C235.323 109.211 234.93 108.771 234.633 108.219C234.341 107.662 234.195 107.018 234.195 106.289C234.195 105.195 234.505 104.307 235.125 103.625C235.745 102.938 236.549 102.594 237.539 102.594C238.492 102.594 239.253 102.927 239.82 103.594C240.388 104.261 240.672 105.154 240.672 106.274V106.453ZM235.648 105.602H239.266C239.229 105.034 239.06 104.596 238.758 104.289C238.456 103.982 238.049 103.828 237.539 103.828C237.029 103.828 236.609 103.982 236.281 104.289C235.958 104.596 235.747 105.034 235.648 105.602ZM251.07 102.734H252.672L247.586 113.586H246L248.445 108.383L245.664 102.734H247.281L249.219 106.789L251.07 102.734ZM256.797 102.719C257.891 102.719 258.799 103.073 259.523 103.781C260.247 104.484 260.609 105.37 260.609 106.438C260.609 107.474 260.242 108.336 259.508 109.024C258.773 109.706 257.849 110.047 256.734 110.047C255.656 110.047 254.755 109.701 254.031 109.008C253.307 108.31 252.945 107.44 252.945 106.399C252.945 105.346 253.31 104.471 254.039 103.774C254.773 103.07 255.693 102.719 256.797 102.719ZM256.719 104C256.036 104 255.477 104.224 255.039 104.672C254.602 105.12 254.383 105.69 254.383 106.383C254.383 107.07 254.607 107.633 255.055 108.07C255.503 108.503 256.078 108.719 256.781 108.719C257.479 108.719 258.049 108.5 258.492 108.063C258.94 107.62 259.164 107.055 259.164 106.367C259.164 105.685 258.932 105.12 258.469 104.672C258.005 104.224 257.422 104 256.719 104ZM266.766 109.922V109.008C266.464 109.336 266.117 109.591 265.727 109.774C265.341 109.956 264.956 110.047 264.57 110.047C264.117 110.047 263.698 109.935 263.312 109.711C262.932 109.482 262.643 109.175 262.445 108.789C262.253 108.399 262.156 107.753 262.156 106.852V102.734H263.578V106.836C263.578 107.591 263.685 108.12 263.898 108.422C264.117 108.719 264.497 108.867 265.039 108.867C265.716 108.867 266.292 108.537 266.766 107.875V102.734H268.188V109.922H266.766ZM275.297 99.7111C275.531 99.7111 275.732 99.7944 275.898 99.9611C276.065 100.123 276.148 100.318 276.148 100.547C276.148 100.787 276.068 100.987 275.906 101.149C275.75 101.31 275.552 101.391 275.312 101.391C275.089 101.391 274.891 101.307 274.719 101.141C274.547 100.974 274.461 100.776 274.461 100.547C274.461 100.328 274.544 100.136 274.711 99.9689C274.883 99.797 275.078 99.7111 275.297 99.7111ZM274.625 102.734H276.047V110.945C276.047 112.19 275.568 113.07 274.609 113.586L273.555 112.547C273.883 112.432 274.143 112.232 274.336 111.945C274.529 111.659 274.625 111.326 274.625 110.945V102.734ZM282.734 109.922V109.008C282.432 109.336 282.086 109.591 281.695 109.774C281.31 109.956 280.924 110.047 280.539 110.047C280.086 110.047 279.667 109.935 279.281 109.711C278.901 109.482 278.612 109.175 278.414 108.789C278.221 108.399 278.125 107.753 278.125 106.852V102.734H279.547V106.836C279.547 107.591 279.654 108.12 279.867 108.422C280.086 108.719 280.466 108.867 281.008 108.867C281.685 108.867 282.26 108.537 282.734 107.875V102.734H284.156V109.922H282.734ZM285.805 109.406V107.875C286.206 108.156 286.615 108.386 287.031 108.563C287.453 108.734 287.807 108.82 288.094 108.82C288.391 108.82 288.646 108.748 288.859 108.602C289.073 108.456 289.18 108.281 289.18 108.078C289.18 107.87 289.109 107.698 288.969 107.563C288.833 107.422 288.536 107.221 288.078 106.961C287.161 106.451 286.56 106.016 286.273 105.656C285.992 105.292 285.852 104.896 285.852 104.469C285.852 103.917 286.065 103.466 286.492 103.117C286.924 102.768 287.479 102.594 288.156 102.594C288.859 102.594 289.581 102.792 290.32 103.188V104.594C289.477 104.083 288.786 103.828 288.25 103.828C287.974 103.828 287.75 103.888 287.578 104.008C287.411 104.123 287.328 104.276 287.328 104.469C287.328 104.636 287.404 104.794 287.555 104.945C287.711 105.096 287.982 105.279 288.367 105.492L288.875 105.781C290.073 106.458 290.672 107.208 290.672 108.031C290.672 108.62 290.44 109.104 289.977 109.484C289.518 109.859 288.927 110.047 288.203 110.047C287.776 110.047 287.396 110.003 287.062 109.914C286.729 109.82 286.31 109.651 285.805 109.406ZM291.305 103.875L293.977 101.25V102.734H296.25V104.016H293.977V107.539C293.977 108.362 294.318 108.774 295 108.774C295.51 108.774 296.049 108.602 296.617 108.258V109.586C296.07 109.893 295.474 110.047 294.828 110.047C294.177 110.047 293.635 109.857 293.203 109.477C293.068 109.362 292.956 109.234 292.867 109.094C292.779 108.948 292.703 108.761 292.641 108.531C292.583 108.297 292.555 107.854 292.555 107.203V104.016H291.305V103.875ZM20.4688 126.734V127.649C21.1042 126.945 21.8255 126.594 22.6328 126.594C23.0807 126.594 23.4974 126.711 23.8828 126.945C24.2682 127.175 24.5599 127.492 24.7578 127.899C24.9609 128.3 25.0625 128.938 25.0625 129.813V133.922H23.6406V129.828C23.6406 129.094 23.5286 128.57 23.3047 128.258C23.0807 127.94 22.7057 127.781 22.1797 127.781C21.5078 127.781 20.9375 128.117 20.4688 128.789V133.922H19.0156V126.734H20.4688ZM33.1719 130.453H28.1172C28.1536 131.141 28.3828 131.688 28.8047 132.094C29.2318 132.5 29.7812 132.703 30.4531 132.703C31.3906 132.703 32.2552 132.412 33.0469 131.828V133.219C32.6094 133.511 32.1745 133.719 31.7422 133.844C31.3151 133.969 30.8125 134.031 30.2344 134.031C29.4427 134.031 28.8021 133.867 28.3125 133.539C27.8229 133.211 27.4297 132.771 27.1328 132.219C26.8411 131.662 26.6953 131.018 26.6953 130.289C26.6953 129.195 27.0052 128.307 27.625 127.625C28.2448 126.938 29.0495 126.594 30.0391 126.594C30.9922 126.594 31.7526 126.927 32.3203 127.594C32.888 128.261 33.1719 129.154 33.1719 130.274V130.453ZM28.1484 129.602H31.7656C31.7292 129.034 31.5599 128.596 31.2578 128.289C30.9557 127.982 30.5495 127.828 30.0391 127.828C29.5286 127.828 29.1094 127.982 28.7812 128.289C28.4583 128.596 28.2474 129.034 28.1484 129.602ZM40.8438 130.453H35.7891C35.8255 131.141 36.0547 131.688 36.4766 132.094C36.9036 132.5 37.4531 132.703 38.125 132.703C39.0625 132.703 39.9271 132.412 40.7188 131.828V133.219C40.2812 133.511 39.8464 133.719 39.4141 133.844C38.987 133.969 38.4844 134.031 37.9062 134.031C37.1146 134.031 36.474 133.867 35.9844 133.539C35.4948 133.211 35.1016 132.771 34.8047 132.219C34.513 131.662 34.3672 131.018 34.3672 130.289C34.3672 129.195 34.6771 128.307 35.2969 127.625C35.9167 126.938 36.7214 126.594 37.7109 126.594C38.6641 126.594 39.4245 126.927 39.9922 127.594C40.5599 128.261 40.8438 129.154 40.8438 130.274V130.453ZM35.8203 129.602H39.4375C39.401 129.034 39.2318 128.596 38.9297 128.289C38.6276 127.982 38.2214 127.828 37.7109 127.828C37.2005 127.828 36.7812 127.982 36.4531 128.289C36.1302 128.596 35.9193 129.034 35.8203 129.602ZM47.1875 123.008H48.6172V133.922H45.5781C44.5156 133.922 43.6667 133.586 43.0312 132.914C42.401 132.242 42.0859 131.341 42.0859 130.211C42.0859 129.154 42.4167 128.284 43.0781 127.602C43.7448 126.919 44.5938 126.578 45.625 126.578C46.1042 126.578 46.625 126.68 47.1875 126.883V123.008ZM47.1875 132.703V128.149C46.7448 127.925 46.2969 127.813 45.8438 127.813C45.1354 127.813 44.5703 128.044 44.1484 128.508C43.7318 128.971 43.5234 129.596 43.5234 130.383C43.5234 131.123 43.7057 131.693 44.0703 132.094C44.2891 132.333 44.5208 132.495 44.7656 132.578C45.0104 132.662 45.4505 132.703 46.0859 132.703H47.1875ZM53.9922 127.875L56.6641 125.25V126.734H58.9375V128.016H56.6641V131.539C56.6641 132.362 57.0052 132.774 57.6875 132.774C58.1979 132.774 58.737 132.602 59.3047 132.258V133.586C58.7578 133.893 58.1615 134.047 57.5156 134.047C56.8646 134.047 56.3229 133.857 55.8906 133.477C55.7552 133.362 55.6432 133.234 55.5547 133.094C55.4661 132.948 55.3906 132.761 55.3281 132.531C55.2708 132.297 55.2422 131.854 55.2422 131.203V128.016H53.9922V127.875ZM63.7656 126.719C64.8594 126.719 65.7682 127.073 66.4922 127.781C67.2161 128.484 67.5781 129.37 67.5781 130.438C67.5781 131.474 67.2109 132.336 66.4766 133.024C65.7422 133.706 64.8177 134.047 63.7031 134.047C62.625 134.047 61.724 133.701 61 133.008C60.276 132.31 59.9141 131.44 59.9141 130.399C59.9141 129.346 60.2786 128.471 61.0078 127.774C61.7422 127.07 62.6615 126.719 63.7656 126.719ZM63.6875 128C63.0052 128 62.4453 128.224 62.0078 128.672C61.5703 129.12 61.3516 129.69 61.3516 130.383C61.3516 131.07 61.5755 131.633 62.0234 132.07C62.4714 132.503 63.0469 132.719 63.75 132.719C64.4479 132.719 65.0182 132.5 65.4609 132.063C65.9089 131.62 66.1328 131.055 66.1328 130.367C66.1328 129.685 65.901 129.12 65.4375 128.672C64.974 128.224 64.3906 128 63.6875 128ZM73.6406 123.008H75.0625V133.922H73.6406V123.008ZM83.25 130.453H78.1953C78.2318 131.141 78.4609 131.688 78.8828 132.094C79.3099 132.5 79.8594 132.703 80.5312 132.703C81.4688 132.703 82.3333 132.412 83.125 131.828V133.219C82.6875 133.511 82.2526 133.719 81.8203 133.844C81.3932 133.969 80.8906 134.031 80.3125 134.031C79.5208 134.031 78.8802 133.867 78.3906 133.539C77.901 133.211 77.5078 132.771 77.2109 132.219C76.9193 131.662 76.7734 131.018 76.7734 130.289C76.7734 129.195 77.0833 128.307 77.7031 127.625C78.3229 126.938 79.1276 126.594 80.1172 126.594C81.0703 126.594 81.8307 126.927 82.3984 127.594C82.9661 128.261 83.25 129.154 83.25 130.274V130.453ZM78.2266 129.602H81.8438C81.8073 129.034 81.638 128.596 81.3359 128.289C81.0339 127.982 80.6276 127.828 80.1172 127.828C79.6068 127.828 79.1875 127.982 78.8594 128.289C78.5365 128.596 78.3255 129.034 78.2266 129.602ZM89.3125 129.602V132.656C89.3125 132.901 89.3958 133.024 89.5625 133.024C89.7344 133.024 90.0026 132.896 90.3672 132.641V133.508C90.0443 133.716 89.7839 133.857 89.5859 133.93C89.3932 134.008 89.1901 134.047 88.9766 134.047C88.3672 134.047 88.0078 133.807 87.8984 133.328C87.2943 133.797 86.651 134.031 85.9688 134.031C85.4688 134.031 85.0521 133.867 84.7188 133.539C84.3854 133.206 84.2188 132.789 84.2188 132.289C84.2188 131.836 84.3802 131.432 84.7031 131.078C85.0312 130.719 85.4948 130.435 86.0938 130.227L87.9141 129.602V129.219C87.9141 128.354 87.4818 127.922 86.6172 127.922C85.8411 127.922 85.0859 128.323 84.3516 129.125V127.57C84.9036 126.919 85.6979 126.594 86.7344 126.594C87.5104 126.594 88.1328 126.797 88.6016 127.203C88.7578 127.333 88.8984 127.508 89.0234 127.727C89.1484 127.94 89.2266 128.156 89.2578 128.375C89.2943 128.589 89.3125 128.998 89.3125 129.602ZM87.9141 132.5V130.367L86.9609 130.734C86.4766 130.927 86.1328 131.123 85.9297 131.32C85.7318 131.513 85.6328 131.755 85.6328 132.047C85.6328 132.344 85.7266 132.586 85.9141 132.774C86.1068 132.961 86.3542 133.055 86.6562 133.055C87.1094 133.055 87.5286 132.87 87.9141 132.5ZM95.4609 126.734H97L93.8281 134.047H93.3516L90.1016 126.734H91.6562L93.5938 131.156L95.4609 126.734ZM103.875 130.453H98.8203C98.8568 131.141 99.0859 131.688 99.5078 132.094C99.9349 132.5 100.484 132.703 101.156 132.703C102.094 132.703 102.958 132.412 103.75 131.828V133.219C103.312 133.511 102.878 133.719 102.445 133.844C102.018 133.969 101.516 134.031 100.938 134.031C100.146 134.031 99.5052 133.867 99.0156 133.539C98.526 133.211 98.1328 132.771 97.8359 132.219C97.5443 131.662 97.3984 131.018 97.3984 130.289C97.3984 129.195 97.7083 128.307 98.3281 127.625C98.9479 126.938 99.7526 126.594 100.742 126.594C101.695 126.594 102.456 126.927 103.023 127.594C103.591 128.261 103.875 129.154 103.875 130.274V130.453ZM98.8516 129.602H102.469C102.432 129.034 102.263 128.596 101.961 128.289C101.659 127.982 101.253 127.828 100.742 127.828C100.232 127.828 99.8125 127.982 99.4844 128.289C99.1615 128.596 98.9505 129.034 98.8516 129.602ZM114.391 129.602V132.656C114.391 132.901 114.474 133.024 114.641 133.024C114.812 133.024 115.081 132.896 115.445 132.641V133.508C115.122 133.716 114.862 133.857 114.664 133.93C114.471 134.008 114.268 134.047 114.055 134.047C113.445 134.047 113.086 133.807 112.977 133.328C112.372 133.797 111.729 134.031 111.047 134.031C110.547 134.031 110.13 133.867 109.797 133.539C109.464 133.206 109.297 132.789 109.297 132.289C109.297 131.836 109.458 131.432 109.781 131.078C110.109 130.719 110.573 130.435 111.172 130.227L112.992 129.602V129.219C112.992 128.354 112.56 127.922 111.695 127.922C110.919 127.922 110.164 128.323 109.43 129.125V127.57C109.982 126.919 110.776 126.594 111.812 126.594C112.589 126.594 113.211 126.797 113.68 127.203C113.836 127.333 113.977 127.508 114.102 127.727C114.227 127.94 114.305 128.156 114.336 128.375C114.372 128.589 114.391 128.998 114.391 129.602ZM112.992 132.5V130.367L112.039 130.734C111.555 130.927 111.211 131.123 111.008 131.32C110.81 131.513 110.711 131.755 110.711 132.047C110.711 132.344 110.805 132.586 110.992 132.774C111.185 132.961 111.432 133.055 111.734 133.055C112.188 133.055 112.607 132.87 112.992 132.5ZM118.125 126.734V127.649C118.76 126.945 119.482 126.594 120.289 126.594C120.737 126.594 121.154 126.711 121.539 126.945C121.924 127.175 122.216 127.492 122.414 127.899C122.617 128.3 122.719 128.938 122.719 129.813V133.922H121.297V129.828C121.297 129.094 121.185 128.57 120.961 128.258C120.737 127.94 120.362 127.781 119.836 127.781C119.164 127.781 118.594 128.117 118.125 128.789V133.922H116.672V126.734H118.125ZM129.5 123.008H130.93V133.922H127.891C126.828 133.922 125.979 133.586 125.344 132.914C124.714 132.242 124.398 131.341 124.398 130.211C124.398 129.154 124.729 128.284 125.391 127.602C126.057 126.919 126.906 126.578 127.938 126.578C128.417 126.578 128.938 126.68 129.5 126.883V123.008ZM129.5 132.703V128.149C129.057 127.925 128.609 127.813 128.156 127.813C127.448 127.813 126.883 128.044 126.461 128.508C126.044 128.971 125.836 129.596 125.836 130.383C125.836 131.123 126.018 131.693 126.383 132.094C126.602 132.333 126.833 132.495 127.078 132.578C127.323 132.662 127.763 132.703 128.398 132.703H129.5ZM136.945 129.219C136.945 128.453 137.224 127.849 137.781 127.406C138.344 126.958 139.109 126.734 140.078 126.734H143.039V127.844H141.586C141.867 128.13 142.062 128.391 142.172 128.625C142.281 128.859 142.336 129.128 142.336 129.43C142.336 129.805 142.229 130.175 142.016 130.539C141.802 130.899 141.526 131.175 141.188 131.367C140.854 131.56 140.305 131.714 139.539 131.828C139.003 131.906 138.734 132.091 138.734 132.383C138.734 132.55 138.833 132.688 139.031 132.797C139.234 132.901 139.599 133.011 140.125 133.125C141.005 133.318 141.57 133.469 141.82 133.578C142.076 133.688 142.305 133.844 142.508 134.047C142.852 134.391 143.023 134.823 143.023 135.344C143.023 136.026 142.719 136.57 142.109 136.977C141.505 137.383 140.695 137.586 139.68 137.586C138.654 137.586 137.833 137.38 137.219 136.969C136.609 136.563 136.305 136.016 136.305 135.328C136.305 134.354 136.906 133.727 138.109 133.445C137.63 133.138 137.391 132.833 137.391 132.531C137.391 132.302 137.492 132.094 137.695 131.906C137.904 131.719 138.182 131.581 138.531 131.492C137.474 131.024 136.945 130.266 136.945 129.219ZM139.617 127.969C139.232 127.969 138.904 128.099 138.633 128.359C138.362 128.62 138.227 128.932 138.227 129.297C138.227 129.667 138.359 129.974 138.625 130.219C138.891 130.458 139.227 130.578 139.633 130.578C140.034 130.578 140.367 130.456 140.633 130.211C140.904 129.961 141.039 129.651 141.039 129.281C141.039 128.906 140.904 128.594 140.633 128.344C140.362 128.094 140.023 127.969 139.617 127.969ZM139.281 134.258C138.802 134.258 138.409 134.359 138.102 134.563C137.799 134.766 137.648 135.026 137.648 135.344C137.648 136.083 138.315 136.453 139.648 136.453C140.279 136.453 140.766 136.359 141.109 136.172C141.458 135.99 141.633 135.729 141.633 135.391C141.633 135.057 141.414 134.784 140.977 134.57C140.539 134.362 139.974 134.258 139.281 134.258ZM147.422 126.719C148.516 126.719 149.424 127.073 150.148 127.781C150.872 128.484 151.234 129.37 151.234 130.438C151.234 131.474 150.867 132.336 150.133 133.024C149.398 133.706 148.474 134.047 147.359 134.047C146.281 134.047 145.38 133.701 144.656 133.008C143.932 132.31 143.57 131.44 143.57 130.399C143.57 129.346 143.935 128.471 144.664 127.774C145.398 127.07 146.318 126.719 147.422 126.719ZM147.344 128C146.661 128 146.102 128.224 145.664 128.672C145.227 129.12 145.008 129.69 145.008 130.383C145.008 131.07 145.232 131.633 145.68 132.07C146.128 132.503 146.703 132.719 147.406 132.719C148.104 132.719 148.674 132.5 149.117 132.063C149.565 131.62 149.789 131.055 149.789 130.367C149.789 129.685 149.557 129.12 149.094 128.672C148.63 128.224 148.047 128 147.344 128ZM166.242 126.734H167.766L164.594 134.047H164.148L162.016 129.039L159.922 134.047H159.461L156.258 126.734H157.781L159.664 131.094L161.492 126.734H162.547L164.367 131.094L166.242 126.734ZM168.75 123.008H170.172V127.68C170.766 126.956 171.503 126.594 172.383 126.594C172.862 126.594 173.292 126.714 173.672 126.953C174.052 127.193 174.333 127.524 174.516 127.945C174.703 128.367 174.797 128.995 174.797 129.828V133.922H173.375V129.477C173.375 128.951 173.245 128.529 172.984 128.211C172.729 127.888 172.391 127.727 171.969 127.727C171.656 127.727 171.362 127.807 171.086 127.969C170.81 128.13 170.505 128.399 170.172 128.774V133.922H168.75V123.008ZM182.906 130.453H177.852C177.888 131.141 178.117 131.688 178.539 132.094C178.966 132.5 179.516 132.703 180.188 132.703C181.125 132.703 181.99 132.412 182.781 131.828V133.219C182.344 133.511 181.909 133.719 181.477 133.844C181.049 133.969 180.547 134.031 179.969 134.031C179.177 134.031 178.536 133.867 178.047 133.539C177.557 133.211 177.164 132.771 176.867 132.219C176.576 131.662 176.43 131.018 176.43 130.289C176.43 129.195 176.74 128.307 177.359 127.625C177.979 126.938 178.784 126.594 179.773 126.594C180.727 126.594 181.487 126.927 182.055 127.594C182.622 128.261 182.906 129.154 182.906 130.274V130.453ZM177.883 129.602H181.5C181.464 129.034 181.294 128.596 180.992 128.289C180.69 127.982 180.284 127.828 179.773 127.828C179.263 127.828 178.844 127.982 178.516 128.289C178.193 128.596 177.982 129.034 177.883 129.602ZM185.977 126.734V128.383L186.055 128.258C186.742 127.149 187.43 126.594 188.117 126.594C188.654 126.594 189.214 126.865 189.797 127.406L189.047 128.656C188.552 128.188 188.094 127.953 187.672 127.953C187.214 127.953 186.815 128.172 186.477 128.609C186.143 129.047 185.977 129.565 185.977 130.164V133.922H184.547V126.734H185.977ZM196.594 130.453H191.539C191.576 131.141 191.805 131.688 192.227 132.094C192.654 132.5 193.203 132.703 193.875 132.703C194.812 132.703 195.677 132.412 196.469 131.828V133.219C196.031 133.511 195.596 133.719 195.164 133.844C194.737 133.969 194.234 134.031 193.656 134.031C192.865 134.031 192.224 133.867 191.734 133.539C191.245 133.211 190.852 132.771 190.555 132.219C190.263 131.662 190.117 131.018 190.117 130.289C190.117 129.195 190.427 128.307 191.047 127.625C191.667 126.938 192.471 126.594 193.461 126.594C194.414 126.594 195.174 126.927 195.742 127.594C196.31 128.261 196.594 129.154 196.594 130.274V130.453ZM191.57 129.602H195.188C195.151 129.034 194.982 128.596 194.68 128.289C194.378 127.982 193.971 127.828 193.461 127.828C192.951 127.828 192.531 127.982 192.203 128.289C191.88 128.596 191.669 129.034 191.57 129.602ZM206.992 126.734H208.594L203.508 137.586H201.922L204.367 132.383L201.586 126.734H203.203L205.141 130.789L206.992 126.734ZM212.719 126.719C213.812 126.719 214.721 127.073 215.445 127.781C216.169 128.484 216.531 129.37 216.531 130.438C216.531 131.474 216.164 132.336 215.43 133.024C214.695 133.706 213.771 134.047 212.656 134.047C211.578 134.047 210.677 133.701 209.953 133.008C209.229 132.31 208.867 131.44 208.867 130.399C208.867 129.346 209.232 128.471 209.961 127.774C210.695 127.07 211.615 126.719 212.719 126.719ZM212.641 128C211.958 128 211.398 128.224 210.961 128.672C210.523 129.12 210.305 129.69 210.305 130.383C210.305 131.07 210.529 131.633 210.977 132.07C211.424 132.503 212 132.719 212.703 132.719C213.401 132.719 213.971 132.5 214.414 132.063C214.862 131.62 215.086 131.055 215.086 130.367C215.086 129.685 214.854 129.12 214.391 128.672C213.927 128.224 213.344 128 212.641 128ZM222.688 133.922V133.008C222.385 133.336 222.039 133.591 221.648 133.774C221.263 133.956 220.878 134.047 220.492 134.047C220.039 134.047 219.62 133.935 219.234 133.711C218.854 133.482 218.565 133.175 218.367 132.789C218.174 132.399 218.078 131.753 218.078 130.852V126.734H219.5V130.836C219.5 131.591 219.607 132.12 219.82 132.422C220.039 132.719 220.419 132.867 220.961 132.867C221.638 132.867 222.214 132.537 222.688 131.875V126.734H224.109V133.922H222.688ZM230.594 123.008H232.016V133.922H230.594V123.008ZM234.812 123.711C235.047 123.711 235.247 123.792 235.414 123.953C235.581 124.115 235.664 124.313 235.664 124.547C235.664 124.776 235.581 124.974 235.414 125.141C235.247 125.307 235.047 125.391 234.812 125.391C234.594 125.391 234.401 125.307 234.234 125.141C234.068 124.969 233.984 124.771 233.984 124.547C233.984 124.328 234.068 124.136 234.234 123.969C234.401 123.797 234.594 123.711 234.812 123.711ZM234.109 126.734H235.531V133.922H234.109V126.734ZM242.266 126.734H243.961L240.891 130.258L244.586 133.922H242.68L239.078 130.258L242.266 126.734ZM237.594 123.008H239.016V133.922H237.594V123.008ZM250.906 130.453H245.852C245.888 131.141 246.117 131.688 246.539 132.094C246.966 132.5 247.516 132.703 248.188 132.703C249.125 132.703 249.99 132.412 250.781 131.828V133.219C250.344 133.511 249.909 133.719 249.477 133.844C249.049 133.969 248.547 134.031 247.969 134.031C247.177 134.031 246.536 133.867 246.047 133.539C245.557 133.211 245.164 132.771 244.867 132.219C244.576 131.662 244.43 131.018 244.43 130.289C244.43 129.195 244.74 128.307 245.359 127.625C245.979 126.938 246.784 126.594 247.773 126.594C248.727 126.594 249.487 126.927 250.055 127.594C250.622 128.261 250.906 129.154 250.906 130.274V130.453ZM245.883 129.602H249.5C249.464 129.034 249.294 128.596 248.992 128.289C248.69 127.982 248.284 127.828 247.773 127.828C247.263 127.828 246.844 127.982 246.516 128.289C246.193 128.596 245.982 129.034 245.883 129.602ZM253.516 132.18C253.781 132.18 254.008 132.271 254.195 132.453C254.383 132.636 254.477 132.859 254.477 133.125C254.477 133.386 254.383 133.604 254.195 133.781C254.013 133.958 253.786 134.047 253.516 134.047C253.25 134.047 253.026 133.958 252.844 133.781C252.661 133.604 252.57 133.386 252.57 133.125C252.57 132.859 252.661 132.636 252.844 132.453C253.026 132.271 253.25 132.18 253.516 132.18ZM268.117 126.734H269.641L266.469 134.047H266.023L263.891 129.039L261.797 134.047H261.336L258.133 126.734H259.656L261.539 131.094L263.367 126.734H264.422L266.242 131.094L268.117 126.734ZM276.453 130.453H271.398C271.435 131.141 271.664 131.688 272.086 132.094C272.513 132.5 273.062 132.703 273.734 132.703C274.672 132.703 275.536 132.412 276.328 131.828V133.219C275.891 133.511 275.456 133.719 275.023 133.844C274.596 133.969 274.094 134.031 273.516 134.031C272.724 134.031 272.083 133.867 271.594 133.539C271.104 133.211 270.711 132.771 270.414 132.219C270.122 131.662 269.977 131.018 269.977 130.289C269.977 129.195 270.286 128.307 270.906 127.625C271.526 126.938 272.331 126.594 273.32 126.594C274.273 126.594 275.034 126.927 275.602 127.594C276.169 128.261 276.453 129.154 276.453 130.274V130.453ZM271.43 129.602H275.047C275.01 129.034 274.841 128.596 274.539 128.289C274.237 127.982 273.831 127.828 273.32 127.828C272.81 127.828 272.391 127.982 272.062 128.289C271.74 128.596 271.529 129.034 271.43 129.602ZM286.969 129.602V132.656C286.969 132.901 287.052 133.024 287.219 133.024C287.391 133.024 287.659 132.896 288.023 132.641V133.508C287.701 133.716 287.44 133.857 287.242 133.93C287.049 134.008 286.846 134.047 286.633 134.047C286.023 134.047 285.664 133.807 285.555 133.328C284.951 133.797 284.307 134.031 283.625 134.031C283.125 134.031 282.708 133.867 282.375 133.539C282.042 133.206 281.875 132.789 281.875 132.289C281.875 131.836 282.036 131.432 282.359 131.078C282.688 130.719 283.151 130.435 283.75 130.227L285.57 129.602V129.219C285.57 128.354 285.138 127.922 284.273 127.922C283.497 127.922 282.742 128.323 282.008 129.125V127.57C282.56 126.919 283.354 126.594 284.391 126.594C285.167 126.594 285.789 126.797 286.258 127.203C286.414 127.333 286.555 127.508 286.68 127.727C286.805 127.94 286.883 128.156 286.914 128.375C286.951 128.589 286.969 128.998 286.969 129.602ZM285.57 132.5V130.367L284.617 130.734C284.133 130.927 283.789 131.123 283.586 131.32C283.388 131.513 283.289 131.755 283.289 132.047C283.289 132.344 283.383 132.586 283.57 132.774C283.763 132.961 284.01 133.055 284.312 133.055C284.766 133.055 285.185 132.87 285.57 132.5ZM290.805 126.734V128.383L290.883 128.258C291.57 127.149 292.258 126.594 292.945 126.594C293.482 126.594 294.042 126.865 294.625 127.406L293.875 128.656C293.38 128.188 292.922 127.953 292.5 127.953C292.042 127.953 291.643 128.172 291.305 128.609C290.971 129.047 290.805 129.565 290.805 130.164V133.922H289.375V126.734H290.805ZM301.422 130.453H296.367C296.404 131.141 296.633 131.688 297.055 132.094C297.482 132.5 298.031 132.703 298.703 132.703C299.641 132.703 300.505 132.412 301.297 131.828V133.219C300.859 133.511 300.424 133.719 299.992 133.844C299.565 133.969 299.062 134.031 298.484 134.031C297.693 134.031 297.052 133.867 296.562 133.539C296.073 133.211 295.68 132.771 295.383 132.219C295.091 131.662 294.945 131.018 294.945 130.289C294.945 129.195 295.255 128.307 295.875 127.625C296.495 126.938 297.299 126.594 298.289 126.594C299.242 126.594 300.003 126.927 300.57 127.594C301.138 128.261 301.422 129.154 301.422 130.274V130.453ZM296.398 129.602H300.016C299.979 129.034 299.81 128.596 299.508 128.289C299.206 127.982 298.799 127.828 298.289 127.828C297.779 127.828 297.359 127.982 297.031 128.289C296.708 128.596 296.497 129.034 296.398 129.602ZM121.5 150.734H123.023L119.852 158.047H119.406L117.273 153.039L115.18 158.047H114.719L111.516 150.734H113.039L114.922 155.094L116.75 150.734H117.805L119.625 155.094L121.5 150.734ZM128.555 153.602V156.656C128.555 156.901 128.638 157.024 128.805 157.024C128.977 157.024 129.245 156.896 129.609 156.641V157.508C129.286 157.716 129.026 157.857 128.828 157.93C128.635 158.008 128.432 158.047 128.219 158.047C127.609 158.047 127.25 157.807 127.141 157.328C126.536 157.797 125.893 158.031 125.211 158.031C124.711 158.031 124.294 157.867 123.961 157.539C123.628 157.206 123.461 156.789 123.461 156.289C123.461 155.836 123.622 155.432 123.945 155.078C124.273 154.719 124.737 154.435 125.336 154.227L127.156 153.602V153.219C127.156 152.354 126.724 151.922 125.859 151.922C125.083 151.922 124.328 152.323 123.594 153.125V151.57C124.146 150.919 124.94 150.594 125.977 150.594C126.753 150.594 127.375 150.797 127.844 151.203C128 151.333 128.141 151.508 128.266 151.727C128.391 151.94 128.469 152.156 128.5 152.375C128.536 152.589 128.555 152.998 128.555 153.602ZM127.156 156.5V154.367L126.203 154.734C125.719 154.927 125.375 155.123 125.172 155.32C124.974 155.513 124.875 155.755 124.875 156.047C124.875 156.344 124.969 156.586 125.156 156.774C125.349 156.961 125.596 157.055 125.898 157.055C126.352 157.055 126.771 156.87 127.156 156.5ZM131.602 147.711C131.836 147.711 132.036 147.792 132.203 147.953C132.37 148.115 132.453 148.313 132.453 148.547C132.453 148.776 132.37 148.974 132.203 149.141C132.036 149.307 131.836 149.391 131.602 149.391C131.383 149.391 131.19 149.307 131.023 149.141C130.857 148.969 130.773 148.771 130.773 148.547C130.773 148.328 130.857 148.136 131.023 147.969C131.19 147.797 131.383 147.711 131.602 147.711ZM130.898 150.734H132.32V157.922H130.898V150.734ZM133.375 151.875L136.047 149.25V150.734H138.32V152.016H136.047V155.539C136.047 156.362 136.388 156.774 137.07 156.774C137.581 156.774 138.12 156.602 138.688 156.258V157.586C138.141 157.893 137.544 158.047 136.898 158.047C136.247 158.047 135.706 157.857 135.273 157.477C135.138 157.362 135.026 157.234 134.938 157.094C134.849 156.948 134.773 156.761 134.711 156.531C134.654 156.297 134.625 155.854 134.625 155.203V152.016H133.375V151.875ZM140.445 147.711C140.68 147.711 140.88 147.792 141.047 147.953C141.214 148.115 141.297 148.313 141.297 148.547C141.297 148.776 141.214 148.974 141.047 149.141C140.88 149.307 140.68 149.391 140.445 149.391C140.227 149.391 140.034 149.307 139.867 149.141C139.701 148.969 139.617 148.771 139.617 148.547C139.617 148.328 139.701 148.136 139.867 147.969C140.034 147.797 140.227 147.711 140.445 147.711ZM139.742 150.734H141.164V157.922H139.742V150.734ZM144.648 150.734V151.649C145.284 150.945 146.005 150.594 146.812 150.594C147.26 150.594 147.677 150.711 148.062 150.945C148.448 151.175 148.74 151.492 148.938 151.899C149.141 152.3 149.242 152.938 149.242 153.813V157.922H147.82V153.828C147.82 153.094 147.708 152.57 147.484 152.258C147.26 151.94 146.885 151.781 146.359 151.781C145.688 151.781 145.117 152.117 144.648 152.789V157.922H143.195V150.734H144.648ZM150.859 153.219C150.859 152.453 151.138 151.849 151.695 151.406C152.258 150.958 153.023 150.734 153.992 150.734H156.953V151.844H155.5C155.781 152.13 155.977 152.391 156.086 152.625C156.195 152.859 156.25 153.128 156.25 153.43C156.25 153.805 156.143 154.175 155.93 154.539C155.716 154.899 155.44 155.175 155.102 155.367C154.768 155.56 154.219 155.714 153.453 155.828C152.917 155.906 152.648 156.091 152.648 156.383C152.648 156.55 152.747 156.688 152.945 156.797C153.148 156.901 153.513 157.011 154.039 157.125C154.919 157.318 155.484 157.469 155.734 157.578C155.99 157.688 156.219 157.844 156.422 158.047C156.766 158.391 156.938 158.823 156.938 159.344C156.938 160.026 156.633 160.57 156.023 160.977C155.419 161.383 154.609 161.586 153.594 161.586C152.568 161.586 151.747 161.38 151.133 160.969C150.523 160.563 150.219 160.016 150.219 159.328C150.219 158.354 150.82 157.727 152.023 157.445C151.544 157.138 151.305 156.833 151.305 156.531C151.305 156.302 151.406 156.094 151.609 155.906C151.818 155.719 152.096 155.581 152.445 155.492C151.388 155.024 150.859 154.266 150.859 153.219ZM153.531 151.969C153.146 151.969 152.818 152.099 152.547 152.359C152.276 152.62 152.141 152.932 152.141 153.297C152.141 153.667 152.273 153.974 152.539 154.219C152.805 154.458 153.141 154.578 153.547 154.578C153.948 154.578 154.281 154.456 154.547 154.211C154.818 153.961 154.953 153.651 154.953 153.281C154.953 152.906 154.818 152.594 154.547 152.344C154.276 152.094 153.938 151.969 153.531 151.969ZM153.195 158.258C152.716 158.258 152.323 158.359 152.016 158.563C151.714 158.766 151.562 159.026 151.562 159.344C151.562 160.083 152.229 160.453 153.562 160.453C154.193 160.453 154.68 160.359 155.023 160.172C155.372 159.99 155.547 159.729 155.547 159.391C155.547 159.057 155.328 158.784 154.891 158.57C154.453 158.362 153.888 158.258 153.195 158.258ZM162.672 150.734V150.305C162.672 149.149 162.917 148.287 163.406 147.719C163.901 147.151 164.492 146.867 165.18 146.867C165.477 146.867 165.828 146.914 166.234 147.008V148.399C166.005 148.315 165.786 148.274 165.578 148.274C165.021 148.274 164.633 148.422 164.414 148.719C164.201 149.016 164.094 149.544 164.094 150.305V150.734H165.375V152.016H164.094V157.922H162.672V152.016H161.641V150.734H162.672ZM169.789 150.719C170.883 150.719 171.792 151.073 172.516 151.781C173.24 152.484 173.602 153.37 173.602 154.438C173.602 155.474 173.234 156.336 172.5 157.024C171.766 157.706 170.841 158.047 169.727 158.047C168.648 158.047 167.747 157.701 167.023 157.008C166.299 156.31 165.938 155.44 165.938 154.399C165.938 153.346 166.302 152.471 167.031 151.774C167.766 151.07 168.685 150.719 169.789 150.719ZM169.711 152C169.029 152 168.469 152.224 168.031 152.672C167.594 153.12 167.375 153.69 167.375 154.383C167.375 155.07 167.599 155.633 168.047 156.07C168.495 156.503 169.07 156.719 169.773 156.719C170.471 156.719 171.042 156.5 171.484 156.063C171.932 155.62 172.156 155.055 172.156 154.367C172.156 153.685 171.924 153.12 171.461 152.672C170.997 152.224 170.414 152 169.711 152ZM176.703 150.734V152.383L176.781 152.258C177.469 151.149 178.156 150.594 178.844 150.594C179.38 150.594 179.94 150.865 180.523 151.406L179.773 152.656C179.279 152.188 178.82 151.953 178.398 151.953C177.94 151.953 177.542 152.172 177.203 152.609C176.87 153.047 176.703 153.565 176.703 154.164V157.922H175.273V150.734H176.703ZM190.375 150.734H191.977L186.891 161.586H185.305L187.75 156.383L184.969 150.734H186.586L188.523 154.789L190.375 150.734ZM196.102 150.719C197.195 150.719 198.104 151.073 198.828 151.781C199.552 152.484 199.914 153.37 199.914 154.438C199.914 155.474 199.547 156.336 198.812 157.024C198.078 157.706 197.154 158.047 196.039 158.047C194.961 158.047 194.06 157.701 193.336 157.008C192.612 156.31 192.25 155.44 192.25 154.399C192.25 153.346 192.615 152.471 193.344 151.774C194.078 151.07 194.997 150.719 196.102 150.719ZM196.023 152C195.341 152 194.781 152.224 194.344 152.672C193.906 153.12 193.688 153.69 193.688 154.383C193.688 155.07 193.911 155.633 194.359 156.07C194.807 156.503 195.383 156.719 196.086 156.719C196.784 156.719 197.354 156.5 197.797 156.063C198.245 155.62 198.469 155.055 198.469 154.367C198.469 153.685 198.237 153.12 197.773 152.672C197.31 152.224 196.727 152 196.023 152ZM206.07 157.922V157.008C205.768 157.336 205.422 157.591 205.031 157.774C204.646 157.956 204.26 158.047 203.875 158.047C203.422 158.047 203.003 157.935 202.617 157.711C202.237 157.482 201.948 157.175 201.75 156.789C201.557 156.399 201.461 155.753 201.461 154.852V150.734H202.883V154.836C202.883 155.591 202.99 156.12 203.203 156.422C203.422 156.719 203.802 156.867 204.344 156.867C205.021 156.867 205.596 156.537 206.07 155.875V150.734H207.492V157.922H206.07Z" fill="#7D848D"/>
</svg>
