<svg width="309" height="164" viewBox="0 0 309 164" fill="none" xmlns="http://www.w3.org/2000/svg">
<path d="M23.748 29V7.75977H28.8164V24.4443H37.0928V29H23.748ZM38.6309 10.8799C38.6309 10.1768 38.875 9.58105 39.3633 9.09277C39.8516 8.60449 40.4473 8.36035 41.1504 8.36035C41.8633 8.36035 42.459 8.60449 42.9375 9.09277C43.4258 9.57129 43.6699 10.167 43.6699 10.8799C43.6699 11.583 43.4258 12.1836 42.9375 12.6816C42.4492 13.1797 41.8535 13.4287 41.1504 13.4287C40.4668 13.4287 39.876 13.1797 39.3779 12.6816C38.8799 12.1738 38.6309 11.5732 38.6309 10.8799ZM43.4941 29H38.8506V15.8018L43.4941 15.1719V29ZM55.5498 15.8018V19.2734H52.4004V29H47.7129V19.2734H45.7939V15.8018H47.7129V14.6299C47.7129 12.9893 47.9668 11.583 48.4746 10.4111C48.9824 9.23926 49.6709 8.46777 50.54 8.09668L55.7549 7.4668V8.90234C54.6221 9.18555 53.7773 9.72754 53.2207 10.5283C52.6738 11.3193 52.4004 12.3984 52.4004 13.7656V15.8018H55.5498ZM61.0869 21.1631L66.8145 20.9873V20.7822C66.8145 20.0889 66.5703 19.5225 66.082 19.083C65.5938 18.6338 64.9785 18.4092 64.2363 18.4092C63.4062 18.4092 62.7129 18.6533 62.1562 19.1416C61.5996 19.6201 61.2432 20.2939 61.0869 21.1631ZM69.8467 24.2832L69.334 28.3408C68.4355 28.7705 67.5518 29.0879 66.6826 29.293C65.8135 29.498 64.9346 29.6006 64.0459 29.6006C61.8486 29.6006 60.0762 28.9707 58.7285 27.7109C57.3809 26.4414 56.707 24.791 56.707 22.7598C56.707 20.6406 57.4443 18.8535 58.9189 17.3984C60.3936 15.9336 62.1855 15.2012 64.2949 15.2012C66.1016 15.2012 67.5811 15.7383 68.7334 16.8125C69.8955 17.877 70.4766 19.2588 70.4766 20.958C70.4766 21.2217 70.457 21.6416 70.418 22.2178L70.4033 22.3057L69.9932 22.9062L60.9844 23.1553C61.0527 24.0439 61.4238 24.7666 62.0977 25.3232C62.7715 25.8701 63.6211 26.1436 64.6465 26.1436C65.3691 26.1436 66.1699 25.9873 67.0488 25.6748C67.9375 25.3623 68.8701 24.8984 69.8467 24.2832ZM81.4629 10.8799C81.4629 10.1768 81.707 9.58105 82.1953 9.09277C82.6836 8.60449 83.2793 8.36035 83.9824 8.36035C84.6953 8.36035 85.291 8.60449 85.7695 9.09277C86.2578 9.57129 86.502 10.167 86.502 10.8799C86.502 11.583 86.2578 12.1836 85.7695 12.6816C85.2812 13.1797 84.6855 13.4287 83.9824 13.4287C83.2988 13.4287 82.708 13.1797 82.21 12.6816C81.7119 12.1738 81.4629 11.5732 81.4629 10.8799ZM86.3262 29H81.6826V15.8018L86.3262 15.1719V29ZM89.7393 28.3994V24.7666C90.9014 25.5088 91.8047 26.0117 92.4492 26.2754C93.0938 26.5293 93.6895 26.6562 94.2363 26.6562C94.7148 26.6562 95.1006 26.5537 95.3936 26.3486C95.6865 26.1338 95.833 25.8555 95.833 25.5137C95.833 25.2207 95.7305 24.9766 95.5254 24.7812C95.3203 24.5859 94.9688 24.4004 94.4707 24.2246L92.7715 23.624C91.6582 23.2432 90.8135 22.7109 90.2373 22.0273C89.6611 21.334 89.373 20.5186 89.373 19.5811C89.373 18.2529 89.8369 17.1885 90.7646 16.3877C91.6924 15.5771 92.9277 15.1719 94.4707 15.1719C95.1836 15.1719 95.9355 15.2744 96.7266 15.4795C97.5273 15.6748 98.416 15.9824 99.3926 16.4023L98.8213 19.6104C98.2354 19.1123 97.5957 18.7217 96.9023 18.4385C96.209 18.1553 95.5596 18.0137 94.9541 18.0137C94.5049 18.0137 94.1387 18.1211 93.8555 18.3359C93.5723 18.541 93.4307 18.8047 93.4307 19.127C93.4307 19.4004 93.5088 19.6201 93.665 19.7861C93.8311 19.9424 94.1924 20.1133 94.749 20.2988L96.3311 20.8701C97.5713 21.3096 98.4551 21.8418 98.9824 22.4668C99.5195 23.0918 99.7881 23.9072 99.7881 24.9131C99.7881 26.3682 99.3096 27.5205 98.3525 28.3701C97.3955 29.21 96.0918 29.6299 94.4414 29.6299C93.6406 29.6299 92.8496 29.5273 92.0684 29.3223C91.2969 29.127 90.5205 28.8193 89.7393 28.3994ZM111.126 28.3994V24.7666C112.288 25.5088 113.191 26.0117 113.836 26.2754C114.48 26.5293 115.076 26.6562 115.623 26.6562C116.102 26.6562 116.487 26.5537 116.78 26.3486C117.073 26.1338 117.22 25.8555 117.22 25.5137C117.22 25.2207 117.117 24.9766 116.912 24.7812C116.707 24.5859 116.355 24.4004 115.857 24.2246L114.158 23.624C113.045 23.2432 112.2 22.7109 111.624 22.0273C111.048 21.334 110.76 20.5186 110.76 19.5811C110.76 18.2529 111.224 17.1885 112.151 16.3877C113.079 15.5771 114.314 15.1719 115.857 15.1719C116.57 15.1719 117.322 15.2744 118.113 15.4795C118.914 15.6748 119.803 15.9824 120.779 16.4023L120.208 19.6104C119.622 19.1123 118.982 18.7217 118.289 18.4385C117.596 18.1553 116.946 18.0137 116.341 18.0137C115.892 18.0137 115.525 18.1211 115.242 18.3359C114.959 18.541 114.817 18.8047 114.817 19.127C114.817 19.4004 114.896 19.6201 115.052 19.7861C115.218 19.9424 115.579 20.1133 116.136 20.2988L117.718 20.8701C118.958 21.3096 119.842 21.8418 120.369 22.4668C120.906 23.0918 121.175 23.9072 121.175 24.9131C121.175 26.3682 120.696 27.5205 119.739 28.3701C118.782 29.21 117.479 29.6299 115.828 29.6299C115.027 29.6299 114.236 29.5273 113.455 29.3223C112.684 29.127 111.907 28.8193 111.126 28.3994ZM128.484 29H123.899V8.09668L128.484 7.4668V17.6621C129.129 16.9102 129.817 16.3535 130.55 15.9922C131.292 15.6211 132.093 15.4355 132.952 15.4355C134.349 15.4355 135.408 15.8359 136.131 16.6367C136.854 17.4375 137.215 18.6094 137.215 20.1523V29H132.659V21.4414C132.659 20.748 132.518 20.2256 132.234 19.874C131.951 19.5225 131.531 19.3467 130.975 19.3467C130.174 19.3467 129.559 19.6152 129.129 20.1523C128.699 20.6895 128.484 21.4707 128.484 22.4961V29ZM144.407 22.3936C144.407 23.5166 144.646 24.4248 145.125 25.1182C145.613 25.8018 146.233 26.1436 146.985 26.1436C147.737 26.1436 148.353 25.7969 148.831 25.1035C149.319 24.4102 149.563 23.5068 149.563 22.3936C149.563 21.29 149.319 20.3916 148.831 19.6982C148.353 18.9951 147.737 18.6436 146.985 18.6436C146.233 18.6436 145.613 18.9902 145.125 19.6836C144.646 20.377 144.407 21.2803 144.407 22.3936ZM139.72 22.3936C139.72 20.2939 140.403 18.5654 141.771 17.208C143.147 15.8506 144.886 15.1719 146.985 15.1719C149.095 15.1719 150.838 15.8506 152.215 17.208C153.592 18.5654 154.28 20.2939 154.28 22.3936C154.28 24.4932 153.592 26.2266 152.215 27.5938C150.838 28.9512 149.095 29.6299 146.985 29.6299C144.896 29.6299 143.162 28.9512 141.785 27.5938C140.408 26.2266 139.72 24.4932 139.72 22.3936ZM161.59 29H156.976V15.8018H161.268L161.355 18.1162C161.883 17.1885 162.498 16.5146 163.201 16.0947C163.914 15.6748 164.798 15.4648 165.853 15.4648H166.219V20.3867H165.735H165.223C163.787 20.3867 162.82 20.5527 162.322 20.8848C161.834 21.207 161.59 21.9932 161.59 23.2432V29ZM169.412 24.5615V19.2734H167.493V15.8018H169.412V11.8467L174.1 11.2168V15.8018H177.22V19.2734H174.1V24.8838C174.1 26.0752 174.261 26.9395 174.583 27.4766C174.905 28.0039 175.511 28.4922 176.399 28.9414L171.185 29.293C170.53 28.9805 170.071 28.5166 169.808 27.9014C169.544 27.2764 169.412 26.1631 169.412 24.5615ZM196.453 19.1562C196.18 19 195.916 18.8877 195.662 18.8193C195.418 18.751 195.174 18.7168 194.93 18.7168C194.061 18.7168 193.328 19.083 192.732 19.8154C192.137 20.5381 191.839 21.4512 191.839 22.5547C191.839 23.5898 192.098 24.4541 192.615 25.1475C193.143 25.8311 193.782 26.1729 194.534 26.1729C194.837 26.1729 195.145 26.0947 195.457 25.9385C195.779 25.7725 196.111 25.5234 196.453 25.1914V19.1562ZM201.053 15.8018V24.0488C201.053 25.084 201.072 25.9531 201.111 26.6562C201.15 27.3594 201.209 27.96 201.287 28.458L197.024 29.6299L196.614 28.3701C196.038 28.7998 195.472 29.1172 194.915 29.3223C194.368 29.5273 193.792 29.6299 193.187 29.6299C191.487 29.6299 190.057 28.9512 188.895 27.5938C187.742 26.2363 187.166 24.5469 187.166 22.5254C187.166 20.3965 187.815 18.6387 189.114 17.252C190.413 15.8652 192.054 15.1719 194.036 15.1719C194.495 15.1719 194.974 15.2354 195.472 15.3623C195.97 15.4893 196.521 15.6846 197.127 15.9482L201.053 15.8018ZM209.168 29H204.583V15.8018H208.816V18.0137C209.52 17.1445 210.267 16.5 211.058 16.0801C211.849 15.6504 212.708 15.4355 213.636 15.4355C215.032 15.4355 216.092 15.8359 216.814 16.6367C217.537 17.4375 217.898 18.6094 217.898 20.1523V29H213.343V21.4414C213.343 20.748 213.201 20.2256 212.918 19.874C212.635 19.5225 212.215 19.3467 211.658 19.3467C210.857 19.3467 210.242 19.6152 209.812 20.1523C209.383 20.6895 209.168 21.4707 209.168 22.4961V29ZM229.764 19.1562C229.49 19 229.227 18.8877 228.973 18.8193C228.729 18.751 228.484 18.7168 228.24 18.7168C227.371 18.7168 226.639 19.083 226.043 19.8154C225.447 20.5381 225.149 21.4512 225.149 22.5547C225.149 23.5898 225.408 24.4541 225.926 25.1475C226.453 25.8311 227.093 26.1729 227.845 26.1729C228.138 26.1729 228.44 26.1143 228.753 25.9971C229.075 25.8701 229.412 25.6797 229.764 25.4258V19.1562ZM234.363 7.4668V29L230.335 29.6299L230.159 28.6045C229.515 28.9561 228.88 29.2148 228.255 29.3809C227.63 29.5469 226.995 29.6299 226.351 29.6299C224.505 29.6299 223.064 29.0195 222.029 27.7988C220.994 26.5781 220.477 24.8887 220.477 22.7305C220.477 20.4648 221.082 18.6484 222.293 17.2812C223.514 15.9141 225.125 15.2305 227.127 15.2305C227.596 15.2305 228.045 15.2793 228.475 15.377C228.904 15.4648 229.334 15.6064 229.764 15.8018V8.09668L234.363 7.4668ZM247.312 24.5615V19.2734H245.394V15.8018H247.312V11.8467L252 11.2168V15.8018H255.12V19.2734H252V24.8838C252 26.0752 252.161 26.9395 252.483 27.4766C252.806 28.0039 253.411 28.4922 254.3 28.9414L249.085 29.293C248.431 28.9805 247.972 28.5166 247.708 27.9014C247.444 27.2764 247.312 26.1631 247.312 24.5615ZM261.785 29H257.2V8.09668L261.785 7.4668V17.6621C262.43 16.9102 263.118 16.3535 263.851 15.9922C264.593 15.6211 265.394 15.4355 266.253 15.4355C267.649 15.4355 268.709 15.8359 269.432 16.6367C270.154 17.4375 270.516 18.6094 270.516 20.1523V29H265.96V21.4414C265.96 20.748 265.818 20.2256 265.535 19.874C265.252 19.5225 264.832 19.3467 264.275 19.3467C263.475 19.3467 262.859 19.6152 262.43 20.1523C262 20.6895 261.785 21.4707 261.785 22.4961V29ZM277.444 21.1631L283.172 20.9873V20.7822C283.172 20.0889 282.928 19.5225 282.439 19.083C281.951 18.6338 281.336 18.4092 280.594 18.4092C279.764 18.4092 279.07 18.6533 278.514 19.1416C277.957 19.6201 277.601 20.2939 277.444 21.1631ZM286.204 24.2832L285.691 28.3408C284.793 28.7705 283.909 29.0879 283.04 29.293C282.171 29.498 281.292 29.6006 280.403 29.6006C278.206 29.6006 276.434 28.9707 275.086 27.7109C273.738 26.4414 273.064 24.791 273.064 22.7598C273.064 20.6406 273.802 18.8535 275.276 17.3984C276.751 15.9336 278.543 15.2012 280.652 15.2012C282.459 15.2012 283.938 15.7383 285.091 16.8125C286.253 17.877 286.834 19.2588 286.834 20.958C286.834 21.2217 286.814 21.6416 286.775 22.2178L286.761 22.3057L286.351 22.9062L277.342 23.1553C277.41 24.0439 277.781 24.7666 278.455 25.3232C279.129 25.8701 279.979 26.1436 281.004 26.1436C281.727 26.1436 282.527 25.9873 283.406 25.6748C284.295 25.3623 285.228 24.8984 286.204 24.2832ZM74.959 65.835H74.5781L67.8252 51.8018H72.7764L75.501 57.7637L78.6797 51.0254H79.2217L82.2246 57.7637L85.0664 51.8018H89.2705L82.3125 65.835H81.917L78.5332 58.3936L74.959 65.835ZM94.6465 58.3936C94.6465 59.5166 94.8857 60.4248 95.3643 61.1182C95.8525 61.8018 96.4727 62.1436 97.2246 62.1436C97.9766 62.1436 98.5918 61.7969 99.0703 61.1035C99.5586 60.4102 99.8027 59.5068 99.8027 58.3936C99.8027 57.29 99.5586 56.3916 99.0703 55.6982C98.5918 54.9951 97.9766 54.6436 97.2246 54.6436C96.4727 54.6436 95.8525 54.9902 95.3643 55.6836C94.8857 56.377 94.6465 57.2803 94.6465 58.3936ZM89.959 58.3936C89.959 56.2939 90.6426 54.5654 92.0098 53.208C93.3867 51.8506 95.125 51.1719 97.2246 51.1719C99.334 51.1719 101.077 51.8506 102.454 53.208C103.831 54.5654 104.52 56.2939 104.52 58.3936C104.52 60.4932 103.831 62.2266 102.454 63.5938C101.077 64.9512 99.334 65.6299 97.2246 65.6299C95.1348 65.6299 93.4014 64.9512 92.0244 63.5938C90.6475 62.2266 89.959 60.4932 89.959 58.3936ZM111.829 65H107.215V51.8018H111.507L111.595 54.1162C112.122 53.1885 112.737 52.5146 113.44 52.0947C114.153 51.6748 115.037 51.4648 116.092 51.4648H116.458V56.3867H115.975H115.462C114.026 56.3867 113.06 56.5527 112.562 56.8848C112.073 57.207 111.829 57.9932 111.829 59.2432V65ZM123.431 65H118.787V44.0967L123.431 43.4668V65ZM135.384 55.1562C135.11 55 134.847 54.8877 134.593 54.8193C134.349 54.751 134.104 54.7168 133.86 54.7168C132.991 54.7168 132.259 55.083 131.663 55.8154C131.067 56.5381 130.77 57.4512 130.77 58.5547C130.77 59.5898 131.028 60.4541 131.546 61.1475C132.073 61.8311 132.713 62.1729 133.465 62.1729C133.758 62.1729 134.061 62.1143 134.373 61.9971C134.695 61.8701 135.032 61.6797 135.384 61.4258V55.1562ZM139.983 43.4668V65L135.955 65.6299L135.779 64.6045C135.135 64.9561 134.5 65.2148 133.875 65.3809C133.25 65.5469 132.615 65.6299 131.971 65.6299C130.125 65.6299 128.685 65.0195 127.649 63.7988C126.614 62.5781 126.097 60.8887 126.097 58.7305C126.097 56.4648 126.702 54.6484 127.913 53.2812C129.134 51.9141 130.745 51.2305 132.747 51.2305C133.216 51.2305 133.665 51.2793 134.095 51.377C134.524 51.4648 134.954 51.6064 135.384 51.8018V44.0967L139.983 43.4668ZM151.849 46.8799C151.849 46.1768 152.093 45.5811 152.581 45.0928C153.069 44.6045 153.665 44.3604 154.368 44.3604C155.081 44.3604 155.677 44.6045 156.155 45.0928C156.644 45.5713 156.888 46.167 156.888 46.8799C156.888 47.583 156.644 48.1836 156.155 48.6816C155.667 49.1797 155.071 49.4287 154.368 49.4287C153.685 49.4287 153.094 49.1797 152.596 48.6816C152.098 48.1738 151.849 47.5732 151.849 46.8799ZM156.712 65H152.068V51.8018L156.712 51.1719V65ZM160.125 64.3994V60.7666C161.287 61.5088 162.19 62.0117 162.835 62.2754C163.479 62.5293 164.075 62.6562 164.622 62.6562C165.101 62.6562 165.486 62.5537 165.779 62.3486C166.072 62.1338 166.219 61.8555 166.219 61.5137C166.219 61.2207 166.116 60.9766 165.911 60.7812C165.706 60.5859 165.354 60.4004 164.856 60.2246L163.157 59.624C162.044 59.2432 161.199 58.7109 160.623 58.0273C160.047 57.334 159.759 56.5186 159.759 55.5811C159.759 54.2529 160.223 53.1885 161.15 52.3877C162.078 51.5771 163.313 51.1719 164.856 51.1719C165.569 51.1719 166.321 51.2744 167.112 51.4795C167.913 51.6748 168.802 51.9824 169.778 52.4023L169.207 55.6104C168.621 55.1123 167.981 54.7217 167.288 54.4385C166.595 54.1553 165.945 54.0137 165.34 54.0137C164.891 54.0137 164.524 54.1211 164.241 54.3359C163.958 54.541 163.816 54.8047 163.816 55.127C163.816 55.4004 163.895 55.6201 164.051 55.7861C164.217 55.9424 164.578 56.1133 165.135 56.2988L166.717 56.8701C167.957 57.3096 168.841 57.8418 169.368 58.4668C169.905 59.0918 170.174 59.9072 170.174 60.9131C170.174 62.3682 169.695 63.5205 168.738 64.3701C167.781 65.21 166.478 65.6299 164.827 65.6299C164.026 65.6299 163.235 65.5273 162.454 65.3223C161.683 65.127 160.906 64.8193 160.125 64.3994Z" fill="#1B1E28"/>
<path d="M186.727 65.835H186.346L179.593 51.8018H184.544L187.269 57.7637L190.447 51.0254H190.989L193.992 57.7637L196.834 51.8018H201.038L194.08 65.835H193.685L190.301 58.3936L186.727 65.835ZM202.269 46.8799C202.269 46.1768 202.513 45.5811 203.001 45.0928C203.489 44.6045 204.085 44.3604 204.788 44.3604C205.501 44.3604 206.097 44.6045 206.575 45.0928C207.063 45.5713 207.308 46.167 207.308 46.8799C207.308 47.583 207.063 48.1836 206.575 48.6816C206.087 49.1797 205.491 49.4287 204.788 49.4287C204.104 49.4287 203.514 49.1797 203.016 48.6816C202.518 48.1738 202.269 47.5732 202.269 46.8799ZM207.132 65H202.488V51.8018L207.132 51.1719V65ZM219.085 55.1562C218.812 55 218.548 54.8877 218.294 54.8193C218.05 54.751 217.806 54.7168 217.562 54.7168C216.692 54.7168 215.96 55.083 215.364 55.8154C214.769 56.5381 214.471 57.4512 214.471 58.5547C214.471 59.5898 214.729 60.4541 215.247 61.1475C215.774 61.8311 216.414 62.1729 217.166 62.1729C217.459 62.1729 217.762 62.1143 218.074 61.9971C218.396 61.8701 218.733 61.6797 219.085 61.4258V55.1562ZM223.685 43.4668V65L219.656 65.6299L219.48 64.6045C218.836 64.9561 218.201 65.2148 217.576 65.3809C216.951 65.5469 216.316 65.6299 215.672 65.6299C213.826 65.6299 212.386 65.0195 211.351 63.7988C210.315 62.5781 209.798 60.8887 209.798 58.7305C209.798 56.4648 210.403 54.6484 211.614 53.2812C212.835 51.9141 214.446 51.2305 216.448 51.2305C216.917 51.2305 217.366 51.2793 217.796 51.377C218.226 51.4648 218.655 51.6064 219.085 51.8018V44.0967L223.685 43.4668ZM230.76 57.1631L236.487 56.9873V56.7822C236.487 56.0889 236.243 55.5225 235.755 55.083C235.267 54.6338 234.651 54.4092 233.909 54.4092C233.079 54.4092 232.386 54.6533 231.829 55.1416C231.272 55.6201 230.916 56.2939 230.76 57.1631ZM239.52 60.2832L239.007 64.3408C238.108 64.7705 237.225 65.0879 236.355 65.293C235.486 65.498 234.607 65.6006 233.719 65.6006C231.521 65.6006 229.749 64.9707 228.401 63.7109C227.054 62.4414 226.38 60.791 226.38 58.7598C226.38 56.6406 227.117 54.8535 228.592 53.3984C230.066 51.9336 231.858 51.2012 233.968 51.2012C235.774 51.2012 237.254 51.7383 238.406 52.8125C239.568 53.877 240.149 55.2588 240.149 56.958C240.149 57.2217 240.13 57.6416 240.091 58.2178L240.076 58.3057L239.666 58.9062L230.657 59.1553C230.726 60.0439 231.097 60.7666 231.771 61.3232C232.444 61.8701 233.294 62.1436 234.319 62.1436C235.042 62.1436 235.843 61.9873 236.722 61.6748C237.61 61.3623 238.543 60.8984 239.52 60.2832Z" fill="#FF7029"/>
<path d="M179.53 83.2984C186.322 75.3819 216.869 65.3831 242.449 82.6849C228.297 77.2543 199.364 73.3638 179.53 83.2984Z" fill="#FF7029"/>
<path d="M24.2734 98.3195H25.375L30.2578 109.296H28.6562L27.2031 106.062H22.5625L21.1875 109.296H19.5859L24.2734 98.3195ZM26.5625 104.671L24.8047 100.718L23.1719 104.671H26.5625ZM30.2578 103.249L32.9297 100.624V102.109H35.2031V103.39H32.9297V106.913C32.9297 107.736 33.2708 108.148 33.9531 108.148C34.4635 108.148 35.0026 107.976 35.5703 107.632V108.96C35.0234 109.267 34.4271 109.421 33.7812 109.421C33.1302 109.421 32.5885 109.231 32.1562 108.851C32.0208 108.736 31.9089 108.609 31.8203 108.468C31.7318 108.322 31.6562 108.135 31.5938 107.905C31.5365 107.671 31.5078 107.228 31.5078 106.577V103.39H30.2578V103.249ZM41.2578 98.382H47.0781V99.7727H42.8203V102.82H47.0781V104.21H42.8203V109.296H41.2578V98.382ZM50.0859 102.109V103.757L50.1641 103.632C50.8516 102.523 51.5391 101.968 52.2266 101.968C52.763 101.968 53.3229 102.239 53.9062 102.78L53.1562 104.03C52.6615 103.562 52.2031 103.327 51.7812 103.327C51.3229 103.327 50.9245 103.546 50.5859 103.984C50.2526 104.421 50.0859 104.939 50.0859 105.538V109.296H48.6562V102.109H50.0859ZM55.6406 99.0852C55.875 99.0852 56.0755 99.1659 56.2422 99.3274C56.4089 99.4888 56.4922 99.6867 56.4922 99.9211C56.4922 100.15 56.4089 100.348 56.2422 100.515C56.0755 100.682 55.875 100.765 55.6406 100.765C55.4219 100.765 55.2292 100.682 55.0625 100.515C54.8958 100.343 54.8125 100.145 54.8125 99.9211C54.8125 99.7024 54.8958 99.5097 55.0625 99.343C55.2292 99.1711 55.4219 99.0852 55.6406 99.0852ZM54.9375 102.109H56.3594V109.296H54.9375V102.109ZM64.5469 105.827H59.4922C59.5286 106.515 59.7578 107.062 60.1797 107.468C60.6068 107.874 61.1562 108.077 61.8281 108.077C62.7656 108.077 63.6302 107.786 64.4219 107.202V108.593C63.9844 108.885 63.5495 109.093 63.1172 109.218C62.6901 109.343 62.1875 109.405 61.6094 109.405C60.8177 109.405 60.1771 109.241 59.6875 108.913C59.1979 108.585 58.8047 108.145 58.5078 107.593C58.2161 107.036 58.0703 106.392 58.0703 105.663C58.0703 104.57 58.3802 103.682 59 102.999C59.6198 102.312 60.4245 101.968 61.4141 101.968C62.3672 101.968 63.1276 102.301 63.6953 102.968C64.263 103.635 64.5469 104.528 64.5469 105.648V105.827ZM59.5234 104.976H63.1406C63.1042 104.408 62.9349 103.971 62.6328 103.663C62.3307 103.356 61.9245 103.202 61.4141 103.202C60.9036 103.202 60.4844 103.356 60.1562 103.663C59.8333 103.971 59.6224 104.408 59.5234 104.976ZM67.5156 102.109V103.023C68.151 102.32 68.8724 101.968 69.6797 101.968C70.1276 101.968 70.5443 102.085 70.9297 102.32C71.3151 102.549 71.6068 102.866 71.8047 103.273C72.0078 103.674 72.1094 104.312 72.1094 105.187V109.296H70.6875V105.202C70.6875 104.468 70.5755 103.945 70.3516 103.632C70.1276 103.314 69.7526 103.155 69.2266 103.155C68.5547 103.155 67.9844 103.491 67.5156 104.163V109.296H66.0625V102.109H67.5156ZM78.8906 98.382H80.3203V109.296H77.2812C76.2188 109.296 75.3698 108.96 74.7344 108.288C74.1042 107.616 73.7891 106.715 73.7891 105.585C73.7891 104.528 74.1198 103.658 74.7812 102.976C75.4479 102.294 76.2969 101.952 77.3281 101.952C77.8073 101.952 78.3281 102.054 78.8906 102.257V98.382ZM78.8906 108.077V103.523C78.4479 103.299 78 103.187 77.5469 103.187C76.8385 103.187 76.2734 103.419 75.8516 103.882C75.4349 104.346 75.2266 104.971 75.2266 105.757C75.2266 106.497 75.4089 107.067 75.7734 107.468C75.9922 107.708 76.224 107.869 76.4688 107.952C76.7135 108.036 77.1536 108.077 77.7891 108.077H78.8906ZM81.8984 108.78V107.249C82.2995 107.53 82.7083 107.76 83.125 107.937C83.5469 108.109 83.901 108.195 84.1875 108.195C84.4844 108.195 84.7396 108.122 84.9531 107.976C85.1667 107.83 85.2734 107.655 85.2734 107.452C85.2734 107.244 85.2031 107.072 85.0625 106.937C84.9271 106.796 84.6302 106.596 84.1719 106.335C83.2552 105.825 82.6536 105.39 82.3672 105.03C82.0859 104.666 81.9453 104.27 81.9453 103.843C81.9453 103.291 82.1589 102.84 82.5859 102.491C83.0182 102.142 83.5729 101.968 84.25 101.968C84.9531 101.968 85.6745 102.166 86.4141 102.562V103.968C85.5703 103.458 84.8802 103.202 84.3438 103.202C84.0677 103.202 83.8438 103.262 83.6719 103.382C83.5052 103.497 83.4219 103.65 83.4219 103.843C83.4219 104.01 83.4974 104.169 83.6484 104.32C83.8047 104.471 84.0755 104.653 84.4609 104.866L84.9688 105.155C86.1667 105.833 86.7656 106.583 86.7656 107.405C86.7656 107.994 86.5339 108.478 86.0703 108.859C85.612 109.234 85.0208 109.421 84.2969 109.421C83.8698 109.421 83.4896 109.377 83.1562 109.288C82.8229 109.195 82.4036 109.025 81.8984 108.78ZM91.8516 103.249L94.5234 100.624V102.109H96.7969V103.39H94.5234V106.913C94.5234 107.736 94.8646 108.148 95.5469 108.148C96.0573 108.148 96.5964 107.976 97.1641 107.632V108.96C96.6172 109.267 96.0208 109.421 95.375 109.421C94.724 109.421 94.1823 109.231 93.75 108.851C93.6146 108.736 93.5026 108.609 93.4141 108.468C93.3255 108.322 93.25 108.135 93.1875 107.905C93.1302 107.671 93.1016 107.228 93.1016 106.577V103.39H91.8516V103.249ZM101.625 102.093C102.719 102.093 103.628 102.447 104.352 103.155C105.076 103.859 105.438 104.744 105.438 105.812C105.438 106.848 105.07 107.71 104.336 108.398C103.602 109.08 102.677 109.421 101.562 109.421C100.484 109.421 99.5833 109.075 98.8594 108.382C98.1354 107.684 97.7734 106.814 97.7734 105.773C97.7734 104.721 98.138 103.846 98.8672 103.148C99.6016 102.445 100.521 102.093 101.625 102.093ZM101.547 103.374C100.865 103.374 100.305 103.598 99.8672 104.046C99.4297 104.494 99.2109 105.064 99.2109 105.757C99.2109 106.445 99.4349 107.007 99.8828 107.445C100.331 107.877 100.906 108.093 101.609 108.093C102.307 108.093 102.878 107.874 103.32 107.437C103.768 106.994 103.992 106.429 103.992 105.741C103.992 105.059 103.76 104.494 103.297 104.046C102.833 103.598 102.25 103.374 101.547 103.374ZM111.594 109.296V108.382C111.292 108.71 110.945 108.965 110.555 109.148C110.169 109.33 109.784 109.421 109.398 109.421C108.945 109.421 108.526 109.309 108.141 109.085C107.76 108.856 107.471 108.549 107.273 108.163C107.081 107.773 106.984 107.127 106.984 106.226V102.109H108.406V106.21C108.406 106.965 108.513 107.494 108.727 107.796C108.945 108.093 109.326 108.241 109.867 108.241C110.544 108.241 111.12 107.911 111.594 107.249V102.109H113.016V109.296H111.594ZM116.539 102.109V103.757L116.617 103.632C117.305 102.523 117.992 101.968 118.68 101.968C119.216 101.968 119.776 102.239 120.359 102.78L119.609 104.03C119.115 103.562 118.656 103.327 118.234 103.327C117.776 103.327 117.378 103.546 117.039 103.984C116.706 104.421 116.539 104.939 116.539 105.538V109.296H115.109V102.109H116.539ZM121.008 108.78V107.249C121.409 107.53 121.818 107.76 122.234 107.937C122.656 108.109 123.01 108.195 123.297 108.195C123.594 108.195 123.849 108.122 124.062 107.976C124.276 107.83 124.383 107.655 124.383 107.452C124.383 107.244 124.312 107.072 124.172 106.937C124.036 106.796 123.74 106.596 123.281 106.335C122.365 105.825 121.763 105.39 121.477 105.03C121.195 104.666 121.055 104.27 121.055 103.843C121.055 103.291 121.268 102.84 121.695 102.491C122.128 102.142 122.682 101.968 123.359 101.968C124.062 101.968 124.784 102.166 125.523 102.562V103.968C124.68 103.458 123.99 103.202 123.453 103.202C123.177 103.202 122.953 103.262 122.781 103.382C122.615 103.497 122.531 103.65 122.531 103.843C122.531 104.01 122.607 104.169 122.758 104.32C122.914 104.471 123.185 104.653 123.57 104.866L124.078 105.155C125.276 105.833 125.875 106.583 125.875 107.405C125.875 107.994 125.643 108.478 125.18 108.859C124.721 109.234 124.13 109.421 123.406 109.421C122.979 109.421 122.599 109.377 122.266 109.288C121.932 109.195 121.513 109.025 121.008 108.78ZM136.484 104.976V108.03C136.484 108.275 136.568 108.398 136.734 108.398C136.906 108.398 137.174 108.27 137.539 108.015V108.882C137.216 109.09 136.956 109.231 136.758 109.304C136.565 109.382 136.362 109.421 136.148 109.421C135.539 109.421 135.18 109.182 135.07 108.702C134.466 109.171 133.823 109.405 133.141 109.405C132.641 109.405 132.224 109.241 131.891 108.913C131.557 108.58 131.391 108.163 131.391 107.663C131.391 107.21 131.552 106.807 131.875 106.452C132.203 106.093 132.667 105.809 133.266 105.601L135.086 104.976V104.593C135.086 103.728 134.654 103.296 133.789 103.296C133.013 103.296 132.258 103.697 131.523 104.499V102.945C132.076 102.294 132.87 101.968 133.906 101.968C134.682 101.968 135.305 102.171 135.773 102.577C135.93 102.708 136.07 102.882 136.195 103.101C136.32 103.314 136.398 103.53 136.43 103.749C136.466 103.963 136.484 104.372 136.484 104.976ZM135.086 107.874V105.741L134.133 106.109C133.648 106.301 133.305 106.497 133.102 106.695C132.904 106.887 132.805 107.129 132.805 107.421C132.805 107.718 132.898 107.96 133.086 108.148C133.279 108.335 133.526 108.429 133.828 108.429C134.281 108.429 134.701 108.244 135.086 107.874ZM140.219 102.109V103.023C140.854 102.32 141.576 101.968 142.383 101.968C142.831 101.968 143.247 102.085 143.633 102.32C144.018 102.549 144.31 102.866 144.508 103.273C144.711 103.674 144.812 104.312 144.812 105.187V109.296H143.391V105.202C143.391 104.468 143.279 103.945 143.055 103.632C142.831 103.314 142.456 103.155 141.93 103.155C141.258 103.155 140.688 103.491 140.219 104.163V109.296H138.766V102.109H140.219ZM151.594 98.382H153.023V109.296H149.984C148.922 109.296 148.073 108.96 147.438 108.288C146.807 107.616 146.492 106.715 146.492 105.585C146.492 104.528 146.823 103.658 147.484 102.976C148.151 102.294 149 101.952 150.031 101.952C150.51 101.952 151.031 102.054 151.594 102.257V98.382ZM151.594 108.077V103.523C151.151 103.299 150.703 103.187 150.25 103.187C149.542 103.187 148.977 103.419 148.555 103.882C148.138 104.346 147.93 104.971 147.93 105.757C147.93 106.497 148.112 107.067 148.477 107.468C148.695 107.708 148.927 107.869 149.172 107.952C149.417 108.036 149.857 108.077 150.492 108.077H151.594ZM158.398 103.249L161.07 100.624V102.109H163.344V103.39H161.07V106.913C161.07 107.736 161.411 108.148 162.094 108.148C162.604 108.148 163.143 107.976 163.711 107.632V108.96C163.164 109.267 162.568 109.421 161.922 109.421C161.271 109.421 160.729 109.231 160.297 108.851C160.161 108.736 160.049 108.609 159.961 108.468C159.872 108.322 159.797 108.135 159.734 107.905C159.677 107.671 159.648 107.228 159.648 106.577V103.39H158.398V103.249ZM166.258 102.109V103.757L166.336 103.632C167.023 102.523 167.711 101.968 168.398 101.968C168.935 101.968 169.495 102.239 170.078 102.78L169.328 104.03C168.833 103.562 168.375 103.327 167.953 103.327C167.495 103.327 167.096 103.546 166.758 103.984C166.424 104.421 166.258 104.939 166.258 105.538V109.296H164.828V102.109H166.258ZM175.594 104.976V108.03C175.594 108.275 175.677 108.398 175.844 108.398C176.016 108.398 176.284 108.27 176.648 108.015V108.882C176.326 109.09 176.065 109.231 175.867 109.304C175.674 109.382 175.471 109.421 175.258 109.421C174.648 109.421 174.289 109.182 174.18 108.702C173.576 109.171 172.932 109.405 172.25 109.405C171.75 109.405 171.333 109.241 171 108.913C170.667 108.58 170.5 108.163 170.5 107.663C170.5 107.21 170.661 106.807 170.984 106.452C171.312 106.093 171.776 105.809 172.375 105.601L174.195 104.976V104.593C174.195 103.728 173.763 103.296 172.898 103.296C172.122 103.296 171.367 103.697 170.633 104.499V102.945C171.185 102.294 171.979 101.968 173.016 101.968C173.792 101.968 174.414 102.171 174.883 102.577C175.039 102.708 175.18 102.882 175.305 103.101C175.43 103.314 175.508 103.53 175.539 103.749C175.576 103.963 175.594 104.372 175.594 104.976ZM174.195 107.874V105.741L173.242 106.109C172.758 106.301 172.414 106.497 172.211 106.695C172.013 106.887 171.914 107.129 171.914 107.421C171.914 107.718 172.008 107.96 172.195 108.148C172.388 108.335 172.635 108.429 172.938 108.429C173.391 108.429 173.81 108.244 174.195 107.874ZM181.742 102.109H183.281L180.109 109.421H179.633L176.383 102.109H177.938L179.875 106.53L181.742 102.109ZM190.156 105.827H185.102C185.138 106.515 185.367 107.062 185.789 107.468C186.216 107.874 186.766 108.077 187.438 108.077C188.375 108.077 189.24 107.786 190.031 107.202V108.593C189.594 108.885 189.159 109.093 188.727 109.218C188.299 109.343 187.797 109.405 187.219 109.405C186.427 109.405 185.786 109.241 185.297 108.913C184.807 108.585 184.414 108.145 184.117 107.593C183.826 107.036 183.68 106.392 183.68 105.663C183.68 104.57 183.99 103.682 184.609 102.999C185.229 102.312 186.034 101.968 187.023 101.968C187.977 101.968 188.737 102.301 189.305 102.968C189.872 103.635 190.156 104.528 190.156 105.648V105.827ZM185.133 104.976H188.75C188.714 104.408 188.544 103.971 188.242 103.663C187.94 103.356 187.534 103.202 187.023 103.202C186.513 103.202 186.094 103.356 185.766 103.663C185.443 103.971 185.232 104.408 185.133 104.976ZM191.734 98.382H193.156V109.296H191.734V98.382ZM194.992 111.187V110.898C195.227 110.674 195.391 110.447 195.484 110.218C195.578 109.994 195.633 109.687 195.648 109.296C195.096 109.135 194.82 108.794 194.82 108.273C194.82 107.991 194.914 107.749 195.102 107.546C195.294 107.338 195.521 107.234 195.781 107.234C196.099 107.234 196.359 107.374 196.562 107.655C196.766 107.937 196.867 108.296 196.867 108.734C196.867 109.312 196.701 109.82 196.367 110.257C196.034 110.695 195.576 111.004 194.992 111.187ZM210.555 102.109H212.078L208.906 109.421H208.461L206.328 104.413L204.234 109.421H203.773L200.57 102.109H202.094L203.977 106.468L205.805 102.109H206.859L208.68 106.468L210.555 102.109ZM218.891 105.827H213.836C213.872 106.515 214.102 107.062 214.523 107.468C214.951 107.874 215.5 108.077 216.172 108.077C217.109 108.077 217.974 107.786 218.766 107.202V108.593C218.328 108.885 217.893 109.093 217.461 109.218C217.034 109.343 216.531 109.405 215.953 109.405C215.161 109.405 214.521 109.241 214.031 108.913C213.542 108.585 213.148 108.145 212.852 107.593C212.56 107.036 212.414 106.392 212.414 105.663C212.414 104.57 212.724 103.682 213.344 102.999C213.964 102.312 214.768 101.968 215.758 101.968C216.711 101.968 217.471 102.301 218.039 102.968C218.607 103.635 218.891 104.528 218.891 105.648V105.827ZM213.867 104.976H217.484C217.448 104.408 217.279 103.971 216.977 103.663C216.674 103.356 216.268 103.202 215.758 103.202C215.247 103.202 214.828 103.356 214.5 103.663C214.177 103.971 213.966 104.408 213.867 104.976ZM230.281 107.616V109.023C229.568 109.288 228.87 109.421 228.188 109.421C227.062 109.421 226.164 109.088 225.492 108.421C224.826 107.754 224.492 106.861 224.492 105.741C224.492 104.611 224.818 103.7 225.469 103.007C226.12 102.314 226.977 101.968 228.039 101.968C228.409 101.968 228.74 102.004 229.031 102.077C229.328 102.145 229.693 102.275 230.125 102.468V103.984C229.406 103.525 228.74 103.296 228.125 103.296C227.484 103.296 226.958 103.523 226.547 103.976C226.135 104.424 225.93 104.997 225.93 105.695C225.93 106.429 226.151 107.012 226.594 107.445C227.042 107.877 227.643 108.093 228.398 108.093C228.945 108.093 229.573 107.934 230.281 107.616ZM236.484 109.296V108.382C236.182 108.71 235.836 108.965 235.445 109.148C235.06 109.33 234.674 109.421 234.289 109.421C233.836 109.421 233.417 109.309 233.031 109.085C232.651 108.856 232.362 108.549 232.164 108.163C231.971 107.773 231.875 107.127 231.875 106.226V102.109H233.297V106.21C233.297 106.965 233.404 107.494 233.617 107.796C233.836 108.093 234.216 108.241 234.758 108.241C235.435 108.241 236.01 107.911 236.484 107.249V102.109H237.906V109.296H236.484ZM239.555 108.78V107.249C239.956 107.53 240.365 107.76 240.781 107.937C241.203 108.109 241.557 108.195 241.844 108.195C242.141 108.195 242.396 108.122 242.609 107.976C242.823 107.83 242.93 107.655 242.93 107.452C242.93 107.244 242.859 107.072 242.719 106.937C242.583 106.796 242.286 106.596 241.828 106.335C240.911 105.825 240.31 105.39 240.023 105.03C239.742 104.666 239.602 104.27 239.602 103.843C239.602 103.291 239.815 102.84 240.242 102.491C240.674 102.142 241.229 101.968 241.906 101.968C242.609 101.968 243.331 102.166 244.07 102.562V103.968C243.227 103.458 242.536 103.202 242 103.202C241.724 103.202 241.5 103.262 241.328 103.382C241.161 103.497 241.078 103.65 241.078 103.843C241.078 104.01 241.154 104.169 241.305 104.32C241.461 104.471 241.732 104.653 242.117 104.866L242.625 105.155C243.823 105.833 244.422 106.583 244.422 107.405C244.422 107.994 244.19 108.478 243.727 108.859C243.268 109.234 242.677 109.421 241.953 109.421C241.526 109.421 241.146 109.377 240.812 109.288C240.479 109.195 240.06 109.025 239.555 108.78ZM245.055 103.249L247.727 100.624V102.109H250V103.39H247.727V106.913C247.727 107.736 248.068 108.148 248.75 108.148C249.26 108.148 249.799 107.976 250.367 107.632V108.96C249.82 109.267 249.224 109.421 248.578 109.421C247.927 109.421 247.385 109.231 246.953 108.851C246.818 108.736 246.706 108.609 246.617 108.468C246.529 108.322 246.453 108.135 246.391 107.905C246.333 107.671 246.305 107.228 246.305 106.577V103.39H245.055V103.249ZM254.828 102.093C255.922 102.093 256.831 102.447 257.555 103.155C258.279 103.859 258.641 104.744 258.641 105.812C258.641 106.848 258.273 107.71 257.539 108.398C256.805 109.08 255.88 109.421 254.766 109.421C253.688 109.421 252.786 109.075 252.062 108.382C251.339 107.684 250.977 106.814 250.977 105.773C250.977 104.721 251.341 103.846 252.07 103.148C252.805 102.445 253.724 102.093 254.828 102.093ZM254.75 103.374C254.068 103.374 253.508 103.598 253.07 104.046C252.633 104.494 252.414 105.064 252.414 105.757C252.414 106.445 252.638 107.007 253.086 107.445C253.534 107.877 254.109 108.093 254.812 108.093C255.51 108.093 256.081 107.874 256.523 107.437C256.971 106.994 257.195 106.429 257.195 105.741C257.195 105.059 256.964 104.494 256.5 104.046C256.036 103.598 255.453 103.374 254.75 103.374ZM266.109 104.077V109.296H264.68V105.296C264.68 104.499 264.573 103.945 264.359 103.632C264.146 103.314 263.773 103.155 263.242 103.155C262.945 103.155 262.672 103.223 262.422 103.359C262.177 103.494 261.896 103.734 261.578 104.077V109.296H260.156V102.109H261.578V103.054C262.302 102.33 263.01 101.968 263.703 101.968C264.615 101.968 265.32 102.4 265.82 103.265C266.581 102.39 267.375 101.952 268.203 101.952C268.901 101.952 269.474 102.208 269.922 102.718C270.375 103.228 270.602 104.007 270.602 105.054V109.296H269.18V105.038C269.18 104.439 269.057 103.981 268.812 103.663C268.568 103.346 268.216 103.187 267.758 103.187C267.169 103.187 266.62 103.484 266.109 104.077ZM273.297 99.0852C273.531 99.0852 273.732 99.1659 273.898 99.3274C274.065 99.4888 274.148 99.6867 274.148 99.9211C274.148 100.15 274.065 100.348 273.898 100.515C273.732 100.682 273.531 100.765 273.297 100.765C273.078 100.765 272.885 100.682 272.719 100.515C272.552 100.343 272.469 100.145 272.469 99.9211C272.469 99.7024 272.552 99.5097 272.719 99.343C272.885 99.1711 273.078 99.0852 273.297 99.0852ZM272.594 102.109H274.016V109.296H272.594V102.109ZM275.406 102.109H281.547L277.742 107.968H281.547V109.296H275.25L279.023 103.437H275.406V102.109ZM288.875 105.827H283.82C283.857 106.515 284.086 107.062 284.508 107.468C284.935 107.874 285.484 108.077 286.156 108.077C287.094 108.077 287.958 107.786 288.75 107.202V108.593C288.312 108.885 287.878 109.093 287.445 109.218C287.018 109.343 286.516 109.405 285.938 109.405C285.146 109.405 284.505 109.241 284.016 108.913C283.526 108.585 283.133 108.145 282.836 107.593C282.544 107.036 282.398 106.392 282.398 105.663C282.398 104.57 282.708 103.682 283.328 102.999C283.948 102.312 284.753 101.968 285.742 101.968C286.695 101.968 287.456 102.301 288.023 102.968C288.591 103.635 288.875 104.528 288.875 105.648V105.827ZM283.852 104.976H287.469C287.432 104.408 287.263 103.971 286.961 103.663C286.659 103.356 286.253 103.202 285.742 103.202C285.232 103.202 284.812 103.356 284.484 103.663C284.161 103.971 283.951 104.408 283.852 104.976ZM14.0547 126.109V127.757L14.1328 127.632C14.8203 126.523 15.5078 125.968 16.1953 125.968C16.7318 125.968 17.2917 126.239 17.875 126.78L17.125 128.03C16.6302 127.562 16.1719 127.327 15.75 127.327C15.2917 127.327 14.8932 127.546 14.5547 127.984C14.2214 128.421 14.0547 128.939 14.0547 129.538V133.296H12.625V126.109H14.0547ZM24.6719 129.827H19.6172C19.6536 130.515 19.8828 131.062 20.3047 131.468C20.7318 131.874 21.2812 132.077 21.9531 132.077C22.8906 132.077 23.7552 131.786 24.5469 131.202V132.593C24.1094 132.885 23.6745 133.093 23.2422 133.218C22.8151 133.343 22.3125 133.405 21.7344 133.405C20.9427 133.405 20.3021 133.241 19.8125 132.913C19.3229 132.585 18.9297 132.145 18.6328 131.593C18.3411 131.036 18.1953 130.392 18.1953 129.663C18.1953 128.57 18.5052 127.682 19.125 126.999C19.7448 126.312 20.5495 125.968 21.5391 125.968C22.4922 125.968 23.2526 126.301 23.8203 126.968C24.388 127.635 24.6719 128.528 24.6719 129.648V129.827ZM19.6484 128.976H23.2656C23.2292 128.408 23.0599 127.971 22.7578 127.663C22.4557 127.356 22.0495 127.202 21.5391 127.202C21.0286 127.202 20.6094 127.356 20.2812 127.663C19.9583 127.971 19.7474 128.408 19.6484 128.976ZM26.25 122.382H27.6719V133.296H26.25V122.382ZM30.4688 123.085C30.7031 123.085 30.9036 123.166 31.0703 123.327C31.237 123.489 31.3203 123.687 31.3203 123.921C31.3203 124.15 31.237 124.348 31.0703 124.515C30.9036 124.682 30.7031 124.765 30.4688 124.765C30.25 124.765 30.0573 124.682 29.8906 124.515C29.724 124.343 29.6406 124.145 29.6406 123.921C29.6406 123.702 29.724 123.51 29.8906 123.343C30.0573 123.171 30.25 123.085 30.4688 123.085ZM29.7656 126.109H31.1875V133.296H29.7656V126.109ZM37.7656 128.976V132.03C37.7656 132.275 37.849 132.398 38.0156 132.398C38.1875 132.398 38.4557 132.27 38.8203 132.015V132.882C38.4974 133.09 38.237 133.231 38.0391 133.304C37.8464 133.382 37.6432 133.421 37.4297 133.421C36.8203 133.421 36.4609 133.182 36.3516 132.702C35.7474 133.171 35.1042 133.405 34.4219 133.405C33.9219 133.405 33.5052 133.241 33.1719 132.913C32.8385 132.58 32.6719 132.163 32.6719 131.663C32.6719 131.21 32.8333 130.807 33.1562 130.452C33.4844 130.093 33.9479 129.809 34.5469 129.601L36.3672 128.976V128.593C36.3672 127.728 35.9349 127.296 35.0703 127.296C34.2943 127.296 33.5391 127.697 32.8047 128.499V126.945C33.3568 126.294 34.151 125.968 35.1875 125.968C35.9635 125.968 36.5859 126.171 37.0547 126.577C37.2109 126.708 37.3516 126.882 37.4766 127.101C37.6016 127.314 37.6797 127.53 37.7109 127.749C37.7474 127.963 37.7656 128.372 37.7656 128.976ZM36.3672 131.874V129.741L35.4141 130.109C34.9297 130.301 34.5859 130.497 34.3828 130.695C34.1849 130.887 34.0859 131.129 34.0859 131.421C34.0859 131.718 34.1797 131.96 34.3672 132.148C34.5599 132.335 34.8073 132.429 35.1094 132.429C35.5625 132.429 35.9818 132.244 36.3672 131.874ZM40.0156 122.382H41.4375V126.624C42.0521 126.176 42.7083 125.952 43.4062 125.952C44.3177 125.952 45.0625 126.296 45.6406 126.984C46.2188 127.671 46.5078 128.554 46.5078 129.632C46.5078 130.788 46.1615 131.71 45.4688 132.398C44.7812 133.08 43.8594 133.421 42.7031 133.421C42.2396 133.421 41.75 133.372 41.2344 133.273C40.724 133.174 40.3177 133.049 40.0156 132.898V122.382ZM41.4375 127.984V131.874C41.9219 132.02 42.4193 132.093 42.9297 132.093C43.5599 132.093 44.0729 131.869 44.4688 131.421C44.8698 130.973 45.0703 130.398 45.0703 129.695C45.0703 128.981 44.8828 128.4 44.5078 127.952C44.138 127.504 43.6536 127.28 43.0547 127.28C42.5234 127.28 41.9844 127.515 41.4375 127.984ZM48.1094 122.382H49.5312V133.296H48.1094V122.382ZM57.7188 129.827H52.6641C52.7005 130.515 52.9297 131.062 53.3516 131.468C53.7786 131.874 54.3281 132.077 55 132.077C55.9375 132.077 56.8021 131.786 57.5938 131.202V132.593C57.1562 132.885 56.7214 133.093 56.2891 133.218C55.862 133.343 55.3594 133.405 54.7812 133.405C53.9896 133.405 53.349 133.241 52.8594 132.913C52.3698 132.585 51.9766 132.145 51.6797 131.593C51.388 131.036 51.2422 130.392 51.2422 129.663C51.2422 128.57 51.5521 127.682 52.1719 126.999C52.7917 126.312 53.5964 125.968 54.5859 125.968C55.5391 125.968 56.2995 126.301 56.8672 126.968C57.4349 127.635 57.7188 128.528 57.7188 129.648V129.827ZM52.6953 128.976H56.3125C56.276 128.408 56.1068 127.971 55.8047 127.663C55.5026 127.356 55.0964 127.202 54.5859 127.202C54.0755 127.202 53.6562 127.356 53.3281 127.663C53.0052 127.971 52.7943 128.408 52.6953 128.976ZM68.2344 128.976V132.03C68.2344 132.275 68.3177 132.398 68.4844 132.398C68.6562 132.398 68.9245 132.27 69.2891 132.015V132.882C68.9661 133.09 68.7057 133.231 68.5078 133.304C68.3151 133.382 68.112 133.421 67.8984 133.421C67.2891 133.421 66.9297 133.182 66.8203 132.702C66.2161 133.171 65.5729 133.405 64.8906 133.405C64.3906 133.405 63.974 133.241 63.6406 132.913C63.3073 132.58 63.1406 132.163 63.1406 131.663C63.1406 131.21 63.3021 130.807 63.625 130.452C63.9531 130.093 64.4167 129.809 65.0156 129.601L66.8359 128.976V128.593C66.8359 127.728 66.4036 127.296 65.5391 127.296C64.763 127.296 64.0078 127.697 63.2734 128.499V126.945C63.8255 126.294 64.6198 125.968 65.6562 125.968C66.4323 125.968 67.0547 126.171 67.5234 126.577C67.6797 126.708 67.8203 126.882 67.9453 127.101C68.0703 127.314 68.1484 127.53 68.1797 127.749C68.2161 127.963 68.2344 128.372 68.2344 128.976ZM66.8359 131.874V129.741L65.8828 130.109C65.3984 130.301 65.0547 130.497 64.8516 130.695C64.6536 130.887 64.5547 131.129 64.5547 131.421C64.5547 131.718 64.6484 131.96 64.8359 132.148C65.0286 132.335 65.276 132.429 65.5781 132.429C66.0312 132.429 66.4505 132.244 66.8359 131.874ZM71.9688 126.109V127.023C72.6042 126.32 73.3255 125.968 74.1328 125.968C74.5807 125.968 74.9974 126.085 75.3828 126.32C75.7682 126.549 76.0599 126.866 76.2578 127.273C76.4609 127.674 76.5625 128.312 76.5625 129.187V133.296H75.1406V129.202C75.1406 128.468 75.0286 127.945 74.8047 127.632C74.5807 127.314 74.2057 127.155 73.6797 127.155C73.0078 127.155 72.4375 127.491 71.9688 128.163V133.296H70.5156V126.109H71.9688ZM83.3438 122.382H84.7734V133.296H81.7344C80.6719 133.296 79.8229 132.96 79.1875 132.288C78.5573 131.616 78.2422 130.715 78.2422 129.585C78.2422 128.528 78.5729 127.658 79.2344 126.976C79.901 126.294 80.75 125.952 81.7812 125.952C82.2604 125.952 82.7812 126.054 83.3438 126.257V122.382ZM83.3438 132.077V127.523C82.901 127.299 82.4531 127.187 82 127.187C81.2917 127.187 80.7266 127.419 80.3047 127.882C79.888 128.346 79.6797 128.971 79.6797 129.757C79.6797 130.497 79.862 131.067 80.2266 131.468C80.4453 131.708 80.6771 131.869 80.9219 131.952C81.1667 132.036 81.6068 132.077 82.2422 132.077H83.3438ZM90.1484 127.249L92.8203 124.624V126.109H95.0938V127.39H92.8203V130.913C92.8203 131.736 93.1615 132.148 93.8438 132.148C94.3542 132.148 94.8932 131.976 95.4609 131.632V132.96C94.9141 133.267 94.3177 133.421 93.6719 133.421C93.0208 133.421 92.4792 133.231 92.0469 132.851C91.9115 132.736 91.7995 132.609 91.7109 132.468C91.6224 132.322 91.5469 132.135 91.4844 131.905C91.4271 131.671 91.3984 131.228 91.3984 130.577V127.39H90.1484V127.249ZM98.0078 126.109V127.757L98.0859 127.632C98.7734 126.523 99.4609 125.968 100.148 125.968C100.685 125.968 101.245 126.239 101.828 126.78L101.078 128.03C100.583 127.562 100.125 127.327 99.7031 127.327C99.2448 127.327 98.8464 127.546 98.5078 127.984C98.1745 128.421 98.0078 128.939 98.0078 129.538V133.296H96.5781V126.109H98.0078ZM107.406 133.296V132.382C107.104 132.71 106.758 132.965 106.367 133.148C105.982 133.33 105.596 133.421 105.211 133.421C104.758 133.421 104.339 133.309 103.953 133.085C103.573 132.856 103.284 132.549 103.086 132.163C102.893 131.773 102.797 131.127 102.797 130.226V126.109H104.219V130.21C104.219 130.965 104.326 131.494 104.539 131.796C104.758 132.093 105.138 132.241 105.68 132.241C106.357 132.241 106.932 131.911 107.406 131.249V126.109H108.828V133.296H107.406ZM109.82 127.249L112.492 124.624V126.109H114.766V127.39H112.492V130.913C112.492 131.736 112.833 132.148 113.516 132.148C114.026 132.148 114.565 131.976 115.133 131.632V132.96C114.586 133.267 113.99 133.421 113.344 133.421C112.693 133.421 112.151 133.231 111.719 132.851C111.583 132.736 111.471 132.609 111.383 132.468C111.294 132.322 111.219 132.135 111.156 131.905C111.099 131.671 111.07 131.228 111.07 130.577V127.39H109.82V127.249ZM125.133 126.109H126.656L123.484 133.421H123.039L120.906 128.413L118.812 133.421H118.352L115.148 126.109H116.672L118.555 130.468L120.383 126.109H121.438L123.258 130.468L125.133 126.109ZM130.781 126.093C131.875 126.093 132.784 126.447 133.508 127.155C134.232 127.859 134.594 128.744 134.594 129.812C134.594 130.848 134.227 131.71 133.492 132.398C132.758 133.08 131.833 133.421 130.719 133.421C129.641 133.421 128.74 133.075 128.016 132.382C127.292 131.684 126.93 130.814 126.93 129.773C126.93 128.721 127.294 127.846 128.023 127.148C128.758 126.445 129.677 126.093 130.781 126.093ZM130.703 127.374C130.021 127.374 129.461 127.598 129.023 128.046C128.586 128.494 128.367 129.064 128.367 129.757C128.367 130.445 128.591 131.007 129.039 131.445C129.487 131.877 130.062 132.093 130.766 132.093C131.464 132.093 132.034 131.874 132.477 131.437C132.924 130.994 133.148 130.429 133.148 129.741C133.148 129.059 132.917 128.494 132.453 128.046C131.99 127.598 131.406 127.374 130.703 127.374ZM137.695 126.109V127.757L137.773 127.632C138.461 126.523 139.148 125.968 139.836 125.968C140.372 125.968 140.932 126.239 141.516 126.78L140.766 128.03C140.271 127.562 139.812 127.327 139.391 127.327C138.932 127.327 138.534 127.546 138.195 127.984C137.862 128.421 137.695 128.939 137.695 129.538V133.296H136.266V126.109H137.695ZM141.836 127.249L144.508 124.624V126.109H146.781V127.39H144.508V130.913C144.508 131.736 144.849 132.148 145.531 132.148C146.042 132.148 146.581 131.976 147.148 131.632V132.96C146.602 133.267 146.005 133.421 145.359 133.421C144.708 133.421 144.167 133.231 143.734 132.851C143.599 132.736 143.487 132.609 143.398 132.468C143.31 132.322 143.234 132.135 143.172 131.905C143.115 131.671 143.086 131.228 143.086 130.577V127.39H141.836V127.249ZM148.141 122.382H149.562V127.054C150.156 126.33 150.893 125.968 151.773 125.968C152.253 125.968 152.682 126.088 153.062 126.327C153.443 126.567 153.724 126.898 153.906 127.32C154.094 127.741 154.188 128.369 154.188 129.202V133.296H152.766V128.851C152.766 128.325 152.635 127.903 152.375 127.585C152.12 127.262 151.781 127.101 151.359 127.101C151.047 127.101 150.753 127.182 150.477 127.343C150.201 127.504 149.896 127.773 149.562 128.148V133.296H148.141V122.382ZM160.008 126.109H161.609L156.523 136.96H154.938L157.383 131.757L154.602 126.109H156.219L158.156 130.163L160.008 126.109ZM173.203 129.827H168.148C168.185 130.515 168.414 131.062 168.836 131.468C169.263 131.874 169.812 132.077 170.484 132.077C171.422 132.077 172.286 131.786 173.078 131.202V132.593C172.641 132.885 172.206 133.093 171.773 133.218C171.346 133.343 170.844 133.405 170.266 133.405C169.474 133.405 168.833 133.241 168.344 132.913C167.854 132.585 167.461 132.145 167.164 131.593C166.872 131.036 166.727 130.392 166.727 129.663C166.727 128.57 167.036 127.682 167.656 126.999C168.276 126.312 169.081 125.968 170.07 125.968C171.023 125.968 171.784 126.301 172.352 126.968C172.919 127.635 173.203 128.528 173.203 129.648V129.827ZM168.18 128.976H171.797C171.76 128.408 171.591 127.971 171.289 127.663C170.987 127.356 170.581 127.202 170.07 127.202C169.56 127.202 169.141 127.356 168.812 127.663C168.49 127.971 168.279 128.408 168.18 128.976ZM179.547 122.382H180.977V133.296H177.938C176.875 133.296 176.026 132.96 175.391 132.288C174.76 131.616 174.445 130.715 174.445 129.585C174.445 128.528 174.776 127.658 175.438 126.976C176.104 126.294 176.953 125.952 177.984 125.952C178.464 125.952 178.984 126.054 179.547 126.257V122.382ZM179.547 132.077V127.523C179.104 127.299 178.656 127.187 178.203 127.187C177.495 127.187 176.93 127.419 176.508 127.882C176.091 128.346 175.883 128.971 175.883 129.757C175.883 130.497 176.065 131.067 176.43 131.468C176.648 131.708 176.88 131.869 177.125 131.952C177.37 132.036 177.81 132.077 178.445 132.077H179.547ZM187.484 133.296V132.382C187.182 132.71 186.836 132.965 186.445 133.148C186.06 133.33 185.674 133.421 185.289 133.421C184.836 133.421 184.417 133.309 184.031 133.085C183.651 132.856 183.362 132.549 183.164 132.163C182.971 131.773 182.875 131.127 182.875 130.226V126.109H184.297V130.21C184.297 130.965 184.404 131.494 184.617 131.796C184.836 132.093 185.216 132.241 185.758 132.241C186.435 132.241 187.01 131.911 187.484 131.249V126.109H188.906V133.296H187.484ZM196.297 131.616V133.023C195.583 133.288 194.885 133.421 194.203 133.421C193.078 133.421 192.18 133.088 191.508 132.421C190.841 131.754 190.508 130.861 190.508 129.741C190.508 128.611 190.833 127.7 191.484 127.007C192.135 126.314 192.992 125.968 194.055 125.968C194.424 125.968 194.755 126.004 195.047 126.077C195.344 126.145 195.708 126.275 196.141 126.468V127.984C195.422 127.525 194.755 127.296 194.141 127.296C193.5 127.296 192.974 127.523 192.562 127.976C192.151 128.424 191.945 128.997 191.945 129.695C191.945 130.429 192.167 131.012 192.609 131.445C193.057 131.877 193.659 132.093 194.414 132.093C194.961 132.093 195.589 131.934 196.297 131.616ZM202.438 128.976V132.03C202.438 132.275 202.521 132.398 202.688 132.398C202.859 132.398 203.128 132.27 203.492 132.015V132.882C203.169 133.09 202.909 133.231 202.711 133.304C202.518 133.382 202.315 133.421 202.102 133.421C201.492 133.421 201.133 133.182 201.023 132.702C200.419 133.171 199.776 133.405 199.094 133.405C198.594 133.405 198.177 133.241 197.844 132.913C197.51 132.58 197.344 132.163 197.344 131.663C197.344 131.21 197.505 130.807 197.828 130.452C198.156 130.093 198.62 129.809 199.219 129.601L201.039 128.976V128.593C201.039 127.728 200.607 127.296 199.742 127.296C198.966 127.296 198.211 127.697 197.477 128.499V126.945C198.029 126.294 198.823 125.968 199.859 125.968C200.635 125.968 201.258 126.171 201.727 126.577C201.883 126.708 202.023 126.882 202.148 127.101C202.273 127.314 202.352 127.53 202.383 127.749C202.419 127.963 202.438 128.372 202.438 128.976ZM201.039 131.874V129.741L200.086 130.109C199.602 130.301 199.258 130.497 199.055 130.695C198.857 130.887 198.758 131.129 198.758 131.421C198.758 131.718 198.852 131.96 199.039 132.148C199.232 132.335 199.479 132.429 199.781 132.429C200.234 132.429 200.654 132.244 201.039 131.874ZM203.742 127.249L206.414 124.624V126.109H208.688V127.39H206.414V130.913C206.414 131.736 206.755 132.148 207.438 132.148C207.948 132.148 208.487 131.976 209.055 131.632V132.96C208.508 133.267 207.911 133.421 207.266 133.421C206.615 133.421 206.073 133.231 205.641 132.851C205.505 132.736 205.393 132.609 205.305 132.468C205.216 132.322 205.141 132.135 205.078 131.905C205.021 131.671 204.992 131.228 204.992 130.577V127.39H203.742V127.249ZM210.812 123.085C211.047 123.085 211.247 123.166 211.414 123.327C211.581 123.489 211.664 123.687 211.664 123.921C211.664 124.15 211.581 124.348 211.414 124.515C211.247 124.682 211.047 124.765 210.812 124.765C210.594 124.765 210.401 124.682 210.234 124.515C210.068 124.343 209.984 124.145 209.984 123.921C209.984 123.702 210.068 123.51 210.234 123.343C210.401 123.171 210.594 123.085 210.812 123.085ZM210.109 126.109H211.531V133.296H210.109V126.109ZM217.031 126.093C218.125 126.093 219.034 126.447 219.758 127.155C220.482 127.859 220.844 128.744 220.844 129.812C220.844 130.848 220.477 131.71 219.742 132.398C219.008 133.08 218.083 133.421 216.969 133.421C215.891 133.421 214.99 133.075 214.266 132.382C213.542 131.684 213.18 130.814 213.18 129.773C213.18 128.721 213.544 127.846 214.273 127.148C215.008 126.445 215.927 126.093 217.031 126.093ZM216.953 127.374C216.271 127.374 215.711 127.598 215.273 128.046C214.836 128.494 214.617 129.064 214.617 129.757C214.617 130.445 214.841 131.007 215.289 131.445C215.737 131.877 216.312 132.093 217.016 132.093C217.714 132.093 218.284 131.874 218.727 131.437C219.174 130.994 219.398 130.429 219.398 129.741C219.398 129.059 219.167 128.494 218.703 128.046C218.24 127.598 217.656 127.374 216.953 127.374ZM223.844 126.109V127.023C224.479 126.32 225.201 125.968 226.008 125.968C226.456 125.968 226.872 126.085 227.258 126.32C227.643 126.549 227.935 126.866 228.133 127.273C228.336 127.674 228.438 128.312 228.438 129.187V133.296H227.016V129.202C227.016 128.468 226.904 127.945 226.68 127.632C226.456 127.314 226.081 127.155 225.555 127.155C224.883 127.155 224.312 127.491 223.844 128.163V133.296H222.391V126.109H223.844ZM234.938 128.976V132.03C234.938 132.275 235.021 132.398 235.188 132.398C235.359 132.398 235.628 132.27 235.992 132.015V132.882C235.669 133.09 235.409 133.231 235.211 133.304C235.018 133.382 234.815 133.421 234.602 133.421C233.992 133.421 233.633 133.182 233.523 132.702C232.919 133.171 232.276 133.405 231.594 133.405C231.094 133.405 230.677 133.241 230.344 132.913C230.01 132.58 229.844 132.163 229.844 131.663C229.844 131.21 230.005 130.807 230.328 130.452C230.656 130.093 231.12 129.809 231.719 129.601L233.539 128.976V128.593C233.539 127.728 233.107 127.296 232.242 127.296C231.466 127.296 230.711 127.697 229.977 128.499V126.945C230.529 126.294 231.323 125.968 232.359 125.968C233.135 125.968 233.758 126.171 234.227 126.577C234.383 126.708 234.523 126.882 234.648 127.101C234.773 127.314 234.852 127.53 234.883 127.749C234.919 127.963 234.938 128.372 234.938 128.976ZM233.539 131.874V129.741L232.586 130.109C232.102 130.301 231.758 130.497 231.555 130.695C231.357 130.887 231.258 131.129 231.258 131.421C231.258 131.718 231.352 131.96 231.539 132.148C231.732 132.335 231.979 132.429 232.281 132.429C232.734 132.429 233.154 132.244 233.539 131.874ZM237.281 122.382H238.703V133.296H237.281V122.382ZM244.211 127.249L246.883 124.624V126.109H249.156V127.39H246.883V130.913C246.883 131.736 247.224 132.148 247.906 132.148C248.417 132.148 248.956 131.976 249.523 131.632V132.96C248.977 133.267 248.38 133.421 247.734 133.421C247.083 133.421 246.542 133.231 246.109 132.851C245.974 132.736 245.862 132.609 245.773 132.468C245.685 132.322 245.609 132.135 245.547 131.905C245.49 131.671 245.461 131.228 245.461 130.577V127.39H244.211V127.249ZM253.984 126.093C255.078 126.093 255.987 126.447 256.711 127.155C257.435 127.859 257.797 128.744 257.797 129.812C257.797 130.848 257.43 131.71 256.695 132.398C255.961 133.08 255.036 133.421 253.922 133.421C252.844 133.421 251.943 133.075 251.219 132.382C250.495 131.684 250.133 130.814 250.133 129.773C250.133 128.721 250.497 127.846 251.227 127.148C251.961 126.445 252.88 126.093 253.984 126.093ZM253.906 127.374C253.224 127.374 252.664 127.598 252.227 128.046C251.789 128.494 251.57 129.064 251.57 129.757C251.57 130.445 251.794 131.007 252.242 131.445C252.69 131.877 253.266 132.093 253.969 132.093C254.667 132.093 255.237 131.874 255.68 131.437C256.128 130.994 256.352 130.429 256.352 129.741C256.352 129.059 256.12 128.494 255.656 128.046C255.193 127.598 254.609 127.374 253.906 127.374ZM263.953 133.296V132.382C263.651 132.71 263.305 132.965 262.914 133.148C262.529 133.33 262.143 133.421 261.758 133.421C261.305 133.421 260.885 133.309 260.5 133.085C260.12 132.856 259.831 132.549 259.633 132.163C259.44 131.773 259.344 131.127 259.344 130.226V126.109H260.766V130.21C260.766 130.965 260.872 131.494 261.086 131.796C261.305 132.093 261.685 132.241 262.227 132.241C262.904 132.241 263.479 131.911 263.953 131.249V126.109H265.375V133.296H263.953ZM268.898 126.109V127.757L268.977 127.632C269.664 126.523 270.352 125.968 271.039 125.968C271.576 125.968 272.135 126.239 272.719 126.78L271.969 128.03C271.474 127.562 271.016 127.327 270.594 127.327C270.135 127.327 269.737 127.546 269.398 127.984C269.065 128.421 268.898 128.939 268.898 129.538V133.296H267.469V126.109H268.898ZM273.367 132.78V131.249C273.768 131.53 274.177 131.76 274.594 131.937C275.016 132.109 275.37 132.195 275.656 132.195C275.953 132.195 276.208 132.122 276.422 131.976C276.635 131.83 276.742 131.655 276.742 131.452C276.742 131.244 276.672 131.072 276.531 130.937C276.396 130.796 276.099 130.596 275.641 130.335C274.724 129.825 274.122 129.39 273.836 129.03C273.555 128.666 273.414 128.27 273.414 127.843C273.414 127.291 273.628 126.84 274.055 126.491C274.487 126.142 275.042 125.968 275.719 125.968C276.422 125.968 277.143 126.166 277.883 126.562V127.968C277.039 127.458 276.349 127.202 275.812 127.202C275.536 127.202 275.312 127.262 275.141 127.382C274.974 127.497 274.891 127.65 274.891 127.843C274.891 128.01 274.966 128.169 275.117 128.32C275.273 128.471 275.544 128.653 275.93 128.866L276.438 129.155C277.635 129.833 278.234 130.583 278.234 131.405C278.234 131.994 278.003 132.478 277.539 132.859C277.081 133.234 276.49 133.421 275.766 133.421C275.339 133.421 274.958 133.377 274.625 133.288C274.292 133.195 273.872 133.025 273.367 132.78ZM283.32 127.249L285.992 124.624V126.109H288.266V127.39H285.992V130.913C285.992 131.736 286.333 132.148 287.016 132.148C287.526 132.148 288.065 131.976 288.633 131.632V132.96C288.086 133.267 287.49 133.421 286.844 133.421C286.193 133.421 285.651 133.231 285.219 132.851C285.083 132.736 284.971 132.609 284.883 132.468C284.794 132.322 284.719 132.135 284.656 131.905C284.599 131.671 284.57 131.228 284.57 130.577V127.39H283.32V127.249ZM293.094 126.093C294.188 126.093 295.096 126.447 295.82 127.155C296.544 127.859 296.906 128.744 296.906 129.812C296.906 130.848 296.539 131.71 295.805 132.398C295.07 133.08 294.146 133.421 293.031 133.421C291.953 133.421 291.052 133.075 290.328 132.382C289.604 131.684 289.242 130.814 289.242 129.773C289.242 128.721 289.607 127.846 290.336 127.148C291.07 126.445 291.99 126.093 293.094 126.093ZM293.016 127.374C292.333 127.374 291.773 127.598 291.336 128.046C290.898 128.494 290.68 129.064 290.68 129.757C290.68 130.445 290.904 131.007 291.352 131.445C291.799 131.877 292.375 132.093 293.078 132.093C293.776 132.093 294.346 131.874 294.789 131.437C295.237 130.994 295.461 130.429 295.461 129.741C295.461 129.059 295.229 128.494 294.766 128.046C294.302 127.598 293.719 127.374 293.016 127.374ZM61.5234 146.382H62.9531V157.296H59.9141C58.8516 157.296 58.0026 156.96 57.3672 156.288C56.737 155.616 56.4219 154.715 56.4219 153.585C56.4219 152.528 56.7526 151.658 57.4141 150.976C58.0807 150.294 58.9297 149.952 59.9609 149.952C60.4401 149.952 60.9609 150.054 61.5234 150.257V146.382ZM61.5234 156.077V151.523C61.0807 151.299 60.6328 151.187 60.1797 151.187C59.4714 151.187 58.9062 151.419 58.4844 151.882C58.0677 152.346 57.8594 152.971 57.8594 153.757C57.8594 154.497 58.0417 155.067 58.4062 155.468C58.625 155.708 58.8568 155.869 59.1016 155.952C59.3464 156.036 59.7865 156.077 60.4219 156.077H61.5234ZM71.0078 153.827H65.9531C65.9896 154.515 66.2188 155.062 66.6406 155.468C67.0677 155.874 67.6172 156.077 68.2891 156.077C69.2266 156.077 70.0911 155.786 70.8828 155.202V156.593C70.4453 156.885 70.0104 157.093 69.5781 157.218C69.151 157.343 68.6484 157.405 68.0703 157.405C67.2786 157.405 66.638 157.241 66.1484 156.913C65.6589 156.585 65.2656 156.145 64.9688 155.593C64.6771 155.036 64.5312 154.392 64.5312 153.663C64.5312 152.57 64.8411 151.682 65.4609 150.999C66.0807 150.312 66.8854 149.968 67.875 149.968C68.8281 149.968 69.5885 150.301 70.1562 150.968C70.724 151.635 71.0078 152.528 71.0078 153.648V153.827ZM65.9844 152.976H69.6016C69.5651 152.408 69.3958 151.971 69.0938 151.663C68.7917 151.356 68.3854 151.202 67.875 151.202C67.3646 151.202 66.9453 151.356 66.6172 151.663C66.2943 151.971 66.0833 152.408 65.9844 152.976ZM72.2031 156.78V155.249C72.6042 155.53 73.013 155.76 73.4297 155.937C73.8516 156.109 74.2057 156.195 74.4922 156.195C74.7891 156.195 75.0443 156.122 75.2578 155.976C75.4714 155.83 75.5781 155.655 75.5781 155.452C75.5781 155.244 75.5078 155.072 75.3672 154.937C75.2318 154.796 74.9349 154.596 74.4766 154.335C73.5599 153.825 72.9583 153.39 72.6719 153.03C72.3906 152.666 72.25 152.27 72.25 151.843C72.25 151.291 72.4635 150.84 72.8906 150.491C73.3229 150.142 73.8776 149.968 74.5547 149.968C75.2578 149.968 75.9792 150.166 76.7188 150.562V151.968C75.875 151.458 75.1849 151.202 74.6484 151.202C74.3724 151.202 74.1484 151.262 73.9766 151.382C73.8099 151.497 73.7266 151.65 73.7266 151.843C73.7266 152.01 73.8021 152.169 73.9531 152.32C74.1094 152.471 74.3802 152.653 74.7656 152.866L75.2734 153.155C76.4714 153.833 77.0703 154.583 77.0703 155.405C77.0703 155.994 76.8385 156.478 76.375 156.859C75.9167 157.234 75.3255 157.421 74.6016 157.421C74.1745 157.421 73.7943 157.377 73.4609 157.288C73.1276 157.195 72.7083 157.025 72.2031 156.78ZM77.7031 151.249L80.375 148.624V150.109H82.6484V151.39H80.375V154.913C80.375 155.736 80.7161 156.148 81.3984 156.148C81.9089 156.148 82.4479 155.976 83.0156 155.632V156.96C82.4688 157.267 81.8724 157.421 81.2266 157.421C80.5755 157.421 80.0339 157.231 79.6016 156.851C79.4661 156.736 79.3542 156.609 79.2656 156.468C79.1771 156.322 79.1016 156.135 79.0391 155.905C78.9818 155.671 78.9531 155.228 78.9531 154.577V151.39H77.7031V151.249ZM84.7734 147.085C85.0078 147.085 85.2083 147.166 85.375 147.327C85.5417 147.489 85.625 147.687 85.625 147.921C85.625 148.15 85.5417 148.348 85.375 148.515C85.2083 148.682 85.0078 148.765 84.7734 148.765C84.5547 148.765 84.362 148.682 84.1953 148.515C84.0286 148.343 83.9453 148.145 83.9453 147.921C83.9453 147.702 84.0286 147.51 84.1953 147.343C84.362 147.171 84.5547 147.085 84.7734 147.085ZM84.0703 150.109H85.4922V157.296H84.0703V150.109ZM88.9766 150.109V151.023C89.612 150.32 90.3333 149.968 91.1406 149.968C91.5885 149.968 92.0052 150.085 92.3906 150.32C92.776 150.549 93.0677 150.866 93.2656 151.273C93.4688 151.674 93.5703 152.312 93.5703 153.187V157.296H92.1484V153.202C92.1484 152.468 92.0365 151.945 91.8125 151.632C91.5885 151.314 91.2135 151.155 90.6875 151.155C90.0156 151.155 89.4453 151.491 88.9766 152.163V157.296H87.5234V150.109H88.9766ZM100.07 152.976V156.03C100.07 156.275 100.154 156.398 100.32 156.398C100.492 156.398 100.76 156.27 101.125 156.015V156.882C100.802 157.09 100.542 157.231 100.344 157.304C100.151 157.382 99.9479 157.421 99.7344 157.421C99.125 157.421 98.7656 157.182 98.6562 156.702C98.0521 157.171 97.4089 157.405 96.7266 157.405C96.2266 157.405 95.8099 157.241 95.4766 156.913C95.1432 156.58 94.9766 156.163 94.9766 155.663C94.9766 155.21 95.138 154.807 95.4609 154.452C95.7891 154.093 96.2526 153.809 96.8516 153.601L98.6719 152.976V152.593C98.6719 151.728 98.2396 151.296 97.375 151.296C96.599 151.296 95.8438 151.697 95.1094 152.499V150.945C95.6615 150.294 96.4557 149.968 97.4922 149.968C98.2682 149.968 98.8906 150.171 99.3594 150.577C99.5156 150.708 99.6562 150.882 99.7812 151.101C99.9062 151.314 99.9844 151.53 100.016 151.749C100.052 151.963 100.07 152.372 100.07 152.976ZM98.6719 155.874V153.741L97.7188 154.109C97.2344 154.301 96.8906 154.497 96.6875 154.695C96.4896 154.887 96.3906 155.129 96.3906 155.421C96.3906 155.718 96.4844 155.96 96.6719 156.148C96.8646 156.335 97.112 156.429 97.4141 156.429C97.8672 156.429 98.2865 156.244 98.6719 155.874ZM101.375 151.249L104.047 148.624V150.109H106.32V151.39H104.047V154.913C104.047 155.736 104.388 156.148 105.07 156.148C105.581 156.148 106.12 155.976 106.688 155.632V156.96C106.141 157.267 105.544 157.421 104.898 157.421C104.247 157.421 103.706 157.231 103.273 156.851C103.138 156.736 103.026 156.609 102.938 156.468C102.849 156.322 102.773 156.135 102.711 155.905C102.654 155.671 102.625 155.228 102.625 154.577V151.39H101.375V151.249ZM108.445 147.085C108.68 147.085 108.88 147.166 109.047 147.327C109.214 147.489 109.297 147.687 109.297 147.921C109.297 148.15 109.214 148.348 109.047 148.515C108.88 148.682 108.68 148.765 108.445 148.765C108.227 148.765 108.034 148.682 107.867 148.515C107.701 148.343 107.617 148.145 107.617 147.921C107.617 147.702 107.701 147.51 107.867 147.343C108.034 147.171 108.227 147.085 108.445 147.085ZM107.742 150.109H109.164V157.296H107.742V150.109ZM114.664 150.093C115.758 150.093 116.667 150.447 117.391 151.155C118.115 151.859 118.477 152.744 118.477 153.812C118.477 154.848 118.109 155.71 117.375 156.398C116.641 157.08 115.716 157.421 114.602 157.421C113.523 157.421 112.622 157.075 111.898 156.382C111.174 155.684 110.812 154.814 110.812 153.773C110.812 152.721 111.177 151.846 111.906 151.148C112.641 150.445 113.56 150.093 114.664 150.093ZM114.586 151.374C113.904 151.374 113.344 151.598 112.906 152.046C112.469 152.494 112.25 153.064 112.25 153.757C112.25 154.445 112.474 155.007 112.922 155.445C113.37 155.877 113.945 156.093 114.648 156.093C115.346 156.093 115.917 155.874 116.359 155.437C116.807 154.994 117.031 154.429 117.031 153.741C117.031 153.059 116.799 152.494 116.336 152.046C115.872 151.598 115.289 151.374 114.586 151.374ZM121.477 150.109V151.023C122.112 150.32 122.833 149.968 123.641 149.968C124.089 149.968 124.505 150.085 124.891 150.32C125.276 150.549 125.568 150.866 125.766 151.273C125.969 151.674 126.07 152.312 126.07 153.187V157.296H124.648V153.202C124.648 152.468 124.536 151.945 124.312 151.632C124.089 151.314 123.714 151.155 123.188 151.155C122.516 151.155 121.945 151.491 121.477 152.163V157.296H120.023V150.109H121.477ZM127.703 156.78V155.249C128.104 155.53 128.513 155.76 128.93 155.937C129.352 156.109 129.706 156.195 129.992 156.195C130.289 156.195 130.544 156.122 130.758 155.976C130.971 155.83 131.078 155.655 131.078 155.452C131.078 155.244 131.008 155.072 130.867 154.937C130.732 154.796 130.435 154.596 129.977 154.335C129.06 153.825 128.458 153.39 128.172 153.03C127.891 152.666 127.75 152.27 127.75 151.843C127.75 151.291 127.964 150.84 128.391 150.491C128.823 150.142 129.378 149.968 130.055 149.968C130.758 149.968 131.479 150.166 132.219 150.562V151.968C131.375 151.458 130.685 151.202 130.148 151.202C129.872 151.202 129.648 151.262 129.477 151.382C129.31 151.497 129.227 151.65 129.227 151.843C129.227 152.01 129.302 152.169 129.453 152.32C129.609 152.471 129.88 152.653 130.266 152.866L130.773 153.155C131.971 153.833 132.57 154.583 132.57 155.405C132.57 155.994 132.339 156.478 131.875 156.859C131.417 157.234 130.826 157.421 130.102 157.421C129.674 157.421 129.294 157.377 128.961 157.288C128.628 157.195 128.208 157.025 127.703 156.78ZM143.18 152.976V156.03C143.18 156.275 143.263 156.398 143.43 156.398C143.602 156.398 143.87 156.27 144.234 156.015V156.882C143.911 157.09 143.651 157.231 143.453 157.304C143.26 157.382 143.057 157.421 142.844 157.421C142.234 157.421 141.875 157.182 141.766 156.702C141.161 157.171 140.518 157.405 139.836 157.405C139.336 157.405 138.919 157.241 138.586 156.913C138.253 156.58 138.086 156.163 138.086 155.663C138.086 155.21 138.247 154.807 138.57 154.452C138.898 154.093 139.362 153.809 139.961 153.601L141.781 152.976V152.593C141.781 151.728 141.349 151.296 140.484 151.296C139.708 151.296 138.953 151.697 138.219 152.499V150.945C138.771 150.294 139.565 149.968 140.602 149.968C141.378 149.968 142 150.171 142.469 150.577C142.625 150.708 142.766 150.882 142.891 151.101C143.016 151.314 143.094 151.53 143.125 151.749C143.161 151.963 143.18 152.372 143.18 152.976ZM141.781 155.874V153.741L140.828 154.109C140.344 154.301 140 154.497 139.797 154.695C139.599 154.887 139.5 155.129 139.5 155.421C139.5 155.718 139.594 155.96 139.781 156.148C139.974 156.335 140.221 156.429 140.523 156.429C140.977 156.429 141.396 156.244 141.781 155.874ZM145.523 146.382H146.945V157.296H145.523V146.382ZM149.039 146.382H150.461V157.296H149.039V146.382ZM160.414 150.093C161.508 150.093 162.417 150.447 163.141 151.155C163.865 151.859 164.227 152.744 164.227 153.812C164.227 154.848 163.859 155.71 163.125 156.398C162.391 157.08 161.466 157.421 160.352 157.421C159.273 157.421 158.372 157.075 157.648 156.382C156.924 155.684 156.562 154.814 156.562 153.773C156.562 152.721 156.927 151.846 157.656 151.148C158.391 150.445 159.31 150.093 160.414 150.093ZM160.336 151.374C159.654 151.374 159.094 151.598 158.656 152.046C158.219 152.494 158 153.064 158 153.757C158 154.445 158.224 155.007 158.672 155.445C159.12 155.877 159.695 156.093 160.398 156.093C161.096 156.093 161.667 155.874 162.109 155.437C162.557 154.994 162.781 154.429 162.781 153.741C162.781 153.059 162.549 152.494 162.086 152.046C161.622 151.598 161.039 151.374 160.336 151.374ZM170.047 150.109H171.586L168.414 157.421H167.938L164.688 150.109H166.242L168.18 154.53L170.047 150.109ZM178.461 153.827H173.406C173.443 154.515 173.672 155.062 174.094 155.468C174.521 155.874 175.07 156.077 175.742 156.077C176.68 156.077 177.544 155.786 178.336 155.202V156.593C177.898 156.885 177.464 157.093 177.031 157.218C176.604 157.343 176.102 157.405 175.523 157.405C174.732 157.405 174.091 157.241 173.602 156.913C173.112 156.585 172.719 156.145 172.422 155.593C172.13 155.036 171.984 154.392 171.984 153.663C171.984 152.57 172.294 151.682 172.914 150.999C173.534 150.312 174.339 149.968 175.328 149.968C176.281 149.968 177.042 150.301 177.609 150.968C178.177 151.635 178.461 152.528 178.461 153.648V153.827ZM173.438 152.976H177.055C177.018 152.408 176.849 151.971 176.547 151.663C176.245 151.356 175.839 151.202 175.328 151.202C174.818 151.202 174.398 151.356 174.07 151.663C173.747 151.971 173.536 152.408 173.438 152.976ZM181.531 150.109V151.757L181.609 151.632C182.297 150.523 182.984 149.968 183.672 149.968C184.208 149.968 184.768 150.239 185.352 150.78L184.602 152.03C184.107 151.562 183.648 151.327 183.227 151.327C182.768 151.327 182.37 151.546 182.031 151.984C181.698 152.421 181.531 152.939 181.531 153.538V157.296H180.102V150.109H181.531ZM189.797 151.249L192.469 148.624V150.109H194.742V151.39H192.469V154.913C192.469 155.736 192.81 156.148 193.492 156.148C194.003 156.148 194.542 155.976 195.109 155.632V156.96C194.562 157.267 193.966 157.421 193.32 157.421C192.669 157.421 192.128 157.231 191.695 156.851C191.56 156.736 191.448 156.609 191.359 156.468C191.271 156.322 191.195 156.135 191.133 155.905C191.076 155.671 191.047 155.228 191.047 154.577V151.39H189.797V151.249ZM196.102 146.382H197.523V151.054C198.117 150.33 198.854 149.968 199.734 149.968C200.214 149.968 200.643 150.088 201.023 150.327C201.404 150.567 201.685 150.898 201.867 151.32C202.055 151.741 202.148 152.369 202.148 153.202V157.296H200.727V152.851C200.727 152.325 200.596 151.903 200.336 151.585C200.081 151.262 199.742 151.101 199.32 151.101C199.008 151.101 198.714 151.182 198.438 151.343C198.161 151.504 197.857 151.773 197.523 152.148V157.296H196.102V146.382ZM210.258 153.827H205.203C205.24 154.515 205.469 155.062 205.891 155.468C206.318 155.874 206.867 156.077 207.539 156.077C208.477 156.077 209.341 155.786 210.133 155.202V156.593C209.695 156.885 209.26 157.093 208.828 157.218C208.401 157.343 207.898 157.405 207.32 157.405C206.529 157.405 205.888 157.241 205.398 156.913C204.909 156.585 204.516 156.145 204.219 155.593C203.927 155.036 203.781 154.392 203.781 153.663C203.781 152.57 204.091 151.682 204.711 150.999C205.331 150.312 206.135 149.968 207.125 149.968C208.078 149.968 208.839 150.301 209.406 150.968C209.974 151.635 210.258 152.528 210.258 153.648V153.827ZM205.234 152.976H208.852C208.815 152.408 208.646 151.971 208.344 151.663C208.042 151.356 207.635 151.202 207.125 151.202C206.615 151.202 206.195 151.356 205.867 151.663C205.544 151.971 205.333 152.408 205.234 152.976ZM225.234 150.109H226.758L223.586 157.421H223.141L221.008 152.413L218.914 157.421H218.453L215.25 150.109H216.773L218.656 154.468L220.484 150.109H221.539L223.359 154.468L225.234 150.109ZM230.883 150.093C231.977 150.093 232.885 150.447 233.609 151.155C234.333 151.859 234.695 152.744 234.695 153.812C234.695 154.848 234.328 155.71 233.594 156.398C232.859 157.08 231.935 157.421 230.82 157.421C229.742 157.421 228.841 157.075 228.117 156.382C227.393 155.684 227.031 154.814 227.031 153.773C227.031 152.721 227.396 151.846 228.125 151.148C228.859 150.445 229.779 150.093 230.883 150.093ZM230.805 151.374C230.122 151.374 229.562 151.598 229.125 152.046C228.688 152.494 228.469 153.064 228.469 153.757C228.469 154.445 228.693 155.007 229.141 155.445C229.589 155.877 230.164 156.093 230.867 156.093C231.565 156.093 232.135 155.874 232.578 155.437C233.026 154.994 233.25 154.429 233.25 153.741C233.25 153.059 233.018 152.494 232.555 152.046C232.091 151.598 231.508 151.374 230.805 151.374ZM237.797 150.109V151.757L237.875 151.632C238.562 150.523 239.25 149.968 239.938 149.968C240.474 149.968 241.034 150.239 241.617 150.78L240.867 152.03C240.372 151.562 239.914 151.327 239.492 151.327C239.034 151.327 238.635 151.546 238.297 151.984C237.964 152.421 237.797 152.939 237.797 153.538V157.296H236.367V150.109H237.797ZM242.648 146.382H244.07V157.296H242.648V146.382ZM250.93 146.382H252.359V157.296H249.32C248.258 157.296 247.409 156.96 246.773 156.288C246.143 155.616 245.828 154.715 245.828 153.585C245.828 152.528 246.159 151.658 246.82 150.976C247.487 150.294 248.336 149.952 249.367 149.952C249.846 149.952 250.367 150.054 250.93 150.257V146.382ZM250.93 156.077V151.523C250.487 151.299 250.039 151.187 249.586 151.187C248.878 151.187 248.312 151.419 247.891 151.882C247.474 152.346 247.266 152.971 247.266 153.757C247.266 154.497 247.448 155.067 247.812 155.468C248.031 155.708 248.263 155.869 248.508 155.952C248.753 156.036 249.193 156.077 249.828 156.077H250.93Z" fill="#7D848D"/>
</svg>
