<svg width="330" height="164" viewBox="0 0 330 164" fill="none" xmlns="http://www.w3.org/2000/svg">
<path d="M18.5303 11.6562H17.8418V17.3252H18.7646C20.0439 17.3252 21.0205 17.0811 21.6943 16.5928C22.3682 16.0947 22.7051 15.3818 22.7051 14.4541C22.7051 13.4873 22.373 12.7793 21.709 12.3301C21.0449 11.8809 19.9854 11.6562 18.5303 11.6562ZM12.7734 29V7.75977H18.2373C19.917 7.75977 21.25 7.88184 22.2363 8.12598C23.2227 8.37012 24.0967 8.78027 24.8584 9.35645C25.6494 9.93262 26.2598 10.6553 26.6895 11.5244C27.1289 12.3838 27.3486 13.2969 27.3486 14.2637C27.3486 16.4121 26.582 18.1162 25.0488 19.376C23.5254 20.6357 21.4551 21.2656 18.8379 21.2656C18.5645 21.2656 18.3594 21.2656 18.2227 21.2656C18.0859 21.2559 17.959 21.2461 17.8418 21.2363V29H12.7734ZM31.7725 21.1631L37.5 20.9873V20.7822C37.5 20.0889 37.2559 19.5225 36.7676 19.083C36.2793 18.6338 35.6641 18.4092 34.9219 18.4092C34.0918 18.4092 33.3984 18.6533 32.8418 19.1416C32.2852 19.6201 31.9287 20.2939 31.7725 21.1631ZM40.5322 24.2832L40.0195 28.3408C39.1211 28.7705 38.2373 29.0879 37.3682 29.293C36.499 29.498 35.6201 29.6006 34.7314 29.6006C32.5342 29.6006 30.7617 28.9707 29.4141 27.7109C28.0664 26.4414 27.3926 24.791 27.3926 22.7598C27.3926 20.6406 28.1299 18.8535 29.6045 17.3984C31.0791 15.9336 32.8711 15.2012 34.9805 15.2012C36.7871 15.2012 38.2666 15.7383 39.4189 16.8125C40.5811 17.877 41.1621 19.2588 41.1621 20.958C41.1621 21.2217 41.1426 21.6416 41.1035 22.2178L41.0889 22.3057L40.6787 22.9062L31.6699 23.1553C31.7383 24.0439 32.1094 24.7666 32.7832 25.3232C33.457 25.8701 34.3066 26.1436 35.332 26.1436C36.0547 26.1436 36.8555 25.9873 37.7344 25.6748C38.623 25.3623 39.5557 24.8984 40.5322 24.2832ZM47.6221 22.3936C47.6221 23.5166 47.8613 24.4248 48.3398 25.1182C48.8281 25.8018 49.4482 26.1436 50.2002 26.1436C50.9521 26.1436 51.5674 25.7969 52.0459 25.1035C52.5342 24.4102 52.7783 23.5068 52.7783 22.3936C52.7783 21.29 52.5342 20.3916 52.0459 19.6982C51.5674 18.9951 50.9521 18.6436 50.2002 18.6436C49.4482 18.6436 48.8281 18.9902 48.3398 19.6836C47.8613 20.377 47.6221 21.2803 47.6221 22.3936ZM42.9346 22.3936C42.9346 20.2939 43.6182 18.5654 44.9854 17.208C46.3623 15.8506 48.1006 15.1719 50.2002 15.1719C52.3096 15.1719 54.0527 15.8506 55.4297 17.208C56.8066 18.5654 57.4951 20.2939 57.4951 22.3936C57.4951 24.4932 56.8066 26.2266 55.4297 27.5938C54.0527 28.9512 52.3096 29.6299 50.2002 29.6299C48.1104 29.6299 46.377 28.9512 45 27.5938C43.623 26.2266 42.9346 24.4932 42.9346 22.3936ZM60.1904 35.3574V15.8018H64.7754C65.2344 15.626 65.6885 15.499 66.1377 15.4209C66.5869 15.333 67.0459 15.2891 67.5146 15.2891C69.4189 15.2891 70.9863 15.9482 72.2168 17.2666C73.457 18.585 74.0771 20.2842 74.0771 22.3643C74.0771 24.5225 73.4082 26.2705 72.0703 27.6084C70.7422 28.9365 69.0039 29.6006 66.8555 29.6006C66.5723 29.6006 66.2695 29.5811 65.9473 29.542C65.625 29.5127 65.2246 29.4639 64.7461 29.3955V34.5811L60.1904 35.3574ZM64.7754 25.9678C65.0977 26.0557 65.376 26.1191 65.6104 26.1582C65.8447 26.1973 66.0596 26.2168 66.2549 26.2168C67.1436 26.2168 67.8857 25.8506 68.4814 25.1182C69.0771 24.3857 69.375 23.458 69.375 22.335C69.375 21.29 69.1016 20.4258 68.5547 19.7422C68.0176 19.0586 67.3486 18.7168 66.5479 18.7168C66.3037 18.7168 66.0449 18.7461 65.7715 18.8047C65.498 18.8535 65.166 18.9414 64.7754 19.0684V25.9678ZM81.3281 29H76.6846V8.09668L81.3281 7.4668V29ZM88.3447 21.1631L94.0723 20.9873V20.7822C94.0723 20.0889 93.8281 19.5225 93.3398 19.083C92.8516 18.6338 92.2363 18.4092 91.4941 18.4092C90.6641 18.4092 89.9707 18.6533 89.4141 19.1416C88.8574 19.6201 88.501 20.2939 88.3447 21.1631ZM97.1045 24.2832L96.5918 28.3408C95.6934 28.7705 94.8096 29.0879 93.9404 29.293C93.0713 29.498 92.1924 29.6006 91.3037 29.6006C89.1064 29.6006 87.334 28.9707 85.9863 27.7109C84.6387 26.4414 83.9648 24.791 83.9648 22.7598C83.9648 20.6406 84.7021 18.8535 86.1768 17.3984C87.6514 15.9336 89.4434 15.2012 91.5527 15.2012C93.3594 15.2012 94.8389 15.7383 95.9912 16.8125C97.1533 17.877 97.7344 19.2588 97.7344 20.958C97.7344 21.2217 97.7148 21.6416 97.6758 22.2178L97.6611 22.3057L97.251 22.9062L88.2422 23.1553C88.3105 24.0439 88.6816 24.7666 89.3555 25.3232C90.0293 25.8701 90.8789 26.1436 91.9043 26.1436C92.627 26.1436 93.4277 25.9873 94.3066 25.6748C95.1953 25.3623 96.1279 24.8984 97.1045 24.2832ZM117.539 19.1562C117.266 19 117.002 18.8877 116.748 18.8193C116.504 18.751 116.26 18.7168 116.016 18.7168C115.146 18.7168 114.414 19.083 113.818 19.8154C113.223 20.5381 112.925 21.4512 112.925 22.5547C112.925 23.5898 113.184 24.4541 113.701 25.1475C114.229 25.8311 114.868 26.1729 115.62 26.1729C115.913 26.1729 116.216 26.1143 116.528 25.9971C116.851 25.8701 117.188 25.6797 117.539 25.4258V19.1562ZM122.139 7.4668V29L118.11 29.6299L117.935 28.6045C117.29 28.9561 116.655 29.2148 116.03 29.3809C115.405 29.5469 114.771 29.6299 114.126 29.6299C112.28 29.6299 110.84 29.0195 109.805 27.7988C108.77 26.5781 108.252 24.8887 108.252 22.7305C108.252 20.4648 108.857 18.6484 110.068 17.2812C111.289 15.9141 112.9 15.2305 114.902 15.2305C115.371 15.2305 115.82 15.2793 116.25 15.377C116.68 15.4648 117.109 15.6064 117.539 15.8018V8.09668L122.139 7.4668ZM129.478 22.3936C129.478 23.5166 129.717 24.4248 130.195 25.1182C130.684 25.8018 131.304 26.1436 132.056 26.1436C132.808 26.1436 133.423 25.7969 133.901 25.1035C134.39 24.4102 134.634 23.5068 134.634 22.3936C134.634 21.29 134.39 20.3916 133.901 19.6982C133.423 18.9951 132.808 18.6436 132.056 18.6436C131.304 18.6436 130.684 18.9902 130.195 19.6836C129.717 20.377 129.478 21.2803 129.478 22.3936ZM124.79 22.3936C124.79 20.2939 125.474 18.5654 126.841 17.208C128.218 15.8506 129.956 15.1719 132.056 15.1719C134.165 15.1719 135.908 15.8506 137.285 17.208C138.662 18.5654 139.351 20.2939 139.351 22.3936C139.351 24.4932 138.662 26.2266 137.285 27.5938C135.908 28.9512 134.165 29.6299 132.056 29.6299C129.966 29.6299 128.232 28.9512 126.855 27.5938C125.479 26.2266 124.79 24.4932 124.79 22.3936ZM146.631 29H142.046V15.8018H146.279V18.0137C146.982 17.1445 147.729 16.5 148.521 16.0801C149.312 15.6504 150.171 15.4355 151.099 15.4355C152.495 15.4355 153.555 15.8359 154.277 16.6367C155 17.4375 155.361 18.6094 155.361 20.1523V29H150.806V21.4414C150.806 20.748 150.664 20.2256 150.381 19.874C150.098 19.5225 149.678 19.3467 149.121 19.3467C148.32 19.3467 147.705 19.6152 147.275 20.1523C146.846 20.6895 146.631 21.4707 146.631 22.4961V29ZM164.253 7.75977L161.426 15.9482H157.251L160.562 7.75977H164.253ZM167.637 24.5615V19.2734H165.718V15.8018H167.637V11.8467L172.324 11.2168V15.8018H175.444V19.2734H172.324V24.8838C172.324 26.0752 172.485 26.9395 172.808 27.4766C173.13 28.0039 173.735 28.4922 174.624 28.9414L169.409 29.293C168.755 28.9805 168.296 28.5166 168.032 27.9014C167.769 27.2764 167.637 26.1631 167.637 24.5615ZM186.943 24.5615V19.2734H185.024V15.8018H186.943V11.8467L191.631 11.2168V15.8018H194.751V19.2734H191.631V24.8838C191.631 26.0752 191.792 26.9395 192.114 27.4766C192.437 28.0039 193.042 28.4922 193.931 28.9414L188.716 29.293C188.062 28.9805 187.603 28.5166 187.339 27.9014C187.075 27.2764 186.943 26.1631 186.943 24.5615ZM205.312 19.1562C205.039 19 204.775 18.8877 204.521 18.8193C204.277 18.751 204.033 18.7168 203.789 18.7168C202.92 18.7168 202.188 19.083 201.592 19.8154C200.996 20.5381 200.698 21.4512 200.698 22.5547C200.698 23.5898 200.957 24.4541 201.475 25.1475C202.002 25.8311 202.642 26.1729 203.394 26.1729C203.696 26.1729 204.004 26.0947 204.316 25.9385C204.639 25.7725 204.971 25.5234 205.312 25.1914V19.1562ZM209.912 15.8018V24.0488C209.912 25.084 209.932 25.9531 209.971 26.6562C210.01 27.3594 210.068 27.96 210.146 28.458L205.884 29.6299L205.474 28.3701C204.897 28.7998 204.331 29.1172 203.774 29.3223C203.228 29.5273 202.651 29.6299 202.046 29.6299C200.347 29.6299 198.916 28.9512 197.754 27.5938C196.602 26.2363 196.025 24.5469 196.025 22.5254C196.025 20.3965 196.675 18.6387 197.974 17.252C199.272 15.8652 200.913 15.1719 202.896 15.1719C203.354 15.1719 203.833 15.2354 204.331 15.3623C204.829 15.4893 205.381 15.6846 205.986 15.9482L209.912 15.8018ZM217.881 29H213.442V8.09668L217.881 7.4668V21.2363L221.924 15.8018H226.729L222.144 21.4414L227.812 29H222.744L217.881 21.9834V29ZM232.427 21.1631L238.154 20.9873V20.7822C238.154 20.0889 237.91 19.5225 237.422 19.083C236.934 18.6338 236.318 18.4092 235.576 18.4092C234.746 18.4092 234.053 18.6533 233.496 19.1416C232.939 19.6201 232.583 20.2939 232.427 21.1631ZM241.187 24.2832L240.674 28.3408C239.775 28.7705 238.892 29.0879 238.022 29.293C237.153 29.498 236.274 29.6006 235.386 29.6006C233.188 29.6006 231.416 28.9707 230.068 27.7109C228.721 26.4414 228.047 24.791 228.047 22.7598C228.047 20.6406 228.784 18.8535 230.259 17.3984C231.733 15.9336 233.525 15.2012 235.635 15.2012C237.441 15.2012 238.921 15.7383 240.073 16.8125C241.235 17.877 241.816 19.2588 241.816 20.958C241.816 21.2217 241.797 21.6416 241.758 22.2178L241.743 22.3057L241.333 22.9062L232.324 23.1553C232.393 24.0439 232.764 24.7666 233.438 25.3232C234.111 25.8701 234.961 26.1436 235.986 26.1436C236.709 26.1436 237.51 25.9873 238.389 25.6748C239.277 25.3623 240.21 24.8984 241.187 24.2832ZM253.887 24.5615V19.2734H251.968V15.8018H253.887V11.8467L258.574 11.2168V15.8018H261.694V19.2734H258.574V24.8838C258.574 26.0752 258.735 26.9395 259.058 27.4766C259.38 28.0039 259.985 28.4922 260.874 28.9414L255.659 29.293C255.005 28.9805 254.546 28.5166 254.282 27.9014C254.019 27.2764 253.887 26.1631 253.887 24.5615ZM268.389 29H263.774V15.8018H268.066L268.154 18.1162C268.682 17.1885 269.297 16.5146 270 16.0947C270.713 15.6748 271.597 15.4648 272.651 15.4648H273.018V20.3867H272.534H272.021C270.586 20.3867 269.619 20.5527 269.121 20.8848C268.633 21.207 268.389 21.9932 268.389 23.2432V29ZM275.127 10.8799C275.127 10.1768 275.371 9.58105 275.859 9.09277C276.348 8.60449 276.943 8.36035 277.646 8.36035C278.359 8.36035 278.955 8.60449 279.434 9.09277C279.922 9.57129 280.166 10.167 280.166 10.8799C280.166 11.583 279.922 12.1836 279.434 12.6816C278.945 13.1797 278.35 13.4287 277.646 13.4287C276.963 13.4287 276.372 13.1797 275.874 12.6816C275.376 12.1738 275.127 11.5732 275.127 10.8799ZM279.99 29H275.347V15.8018L279.99 15.1719V29ZM283.462 35.3574V15.8018H288.047C288.506 15.626 288.96 15.499 289.409 15.4209C289.858 15.333 290.317 15.2891 290.786 15.2891C292.69 15.2891 294.258 15.9482 295.488 17.2666C296.729 18.585 297.349 20.2842 297.349 22.3643C297.349 24.5225 296.68 26.2705 295.342 27.6084C294.014 28.9365 292.275 29.6006 290.127 29.6006C289.844 29.6006 289.541 29.5811 289.219 29.542C288.896 29.5127 288.496 29.4639 288.018 29.3955V34.5811L283.462 35.3574ZM288.047 25.9678C288.369 26.0557 288.647 26.1191 288.882 26.1582C289.116 26.1973 289.331 26.2168 289.526 26.2168C290.415 26.2168 291.157 25.8506 291.753 25.1182C292.349 24.3857 292.646 23.458 292.646 22.335C292.646 21.29 292.373 20.4258 291.826 19.7422C291.289 19.0586 290.62 18.7168 289.819 18.7168C289.575 18.7168 289.316 18.7461 289.043 18.8047C288.77 18.8535 288.438 18.9414 288.047 19.0684V25.9678ZM300.015 28.3994V24.7666C301.177 25.5088 302.08 26.0117 302.725 26.2754C303.369 26.5293 303.965 26.6562 304.512 26.6562C304.99 26.6562 305.376 26.5537 305.669 26.3486C305.962 26.1338 306.108 25.8555 306.108 25.5137C306.108 25.2207 306.006 24.9766 305.801 24.7812C305.596 24.5859 305.244 24.4004 304.746 24.2246L303.047 23.624C301.934 23.2432 301.089 22.7109 300.513 22.0273C299.937 21.334 299.648 20.5186 299.648 19.5811C299.648 18.2529 300.112 17.1885 301.04 16.3877C301.968 15.5771 303.203 15.1719 304.746 15.1719C305.459 15.1719 306.211 15.2744 307.002 15.4795C307.803 15.6748 308.691 15.9824 309.668 16.4023L309.097 19.6104C308.511 19.1123 307.871 18.7217 307.178 18.4385C306.484 18.1553 305.835 18.0137 305.229 18.0137C304.78 18.0137 304.414 18.1211 304.131 18.3359C303.848 18.541 303.706 18.8047 303.706 19.127C303.706 19.4004 303.784 19.6201 303.94 19.7861C304.106 19.9424 304.468 20.1133 305.024 20.2988L306.606 20.8701C307.847 21.3096 308.73 21.8418 309.258 22.4668C309.795 23.0918 310.063 23.9072 310.063 24.9131C310.063 26.3682 309.585 27.5205 308.628 28.3701C307.671 29.21 306.367 29.6299 304.717 29.6299C303.916 29.6299 303.125 29.5273 302.344 29.3223C301.572 29.127 300.796 28.8193 300.015 28.3994ZM310.898 33.5264L313.711 25.3086H317.856L314.59 33.5264H310.898ZM55.5322 60.5615V55.2734H53.6133V51.8018H55.5322V47.8467L60.2197 47.2168V51.8018H63.3398V55.2734H60.2197V60.8838C60.2197 62.0752 60.3809 62.9395 60.7031 63.4766C61.0254 64.0039 61.6309 64.4922 62.5195 64.9414L57.3047 65.293C56.6504 64.9805 56.1914 64.5166 55.9277 63.9014C55.6641 63.2764 55.5322 62.1631 55.5322 60.5615ZM70.0342 65H65.4199V51.8018H69.7119L69.7998 54.1162C70.3271 53.1885 70.9424 52.5146 71.6455 52.0947C72.3584 51.6748 73.2422 51.4648 74.2969 51.4648H74.6631V56.3867H74.1797H73.667C72.2314 56.3867 71.2646 56.5527 70.7666 56.8848C70.2783 57.207 70.0342 57.9932 70.0342 59.2432V65ZM76.7725 46.8799C76.7725 46.1768 77.0166 45.5811 77.5049 45.0928C77.9932 44.6045 78.5889 44.3604 79.292 44.3604C80.0049 44.3604 80.6006 44.6045 81.0791 45.0928C81.5674 45.5713 81.8115 46.167 81.8115 46.8799C81.8115 47.583 81.5674 48.1836 81.0791 48.6816C80.5908 49.1797 79.9951 49.4287 79.292 49.4287C78.6084 49.4287 78.0176 49.1797 77.5195 48.6816C77.0215 48.1738 76.7725 47.5732 76.7725 46.8799ZM81.6357 65H76.9922V51.8018L81.6357 51.1719V65ZM85.1074 71.3574V51.8018H89.6924C90.1514 51.626 90.6055 51.499 91.0547 51.4209C91.5039 51.333 91.9629 51.2891 92.4316 51.2891C94.3359 51.2891 95.9033 51.9482 97.1338 53.2666C98.374 54.585 98.9941 56.2842 98.9941 58.3643C98.9941 60.5225 98.3252 62.2705 96.9873 63.6084C95.6592 64.9365 93.9209 65.6006 91.7725 65.6006C91.4893 65.6006 91.1865 65.5811 90.8643 65.542C90.542 65.5127 90.1416 65.4639 89.6631 65.3955V70.5811L85.1074 71.3574ZM89.6924 61.9678C90.0146 62.0557 90.293 62.1191 90.5273 62.1582C90.7617 62.1973 90.9766 62.2168 91.1719 62.2168C92.0605 62.2168 92.8027 61.8506 93.3984 61.1182C93.9941 60.3857 94.292 59.458 94.292 58.335C94.292 57.29 94.0186 56.4258 93.4717 55.7422C92.9346 55.0586 92.2656 54.7168 91.4648 54.7168C91.2207 54.7168 90.9619 54.7461 90.6885 54.8047C90.415 54.8535 90.083 54.9414 89.6924 55.0684V61.9678ZM101.66 64.3994V60.7666C102.822 61.5088 103.726 62.0117 104.37 62.2754C105.015 62.5293 105.61 62.6562 106.157 62.6562C106.636 62.6562 107.021 62.5537 107.314 62.3486C107.607 62.1338 107.754 61.8555 107.754 61.5137C107.754 61.2207 107.651 60.9766 107.446 60.7812C107.241 60.5859 106.89 60.4004 106.392 60.2246L104.692 59.624C103.579 59.2432 102.734 58.7109 102.158 58.0273C101.582 57.334 101.294 56.5186 101.294 55.5811C101.294 54.2529 101.758 53.1885 102.686 52.3877C103.613 51.5771 104.849 51.1719 106.392 51.1719C107.104 51.1719 107.856 51.2744 108.647 51.4795C109.448 51.6748 110.337 51.9824 111.313 52.4023L110.742 55.6104C110.156 55.1123 109.517 54.7217 108.823 54.4385C108.13 54.1553 107.48 54.0137 106.875 54.0137C106.426 54.0137 106.06 54.1211 105.776 54.3359C105.493 54.541 105.352 54.8047 105.352 55.127C105.352 55.4004 105.43 55.6201 105.586 55.7861C105.752 55.9424 106.113 56.1133 106.67 56.2988L108.252 56.8701C109.492 57.3096 110.376 57.8418 110.903 58.4668C111.44 59.0918 111.709 59.9072 111.709 60.9131C111.709 62.3682 111.23 63.5205 110.273 64.3701C109.316 65.21 108.013 65.6299 106.362 65.6299C105.562 65.6299 104.771 65.5273 103.989 65.3223C103.218 65.127 102.441 64.8193 101.66 64.3994ZM123.853 60.5615V55.2734H121.934V51.8018H123.853V47.8467L128.54 47.2168V51.8018H131.66V55.2734H128.54V60.8838C128.54 62.0752 128.701 62.9395 129.023 63.4766C129.346 64.0039 129.951 64.4922 130.84 64.9414L125.625 65.293C124.971 64.9805 124.512 64.5166 124.248 63.9014C123.984 63.2764 123.853 62.1631 123.853 60.5615ZM142.222 55.1562C141.948 55 141.685 54.8877 141.431 54.8193C141.187 54.751 140.942 54.7168 140.698 54.7168C139.829 54.7168 139.097 55.083 138.501 55.8154C137.905 56.5381 137.607 57.4512 137.607 58.5547C137.607 59.5898 137.866 60.4541 138.384 61.1475C138.911 61.8311 139.551 62.1729 140.303 62.1729C140.605 62.1729 140.913 62.0947 141.226 61.9385C141.548 61.7725 141.88 61.5234 142.222 61.1914V55.1562ZM146.821 51.8018V60.0488C146.821 61.084 146.841 61.9531 146.88 62.6562C146.919 63.3594 146.978 63.96 147.056 64.458L142.793 65.6299L142.383 64.3701C141.807 64.7998 141.24 65.1172 140.684 65.3223C140.137 65.5273 139.561 65.6299 138.955 65.6299C137.256 65.6299 135.825 64.9512 134.663 63.5938C133.511 62.2363 132.935 60.5469 132.935 58.5254C132.935 56.3965 133.584 54.6387 134.883 53.252C136.182 51.8652 137.822 51.1719 139.805 51.1719C140.264 51.1719 140.742 51.2354 141.24 51.3623C141.738 51.4893 142.29 51.6846 142.896 51.9482L146.821 51.8018ZM154.79 65H150.352V44.0967L154.79 43.4668V57.2363L158.833 51.8018H163.638L159.053 57.4414L164.722 65H159.653L154.79 57.9834V65ZM169.336 57.1631L175.063 56.9873V56.7822C175.063 56.0889 174.819 55.5225 174.331 55.083C173.843 54.6338 173.228 54.4092 172.485 54.4092C171.655 54.4092 170.962 54.6533 170.405 55.1416C169.849 55.6201 169.492 56.2939 169.336 57.1631ZM178.096 60.2832L177.583 64.3408C176.685 64.7705 175.801 65.0879 174.932 65.293C174.062 65.498 173.184 65.6006 172.295 65.6006C170.098 65.6006 168.325 64.9707 166.978 63.7109C165.63 62.4414 164.956 60.791 164.956 58.7598C164.956 56.6406 165.693 54.8535 167.168 53.3984C168.643 51.9336 170.435 51.2012 172.544 51.2012C174.351 51.2012 175.83 51.7383 176.982 52.8125C178.145 53.877 178.726 55.2588 178.726 56.958C178.726 57.2217 178.706 57.6416 178.667 58.2178L178.652 58.3057L178.242 58.9062L169.233 59.1553C169.302 60.0439 169.673 60.7666 170.347 61.3232C171.021 61.8701 171.87 62.1436 172.896 62.1436C173.618 62.1436 174.419 61.9873 175.298 61.6748C176.187 61.3623 177.119 60.8984 178.096 60.2832Z" fill="#1B1E28"/>
<path d="M190.049 71.3574V51.8018H194.634C195.093 51.626 195.547 51.499 195.996 51.4209C196.445 51.333 196.904 51.2891 197.373 51.2891C199.277 51.2891 200.845 51.9482 202.075 53.2666C203.315 54.585 203.936 56.2842 203.936 58.3643C203.936 60.5225 203.267 62.2705 201.929 63.6084C200.601 64.9365 198.862 65.6006 196.714 65.6006C196.431 65.6006 196.128 65.5811 195.806 65.542C195.483 65.5127 195.083 65.4639 194.604 65.3955V70.5811L190.049 71.3574ZM194.634 61.9678C194.956 62.0557 195.234 62.1191 195.469 62.1582C195.703 62.1973 195.918 62.2168 196.113 62.2168C197.002 62.2168 197.744 61.8506 198.34 61.1182C198.936 60.3857 199.233 59.458 199.233 58.335C199.233 57.29 198.96 56.4258 198.413 55.7422C197.876 55.0586 197.207 54.7168 196.406 54.7168C196.162 54.7168 195.903 54.7461 195.63 54.8047C195.356 54.8535 195.024 54.9414 194.634 55.0684V61.9678ZM210.205 57.1631L215.933 56.9873V56.7822C215.933 56.0889 215.688 55.5225 215.2 55.083C214.712 54.6338 214.097 54.4092 213.354 54.4092C212.524 54.4092 211.831 54.6533 211.274 55.1416C210.718 55.6201 210.361 56.2939 210.205 57.1631ZM218.965 60.2832L218.452 64.3408C217.554 64.7705 216.67 65.0879 215.801 65.293C214.932 65.498 214.053 65.6006 213.164 65.6006C210.967 65.6006 209.194 64.9707 207.847 63.7109C206.499 62.4414 205.825 60.791 205.825 58.7598C205.825 56.6406 206.562 54.8535 208.037 53.3984C209.512 51.9336 211.304 51.2012 213.413 51.2012C215.22 51.2012 216.699 51.7383 217.852 52.8125C219.014 53.877 219.595 55.2588 219.595 56.958C219.595 57.2217 219.575 57.6416 219.536 58.2178L219.521 58.3057L219.111 58.9062L210.103 59.1553C210.171 60.0439 210.542 60.7666 211.216 61.3232C211.89 61.8701 212.739 62.1436 213.765 62.1436C214.487 62.1436 215.288 61.9873 216.167 61.6748C217.056 61.3623 217.988 60.8984 218.965 60.2832ZM226.055 58.3936C226.055 59.5166 226.294 60.4248 226.772 61.1182C227.261 61.8018 227.881 62.1436 228.633 62.1436C229.385 62.1436 230 61.7969 230.479 61.1035C230.967 60.4102 231.211 59.5068 231.211 58.3936C231.211 57.29 230.967 56.3916 230.479 55.6982C230 54.9951 229.385 54.6436 228.633 54.6436C227.881 54.6436 227.261 54.9902 226.772 55.6836C226.294 56.377 226.055 57.2803 226.055 58.3936ZM221.367 58.3936C221.367 56.2939 222.051 54.5654 223.418 53.208C224.795 51.8506 226.533 51.1719 228.633 51.1719C230.742 51.1719 232.485 51.8506 233.862 53.208C235.239 54.5654 235.928 56.2939 235.928 58.3936C235.928 60.4932 235.239 62.2266 233.862 63.5938C232.485 64.9512 230.742 65.6299 228.633 65.6299C226.543 65.6299 224.81 64.9512 223.433 63.5938C222.056 62.2266 221.367 60.4932 221.367 58.3936ZM238.623 71.3574V51.8018H243.208C243.667 51.626 244.121 51.499 244.57 51.4209C245.02 51.333 245.479 51.2891 245.947 51.2891C247.852 51.2891 249.419 51.9482 250.649 53.2666C251.89 54.585 252.51 56.2842 252.51 58.3643C252.51 60.5225 251.841 62.2705 250.503 63.6084C249.175 64.9365 247.437 65.6006 245.288 65.6006C245.005 65.6006 244.702 65.5811 244.38 65.542C244.058 65.5127 243.657 65.4639 243.179 65.3955V70.5811L238.623 71.3574ZM243.208 61.9678C243.53 62.0557 243.809 62.1191 244.043 62.1582C244.277 62.1973 244.492 62.2168 244.688 62.2168C245.576 62.2168 246.318 61.8506 246.914 61.1182C247.51 60.3857 247.808 59.458 247.808 58.335C247.808 57.29 247.534 56.4258 246.987 55.7422C246.45 55.0586 245.781 54.7168 244.98 54.7168C244.736 54.7168 244.478 54.7461 244.204 54.8047C243.931 54.8535 243.599 54.9414 243.208 55.0684V61.9678ZM259.761 65H255.117V44.0967L259.761 43.4668V65ZM266.777 57.1631L272.505 56.9873V56.7822C272.505 56.0889 272.261 55.5225 271.772 55.083C271.284 54.6338 270.669 54.4092 269.927 54.4092C269.097 54.4092 268.403 54.6533 267.847 55.1416C267.29 55.6201 266.934 56.2939 266.777 57.1631ZM275.537 60.2832L275.024 64.3408C274.126 64.7705 273.242 65.0879 272.373 65.293C271.504 65.498 270.625 65.6006 269.736 65.6006C267.539 65.6006 265.767 64.9707 264.419 63.7109C263.071 62.4414 262.397 60.791 262.397 58.7598C262.397 56.6406 263.135 54.8535 264.609 53.3984C266.084 51.9336 267.876 51.2012 269.985 51.2012C271.792 51.2012 273.271 51.7383 274.424 52.8125C275.586 53.877 276.167 55.2588 276.167 56.958C276.167 57.2217 276.147 57.6416 276.108 58.2178L276.094 58.3057L275.684 58.9062L266.675 59.1553C266.743 60.0439 267.114 60.7666 267.788 61.3232C268.462 61.8701 269.312 62.1436 270.337 62.1436C271.06 62.1436 271.86 61.9873 272.739 61.6748C273.628 61.3623 274.561 60.8984 275.537 60.2832Z" fill="#FF7029"/>
<path d="M186.842 83.2929C196.405 75.3934 239.458 65.4578 275.562 82.799C255.596 77.3444 214.791 73.4011 186.842 83.2929Z" fill="#FF7029"/>
<path d="M28.6406 98.4012H37.7578V99.7918H33.9531V109.331H32.3828V99.7918H28.6406V98.4012ZM40.0781 102.128C41.1719 102.128 42.0807 102.482 42.8047 103.19C43.5286 103.893 43.8906 104.779 43.8906 105.846C43.8906 106.883 43.5234 107.745 42.7891 108.432C42.0547 109.115 41.1302 109.456 40.0156 109.456C38.9375 109.456 38.0365 109.109 37.3125 108.417C36.5885 107.719 36.2266 106.849 36.2266 105.807C36.2266 104.755 36.5911 103.88 37.3203 103.182C38.0547 102.479 38.974 102.128 40.0781 102.128ZM40 103.409C39.3177 103.409 38.7578 103.633 38.3203 104.081C37.8828 104.529 37.6641 105.099 37.6641 105.792C37.6641 106.479 37.888 107.042 38.3359 107.479C38.7839 107.912 39.3594 108.128 40.0625 108.128C40.7604 108.128 41.3307 107.909 41.7734 107.471C42.2214 107.029 42.4453 106.464 42.4453 105.776C42.4453 105.094 42.2135 104.529 41.75 104.081C41.2865 103.633 40.7031 103.409 40 103.409ZM49.5547 104.628C49.5547 103.862 49.8333 103.258 50.3906 102.815C50.9531 102.367 51.7188 102.143 52.6875 102.143H55.6484V103.253H54.1953C54.4766 103.539 54.6719 103.8 54.7812 104.034C54.8906 104.268 54.9453 104.537 54.9453 104.839C54.9453 105.214 54.8385 105.583 54.625 105.948C54.4115 106.307 54.1354 106.583 53.7969 106.776C53.4635 106.969 52.9141 107.123 52.1484 107.237C51.612 107.315 51.3438 107.5 51.3438 107.792C51.3438 107.958 51.4427 108.096 51.6406 108.206C51.8438 108.31 52.2083 108.419 52.7344 108.534C53.6146 108.727 54.1797 108.878 54.4297 108.987C54.6849 109.096 54.9141 109.253 55.1172 109.456C55.4609 109.8 55.6328 110.232 55.6328 110.753C55.6328 111.435 55.3281 111.979 54.7188 112.386C54.1146 112.792 53.3047 112.995 52.2891 112.995C51.263 112.995 50.4427 112.789 49.8281 112.378C49.2188 111.971 48.9141 111.425 48.9141 110.737C48.9141 109.763 49.5156 109.136 50.7188 108.854C50.2396 108.547 50 108.242 50 107.94C50 107.711 50.1016 107.503 50.3047 107.315C50.513 107.128 50.7917 106.99 51.1406 106.901C50.0833 106.432 49.5547 105.675 49.5547 104.628ZM52.2266 103.378C51.8411 103.378 51.513 103.508 51.2422 103.768C50.9714 104.029 50.8359 104.341 50.8359 104.706C50.8359 105.076 50.9688 105.383 51.2344 105.628C51.5 105.867 51.8359 105.987 52.2422 105.987C52.6432 105.987 52.9766 105.865 53.2422 105.62C53.513 105.37 53.6484 105.06 53.6484 104.69C53.6484 104.315 53.513 104.003 53.2422 103.753C52.9714 103.503 52.6328 103.378 52.2266 103.378ZM51.8906 109.667C51.4115 109.667 51.0182 109.768 50.7109 109.971C50.4089 110.175 50.2578 110.435 50.2578 110.753C50.2578 111.492 50.9245 111.862 52.2578 111.862C52.888 111.862 53.375 111.768 53.7188 111.581C54.0677 111.399 54.2422 111.138 54.2422 110.8C54.2422 110.466 54.0234 110.193 53.5859 109.979C53.1484 109.771 52.5833 109.667 51.8906 109.667ZM62.875 105.862H57.8203C57.8568 106.55 58.0859 107.096 58.5078 107.503C58.9349 107.909 59.4844 108.112 60.1562 108.112C61.0938 108.112 61.9583 107.82 62.75 107.237V108.628C62.3125 108.919 61.8776 109.128 61.4453 109.253C61.0182 109.378 60.5156 109.44 59.9375 109.44C59.1458 109.44 58.5052 109.276 58.0156 108.948C57.526 108.62 57.1328 108.18 56.8359 107.628C56.5443 107.07 56.3984 106.427 56.3984 105.698C56.3984 104.604 56.7083 103.716 57.3281 103.034C57.9479 102.346 58.7526 102.003 59.7422 102.003C60.6953 102.003 61.4557 102.336 62.0234 103.003C62.5911 103.669 62.875 104.563 62.875 105.682V105.862ZM57.8516 105.011H61.4688C61.4323 104.443 61.263 104.005 60.9609 103.698C60.6589 103.391 60.2526 103.237 59.7422 103.237C59.2318 103.237 58.8125 103.391 58.4844 103.698C58.1615 104.005 57.9505 104.443 57.8516 105.011ZM63.4141 103.284L66.0859 100.659V102.143H68.3594V103.425H66.0859V106.948C66.0859 107.771 66.4271 108.182 67.1094 108.182C67.6198 108.182 68.1589 108.011 68.7266 107.667V108.995C68.1797 109.302 67.5833 109.456 66.9375 109.456C66.2865 109.456 65.7448 109.266 65.3125 108.886C65.1771 108.771 65.0651 108.643 64.9766 108.503C64.888 108.357 64.8125 108.169 64.75 107.94C64.6927 107.706 64.6641 107.263 64.6641 106.612V103.425H63.4141V103.284ZM73.1953 103.284L75.8672 100.659V102.143H78.1406V103.425H75.8672V106.948C75.8672 107.771 76.2083 108.182 76.8906 108.182C77.401 108.182 77.9401 108.011 78.5078 107.667V108.995C77.9609 109.302 77.3646 109.456 76.7188 109.456C76.0677 109.456 75.526 109.266 75.0938 108.886C74.9583 108.771 74.8464 108.643 74.7578 108.503C74.6693 108.357 74.5938 108.169 74.5312 107.94C74.474 107.706 74.4453 107.263 74.4453 106.612V103.425H73.1953V103.284ZM79.5 98.4168H80.9219V103.089C81.5156 102.365 82.2526 102.003 83.1328 102.003C83.612 102.003 84.0417 102.123 84.4219 102.362C84.8021 102.602 85.0833 102.932 85.2656 103.354C85.4531 103.776 85.5469 104.404 85.5469 105.237V109.331H84.125V104.886C84.125 104.359 83.9948 103.938 83.7344 103.62C83.4792 103.297 83.1406 103.136 82.7188 103.136C82.4062 103.136 82.112 103.216 81.8359 103.378C81.5599 103.539 81.2552 103.807 80.9219 104.182V109.331H79.5V98.4168ZM93.6562 105.862H88.6016C88.638 106.55 88.8672 107.096 89.2891 107.503C89.7161 107.909 90.2656 108.112 90.9375 108.112C91.875 108.112 92.7396 107.82 93.5312 107.237V108.628C93.0938 108.919 92.6589 109.128 92.2266 109.253C91.7995 109.378 91.2969 109.44 90.7188 109.44C89.9271 109.44 89.2865 109.276 88.7969 108.948C88.3073 108.62 87.9141 108.18 87.6172 107.628C87.3255 107.07 87.1797 106.427 87.1797 105.698C87.1797 104.604 87.4896 103.716 88.1094 103.034C88.7292 102.346 89.5339 102.003 90.5234 102.003C91.4766 102.003 92.237 102.336 92.8047 103.003C93.3724 103.669 93.6562 104.563 93.6562 105.682V105.862ZM88.6328 105.011H92.25C92.2135 104.443 92.0443 104.005 91.7422 103.698C91.4401 103.391 91.0339 103.237 90.5234 103.237C90.013 103.237 89.5938 103.391 89.2656 103.698C88.9427 104.005 88.7318 104.443 88.6328 105.011ZM99.5938 98.4168H101.016V102.659C101.63 102.211 102.286 101.987 102.984 101.987C103.896 101.987 104.641 102.331 105.219 103.018C105.797 103.706 106.086 104.589 106.086 105.667C106.086 106.823 105.74 107.745 105.047 108.432C104.359 109.115 103.438 109.456 102.281 109.456C101.818 109.456 101.328 109.406 100.812 109.307C100.302 109.208 99.8958 109.083 99.5938 108.932V98.4168ZM101.016 104.018V107.909C101.5 108.055 101.997 108.128 102.508 108.128C103.138 108.128 103.651 107.904 104.047 107.456C104.448 107.008 104.648 106.432 104.648 105.729C104.648 105.016 104.461 104.435 104.086 103.987C103.716 103.539 103.232 103.315 102.633 103.315C102.102 103.315 101.562 103.55 101.016 104.018ZM113.781 105.862H108.727C108.763 106.55 108.992 107.096 109.414 107.503C109.841 107.909 110.391 108.112 111.062 108.112C112 108.112 112.865 107.82 113.656 107.237V108.628C113.219 108.919 112.784 109.128 112.352 109.253C111.924 109.378 111.422 109.44 110.844 109.44C110.052 109.44 109.411 109.276 108.922 108.948C108.432 108.62 108.039 108.18 107.742 107.628C107.451 107.07 107.305 106.427 107.305 105.698C107.305 104.604 107.615 103.716 108.234 103.034C108.854 102.346 109.659 102.003 110.648 102.003C111.602 102.003 112.362 102.336 112.93 103.003C113.497 103.669 113.781 104.563 113.781 105.682V105.862ZM108.758 105.011H112.375C112.339 104.443 112.169 104.005 111.867 103.698C111.565 103.391 111.159 103.237 110.648 103.237C110.138 103.237 109.719 103.391 109.391 103.698C109.068 104.005 108.857 104.443 108.758 105.011ZM114.977 108.815V107.284C115.378 107.565 115.786 107.794 116.203 107.971C116.625 108.143 116.979 108.229 117.266 108.229C117.562 108.229 117.818 108.156 118.031 108.011C118.245 107.865 118.352 107.69 118.352 107.487C118.352 107.279 118.281 107.107 118.141 106.971C118.005 106.831 117.708 106.63 117.25 106.37C116.333 105.859 115.732 105.425 115.445 105.065C115.164 104.701 115.023 104.305 115.023 103.878C115.023 103.326 115.237 102.875 115.664 102.526C116.096 102.177 116.651 102.003 117.328 102.003C118.031 102.003 118.753 102.201 119.492 102.596V104.003C118.648 103.492 117.958 103.237 117.422 103.237C117.146 103.237 116.922 103.297 116.75 103.417C116.583 103.531 116.5 103.685 116.5 103.878C116.5 104.044 116.576 104.203 116.727 104.354C116.883 104.505 117.154 104.688 117.539 104.901L118.047 105.19C119.245 105.867 119.844 106.617 119.844 107.44C119.844 108.029 119.612 108.513 119.148 108.893C118.69 109.268 118.099 109.456 117.375 109.456C116.948 109.456 116.568 109.412 116.234 109.323C115.901 109.229 115.482 109.06 114.977 108.815ZM120.477 103.284L123.148 100.659V102.143H125.422V103.425H123.148V106.948C123.148 107.771 123.49 108.182 124.172 108.182C124.682 108.182 125.221 108.011 125.789 107.667V108.995C125.242 109.302 124.646 109.456 124 109.456C123.349 109.456 122.807 109.266 122.375 108.886C122.24 108.771 122.128 108.643 122.039 108.503C121.951 108.357 121.875 108.169 121.812 107.94C121.755 107.706 121.727 107.263 121.727 106.612V103.425H120.477V103.284ZM134.703 102.128C135.797 102.128 136.706 102.482 137.43 103.19C138.154 103.893 138.516 104.779 138.516 105.846C138.516 106.883 138.148 107.745 137.414 108.432C136.68 109.115 135.755 109.456 134.641 109.456C133.562 109.456 132.661 109.109 131.938 108.417C131.214 107.719 130.852 106.849 130.852 105.807C130.852 104.755 131.216 103.88 131.945 103.182C132.68 102.479 133.599 102.128 134.703 102.128ZM134.625 103.409C133.943 103.409 133.383 103.633 132.945 104.081C132.508 104.529 132.289 105.099 132.289 105.792C132.289 106.479 132.513 107.042 132.961 107.479C133.409 107.912 133.984 108.128 134.688 108.128C135.385 108.128 135.956 107.909 136.398 107.471C136.846 107.029 137.07 106.464 137.07 105.776C137.07 105.094 136.839 104.529 136.375 104.081C135.911 103.633 135.328 103.409 134.625 103.409ZM140.258 102.143V101.714C140.258 100.557 140.503 99.6954 140.992 99.1277C141.487 98.56 142.078 98.2762 142.766 98.2762C143.062 98.2762 143.414 98.323 143.82 98.4168V99.8074C143.591 99.7241 143.372 99.6824 143.164 99.6824C142.607 99.6824 142.219 99.8308 142 100.128C141.786 100.425 141.68 100.953 141.68 101.714V102.143H142.961V103.425H141.68V109.331H140.258V103.425H139.227V102.143H140.258ZM152.945 102.143H154.547L149.461 112.995H147.875L150.32 107.792L147.539 102.143H149.156L151.094 106.198L152.945 102.143ZM158.672 102.128C159.766 102.128 160.674 102.482 161.398 103.19C162.122 103.893 162.484 104.779 162.484 105.846C162.484 106.883 162.117 107.745 161.383 108.432C160.648 109.115 159.724 109.456 158.609 109.456C157.531 109.456 156.63 109.109 155.906 108.417C155.182 107.719 154.82 106.849 154.82 105.807C154.82 104.755 155.185 103.88 155.914 103.182C156.648 102.479 157.568 102.128 158.672 102.128ZM158.594 103.409C157.911 103.409 157.352 103.633 156.914 104.081C156.477 104.529 156.258 105.099 156.258 105.792C156.258 106.479 156.482 107.042 156.93 107.479C157.378 107.912 157.953 108.128 158.656 108.128C159.354 108.128 159.924 107.909 160.367 107.471C160.815 107.029 161.039 106.464 161.039 105.776C161.039 105.094 160.807 104.529 160.344 104.081C159.88 103.633 159.297 103.409 158.594 103.409ZM168.641 109.331V108.417C168.339 108.745 167.992 109 167.602 109.182C167.216 109.365 166.831 109.456 166.445 109.456C165.992 109.456 165.573 109.344 165.188 109.12C164.807 108.891 164.518 108.583 164.32 108.198C164.128 107.807 164.031 107.162 164.031 106.261V102.143H165.453V106.245C165.453 107 165.56 107.529 165.773 107.831C165.992 108.128 166.372 108.276 166.914 108.276C167.591 108.276 168.167 107.945 168.641 107.284V102.143H170.062V109.331H168.641ZM173.586 102.143V103.792L173.664 103.667C174.352 102.557 175.039 102.003 175.727 102.003C176.263 102.003 176.823 102.274 177.406 102.815L176.656 104.065C176.161 103.596 175.703 103.362 175.281 103.362C174.823 103.362 174.424 103.581 174.086 104.018C173.753 104.456 173.586 104.974 173.586 105.573V109.331H172.156V102.143H173.586ZM187.375 105.011V108.065C187.375 108.31 187.458 108.432 187.625 108.432C187.797 108.432 188.065 108.305 188.43 108.05V108.917C188.107 109.125 187.846 109.266 187.648 109.339C187.456 109.417 187.253 109.456 187.039 109.456C186.43 109.456 186.07 109.216 185.961 108.737C185.357 109.206 184.714 109.44 184.031 109.44C183.531 109.44 183.115 109.276 182.781 108.948C182.448 108.615 182.281 108.198 182.281 107.698C182.281 107.245 182.443 106.841 182.766 106.487C183.094 106.128 183.557 105.844 184.156 105.636L185.977 105.011V104.628C185.977 103.763 185.544 103.331 184.68 103.331C183.904 103.331 183.148 103.732 182.414 104.534V102.979C182.966 102.328 183.76 102.003 184.797 102.003C185.573 102.003 186.195 102.206 186.664 102.612C186.82 102.742 186.961 102.917 187.086 103.136C187.211 103.349 187.289 103.565 187.32 103.784C187.357 103.998 187.375 104.406 187.375 105.011ZM185.977 107.909V105.776L185.023 106.143C184.539 106.336 184.195 106.531 183.992 106.729C183.794 106.922 183.695 107.164 183.695 107.456C183.695 107.753 183.789 107.995 183.977 108.182C184.169 108.37 184.417 108.464 184.719 108.464C185.172 108.464 185.591 108.279 185.977 107.909ZM194.484 98.4168H195.914V109.331H192.875C191.812 109.331 190.964 108.995 190.328 108.323C189.698 107.651 189.383 106.75 189.383 105.62C189.383 104.563 189.714 103.693 190.375 103.011C191.042 102.328 191.891 101.987 192.922 101.987C193.401 101.987 193.922 102.089 194.484 102.292V98.4168ZM194.484 108.112V103.557C194.042 103.333 193.594 103.221 193.141 103.221C192.432 103.221 191.867 103.453 191.445 103.917C191.029 104.38 190.82 105.005 190.82 105.792C190.82 106.531 191.003 107.102 191.367 107.503C191.586 107.742 191.818 107.904 192.062 107.987C192.307 108.07 192.747 108.112 193.383 108.112H194.484ZM202.242 102.143H203.781L200.609 109.456H200.133L196.883 102.143H198.438L200.375 106.565L202.242 102.143ZM210.656 105.862H205.602C205.638 106.55 205.867 107.096 206.289 107.503C206.716 107.909 207.266 108.112 207.938 108.112C208.875 108.112 209.74 107.82 210.531 107.237V108.628C210.094 108.919 209.659 109.128 209.227 109.253C208.799 109.378 208.297 109.44 207.719 109.44C206.927 109.44 206.286 109.276 205.797 108.948C205.307 108.62 204.914 108.18 204.617 107.628C204.326 107.07 204.18 106.427 204.18 105.698C204.18 104.604 204.49 103.716 205.109 103.034C205.729 102.346 206.534 102.003 207.523 102.003C208.477 102.003 209.237 102.336 209.805 103.003C210.372 103.669 210.656 104.563 210.656 105.682V105.862ZM205.633 105.011H209.25C209.214 104.443 209.044 104.005 208.742 103.698C208.44 103.391 208.034 103.237 207.523 103.237C207.013 103.237 206.594 103.391 206.266 103.698C205.943 104.005 205.732 104.443 205.633 105.011ZM213.625 102.143V103.057C214.26 102.354 214.982 102.003 215.789 102.003C216.237 102.003 216.654 102.12 217.039 102.354C217.424 102.583 217.716 102.901 217.914 103.307C218.117 103.708 218.219 104.346 218.219 105.221V109.331H216.797V105.237C216.797 104.503 216.685 103.979 216.461 103.667C216.237 103.349 215.862 103.19 215.336 103.19C214.664 103.19 214.094 103.526 213.625 104.198V109.331H212.172V102.143H213.625ZM219.195 103.284L221.867 100.659V102.143H224.141V103.425H221.867V106.948C221.867 107.771 222.208 108.182 222.891 108.182C223.401 108.182 223.94 108.011 224.508 107.667V108.995C223.961 109.302 223.365 109.456 222.719 109.456C222.068 109.456 221.526 109.266 221.094 108.886C220.958 108.771 220.846 108.643 220.758 108.503C220.669 108.357 220.594 108.169 220.531 107.94C220.474 107.706 220.445 107.263 220.445 106.612V103.425H219.195V103.284ZM230.109 109.331V108.417C229.807 108.745 229.461 109 229.07 109.182C228.685 109.365 228.299 109.456 227.914 109.456C227.461 109.456 227.042 109.344 226.656 109.12C226.276 108.891 225.987 108.583 225.789 108.198C225.596 107.807 225.5 107.162 225.5 106.261V102.143H226.922V106.245C226.922 107 227.029 107.529 227.242 107.831C227.461 108.128 227.841 108.276 228.383 108.276C229.06 108.276 229.635 107.945 230.109 107.284V102.143H231.531V109.331H230.109ZM235.055 102.143V103.792L235.133 103.667C235.82 102.557 236.508 102.003 237.195 102.003C237.732 102.003 238.292 102.274 238.875 102.815L238.125 104.065C237.63 103.596 237.172 103.362 236.75 103.362C236.292 103.362 235.893 103.581 235.555 104.018C235.221 104.456 235.055 104.974 235.055 105.573V109.331H233.625V102.143H235.055ZM245.672 105.862H240.617C240.654 106.55 240.883 107.096 241.305 107.503C241.732 107.909 242.281 108.112 242.953 108.112C243.891 108.112 244.755 107.82 245.547 107.237V108.628C245.109 108.919 244.674 109.128 244.242 109.253C243.815 109.378 243.312 109.44 242.734 109.44C241.943 109.44 241.302 109.276 240.812 108.948C240.323 108.62 239.93 108.18 239.633 107.628C239.341 107.07 239.195 106.427 239.195 105.698C239.195 104.604 239.505 103.716 240.125 103.034C240.745 102.346 241.549 102.003 242.539 102.003C243.492 102.003 244.253 102.336 244.82 103.003C245.388 103.669 245.672 104.563 245.672 105.682V105.862ZM240.648 105.011H244.266C244.229 104.443 244.06 104.005 243.758 103.698C243.456 103.391 243.049 103.237 242.539 103.237C242.029 103.237 241.609 103.391 241.281 103.698C240.958 104.005 240.747 104.443 240.648 105.011ZM256.07 102.143H257.672L252.586 112.995H251L253.445 107.792L250.664 102.143H252.281L254.219 106.198L256.07 102.143ZM261.797 102.128C262.891 102.128 263.799 102.482 264.523 103.19C265.247 103.893 265.609 104.779 265.609 105.846C265.609 106.883 265.242 107.745 264.508 108.432C263.773 109.115 262.849 109.456 261.734 109.456C260.656 109.456 259.755 109.109 259.031 108.417C258.307 107.719 257.945 106.849 257.945 105.807C257.945 104.755 258.31 103.88 259.039 103.182C259.773 102.479 260.693 102.128 261.797 102.128ZM261.719 103.409C261.036 103.409 260.477 103.633 260.039 104.081C259.602 104.529 259.383 105.099 259.383 105.792C259.383 106.479 259.607 107.042 260.055 107.479C260.503 107.912 261.078 108.128 261.781 108.128C262.479 108.128 263.049 107.909 263.492 107.471C263.94 107.029 264.164 106.464 264.164 105.776C264.164 105.094 263.932 104.529 263.469 104.081C263.005 103.633 262.422 103.409 261.719 103.409ZM271.766 109.331V108.417C271.464 108.745 271.117 109 270.727 109.182C270.341 109.365 269.956 109.456 269.57 109.456C269.117 109.456 268.698 109.344 268.312 109.12C267.932 108.891 267.643 108.583 267.445 108.198C267.253 107.807 267.156 107.162 267.156 106.261V102.143H268.578V106.245C268.578 107 268.685 107.529 268.898 107.831C269.117 108.128 269.497 108.276 270.039 108.276C270.716 108.276 271.292 107.945 271.766 107.284V102.143H273.188V109.331H271.766ZM280.297 99.1199C280.531 99.1199 280.732 99.2032 280.898 99.3699C281.065 99.5314 281.148 99.7267 281.148 99.9558C281.148 100.195 281.068 100.396 280.906 100.557C280.75 100.719 280.552 100.8 280.312 100.8C280.089 100.8 279.891 100.716 279.719 100.55C279.547 100.383 279.461 100.185 279.461 99.9558C279.461 99.7371 279.544 99.5444 279.711 99.3777C279.883 99.2058 280.078 99.1199 280.297 99.1199ZM279.625 102.143H281.047V110.354C281.047 111.599 280.568 112.479 279.609 112.995L278.555 111.956C278.883 111.841 279.143 111.641 279.336 111.354C279.529 111.068 279.625 110.734 279.625 110.354V102.143ZM287.734 109.331V108.417C287.432 108.745 287.086 109 286.695 109.182C286.31 109.365 285.924 109.456 285.539 109.456C285.086 109.456 284.667 109.344 284.281 109.12C283.901 108.891 283.612 108.583 283.414 108.198C283.221 107.807 283.125 107.162 283.125 106.261V102.143H284.547V106.245C284.547 107 284.654 107.529 284.867 107.831C285.086 108.128 285.466 108.276 286.008 108.276C286.685 108.276 287.26 107.945 287.734 107.284V102.143H289.156V109.331H287.734ZM290.805 108.815V107.284C291.206 107.565 291.615 107.794 292.031 107.971C292.453 108.143 292.807 108.229 293.094 108.229C293.391 108.229 293.646 108.156 293.859 108.011C294.073 107.865 294.18 107.69 294.18 107.487C294.18 107.279 294.109 107.107 293.969 106.971C293.833 106.831 293.536 106.63 293.078 106.37C292.161 105.859 291.56 105.425 291.273 105.065C290.992 104.701 290.852 104.305 290.852 103.878C290.852 103.326 291.065 102.875 291.492 102.526C291.924 102.177 292.479 102.003 293.156 102.003C293.859 102.003 294.581 102.201 295.32 102.596V104.003C294.477 103.492 293.786 103.237 293.25 103.237C292.974 103.237 292.75 103.297 292.578 103.417C292.411 103.531 292.328 103.685 292.328 103.878C292.328 104.044 292.404 104.203 292.555 104.354C292.711 104.505 292.982 104.688 293.367 104.901L293.875 105.19C295.073 105.867 295.672 106.617 295.672 107.44C295.672 108.029 295.44 108.513 294.977 108.893C294.518 109.268 293.927 109.456 293.203 109.456C292.776 109.456 292.396 109.412 292.062 109.323C291.729 109.229 291.31 109.06 290.805 108.815ZM296.305 103.284L298.977 100.659V102.143H301.25V103.425H298.977V106.948C298.977 107.771 299.318 108.182 300 108.182C300.51 108.182 301.049 108.011 301.617 107.667V108.995C301.07 109.302 300.474 109.456 299.828 109.456C299.177 109.456 298.635 109.266 298.203 108.886C298.068 108.771 297.956 108.643 297.867 108.503C297.779 108.357 297.703 108.169 297.641 107.94C297.583 107.706 297.555 107.263 297.555 106.612V103.425H296.305V103.284ZM25.4688 126.143V127.057C26.1042 126.354 26.8255 126.003 27.6328 126.003C28.0807 126.003 28.4974 126.12 28.8828 126.354C29.2682 126.583 29.5599 126.901 29.7578 127.307C29.9609 127.708 30.0625 128.346 30.0625 129.221V133.331H28.6406V129.237C28.6406 128.503 28.5286 127.979 28.3047 127.667C28.0807 127.349 27.7057 127.19 27.1797 127.19C26.5078 127.19 25.9375 127.526 25.4688 128.198V133.331H24.0156V126.143H25.4688ZM38.1719 129.862H33.1172C33.1536 130.55 33.3828 131.096 33.8047 131.503C34.2318 131.909 34.7812 132.112 35.4531 132.112C36.3906 132.112 37.2552 131.82 38.0469 131.237V132.628C37.6094 132.919 37.1745 133.128 36.7422 133.253C36.3151 133.378 35.8125 133.44 35.2344 133.44C34.4427 133.44 33.8021 133.276 33.3125 132.948C32.8229 132.62 32.4297 132.18 32.1328 131.628C31.8411 131.07 31.6953 130.427 31.6953 129.698C31.6953 128.604 32.0052 127.716 32.625 127.034C33.2448 126.346 34.0495 126.003 35.0391 126.003C35.9922 126.003 36.7526 126.336 37.3203 127.003C37.888 127.669 38.1719 128.563 38.1719 129.682V129.862ZM33.1484 129.011H36.7656C36.7292 128.443 36.5599 128.005 36.2578 127.698C35.9557 127.391 35.5495 127.237 35.0391 127.237C34.5286 127.237 34.1094 127.391 33.7812 127.698C33.4583 128.005 33.2474 128.443 33.1484 129.011ZM45.8438 129.862H40.7891C40.8255 130.55 41.0547 131.096 41.4766 131.503C41.9036 131.909 42.4531 132.112 43.125 132.112C44.0625 132.112 44.9271 131.82 45.7188 131.237V132.628C45.2812 132.919 44.8464 133.128 44.4141 133.253C43.987 133.378 43.4844 133.44 42.9062 133.44C42.1146 133.44 41.474 133.276 40.9844 132.948C40.4948 132.62 40.1016 132.18 39.8047 131.628C39.513 131.07 39.3672 130.427 39.3672 129.698C39.3672 128.604 39.6771 127.716 40.2969 127.034C40.9167 126.346 41.7214 126.003 42.7109 126.003C43.6641 126.003 44.4245 126.336 44.9922 127.003C45.5599 127.669 45.8438 128.563 45.8438 129.682V129.862ZM40.8203 129.011H44.4375C44.401 128.443 44.2318 128.005 43.9297 127.698C43.6276 127.391 43.2214 127.237 42.7109 127.237C42.2005 127.237 41.7812 127.391 41.4531 127.698C41.1302 128.005 40.9193 128.443 40.8203 129.011ZM52.1875 122.417H53.6172V133.331H50.5781C49.5156 133.331 48.6667 132.995 48.0312 132.323C47.401 131.651 47.0859 130.75 47.0859 129.62C47.0859 128.563 47.4167 127.693 48.0781 127.011C48.7448 126.328 49.5938 125.987 50.625 125.987C51.1042 125.987 51.625 126.089 52.1875 126.292V122.417ZM52.1875 132.112V127.557C51.7448 127.333 51.2969 127.221 50.8438 127.221C50.1354 127.221 49.5703 127.453 49.1484 127.917C48.7318 128.38 48.5234 129.005 48.5234 129.792C48.5234 130.531 48.7057 131.102 49.0703 131.503C49.2891 131.742 49.5208 131.904 49.7656 131.987C50.0104 132.07 50.4505 132.112 51.0859 132.112H52.1875ZM58.9922 127.284L61.6641 124.659V126.143H63.9375V127.425H61.6641V130.948C61.6641 131.771 62.0052 132.182 62.6875 132.182C63.1979 132.182 63.737 132.011 64.3047 131.667V132.995C63.7578 133.302 63.1615 133.456 62.5156 133.456C61.8646 133.456 61.3229 133.266 60.8906 132.886C60.7552 132.771 60.6432 132.643 60.5547 132.503C60.4661 132.357 60.3906 132.169 60.3281 131.94C60.2708 131.706 60.2422 131.263 60.2422 130.612V127.425H58.9922V127.284ZM68.7656 126.128C69.8594 126.128 70.7682 126.482 71.4922 127.19C72.2161 127.893 72.5781 128.779 72.5781 129.846C72.5781 130.883 72.2109 131.745 71.4766 132.432C70.7422 133.115 69.8177 133.456 68.7031 133.456C67.625 133.456 66.724 133.109 66 132.417C65.276 131.719 64.9141 130.849 64.9141 129.807C64.9141 128.755 65.2786 127.88 66.0078 127.182C66.7422 126.479 67.6615 126.128 68.7656 126.128ZM68.6875 127.409C68.0052 127.409 67.4453 127.633 67.0078 128.081C66.5703 128.529 66.3516 129.099 66.3516 129.792C66.3516 130.479 66.5755 131.042 67.0234 131.479C67.4714 131.912 68.0469 132.128 68.75 132.128C69.4479 132.128 70.0182 131.909 70.4609 131.471C70.9089 131.029 71.1328 130.464 71.1328 129.776C71.1328 129.094 70.901 128.529 70.4375 128.081C69.974 127.633 69.3906 127.409 68.6875 127.409ZM78.6406 122.417H80.0625V133.331H78.6406V122.417ZM88.25 129.862H83.1953C83.2318 130.55 83.4609 131.096 83.8828 131.503C84.3099 131.909 84.8594 132.112 85.5312 132.112C86.4688 132.112 87.3333 131.82 88.125 131.237V132.628C87.6875 132.919 87.2526 133.128 86.8203 133.253C86.3932 133.378 85.8906 133.44 85.3125 133.44C84.5208 133.44 83.8802 133.276 83.3906 132.948C82.901 132.62 82.5078 132.18 82.2109 131.628C81.9193 131.07 81.7734 130.427 81.7734 129.698C81.7734 128.604 82.0833 127.716 82.7031 127.034C83.3229 126.346 84.1276 126.003 85.1172 126.003C86.0703 126.003 86.8307 126.336 87.3984 127.003C87.9661 127.669 88.25 128.563 88.25 129.682V129.862ZM83.2266 129.011H86.8438C86.8073 128.443 86.638 128.005 86.3359 127.698C86.0339 127.391 85.6276 127.237 85.1172 127.237C84.6068 127.237 84.1875 127.391 83.8594 127.698C83.5365 128.005 83.3255 128.443 83.2266 129.011ZM94.3125 129.011V132.065C94.3125 132.31 94.3958 132.432 94.5625 132.432C94.7344 132.432 95.0026 132.305 95.3672 132.05V132.917C95.0443 133.125 94.7839 133.266 94.5859 133.339C94.3932 133.417 94.1901 133.456 93.9766 133.456C93.3672 133.456 93.0078 133.216 92.8984 132.737C92.2943 133.206 91.651 133.44 90.9688 133.44C90.4688 133.44 90.0521 133.276 89.7188 132.948C89.3854 132.615 89.2188 132.198 89.2188 131.698C89.2188 131.245 89.3802 130.841 89.7031 130.487C90.0312 130.128 90.4948 129.844 91.0938 129.636L92.9141 129.011V128.628C92.9141 127.763 92.4818 127.331 91.6172 127.331C90.8411 127.331 90.0859 127.732 89.3516 128.534V126.979C89.9036 126.328 90.6979 126.003 91.7344 126.003C92.5104 126.003 93.1328 126.206 93.6016 126.612C93.7578 126.742 93.8984 126.917 94.0234 127.136C94.1484 127.349 94.2266 127.565 94.2578 127.784C94.2943 127.998 94.3125 128.406 94.3125 129.011ZM92.9141 131.909V129.776L91.9609 130.143C91.4766 130.336 91.1328 130.531 90.9297 130.729C90.7318 130.922 90.6328 131.164 90.6328 131.456C90.6328 131.753 90.7266 131.995 90.9141 132.182C91.1068 132.37 91.3542 132.464 91.6562 132.464C92.1094 132.464 92.5286 132.279 92.9141 131.909ZM100.461 126.143H102L98.8281 133.456H98.3516L95.1016 126.143H96.6562L98.5938 130.565L100.461 126.143ZM108.875 129.862H103.82C103.857 130.55 104.086 131.096 104.508 131.503C104.935 131.909 105.484 132.112 106.156 132.112C107.094 132.112 107.958 131.82 108.75 131.237V132.628C108.312 132.919 107.878 133.128 107.445 133.253C107.018 133.378 106.516 133.44 105.938 133.44C105.146 133.44 104.505 133.276 104.016 132.948C103.526 132.62 103.133 132.18 102.836 131.628C102.544 131.07 102.398 130.427 102.398 129.698C102.398 128.604 102.708 127.716 103.328 127.034C103.948 126.346 104.753 126.003 105.742 126.003C106.695 126.003 107.456 126.336 108.023 127.003C108.591 127.669 108.875 128.563 108.875 129.682V129.862ZM103.852 129.011H107.469C107.432 128.443 107.263 128.005 106.961 127.698C106.659 127.391 106.253 127.237 105.742 127.237C105.232 127.237 104.812 127.391 104.484 127.698C104.161 128.005 103.951 128.443 103.852 129.011ZM119.391 129.011V132.065C119.391 132.31 119.474 132.432 119.641 132.432C119.812 132.432 120.081 132.305 120.445 132.05V132.917C120.122 133.125 119.862 133.266 119.664 133.339C119.471 133.417 119.268 133.456 119.055 133.456C118.445 133.456 118.086 133.216 117.977 132.737C117.372 133.206 116.729 133.44 116.047 133.44C115.547 133.44 115.13 133.276 114.797 132.948C114.464 132.615 114.297 132.198 114.297 131.698C114.297 131.245 114.458 130.841 114.781 130.487C115.109 130.128 115.573 129.844 116.172 129.636L117.992 129.011V128.628C117.992 127.763 117.56 127.331 116.695 127.331C115.919 127.331 115.164 127.732 114.43 128.534V126.979C114.982 126.328 115.776 126.003 116.812 126.003C117.589 126.003 118.211 126.206 118.68 126.612C118.836 126.742 118.977 126.917 119.102 127.136C119.227 127.349 119.305 127.565 119.336 127.784C119.372 127.998 119.391 128.406 119.391 129.011ZM117.992 131.909V129.776L117.039 130.143C116.555 130.336 116.211 130.531 116.008 130.729C115.81 130.922 115.711 131.164 115.711 131.456C115.711 131.753 115.805 131.995 115.992 132.182C116.185 132.37 116.432 132.464 116.734 132.464C117.188 132.464 117.607 132.279 117.992 131.909ZM123.125 126.143V127.057C123.76 126.354 124.482 126.003 125.289 126.003C125.737 126.003 126.154 126.12 126.539 126.354C126.924 126.583 127.216 126.901 127.414 127.307C127.617 127.708 127.719 128.346 127.719 129.221V133.331H126.297V129.237C126.297 128.503 126.185 127.979 125.961 127.667C125.737 127.349 125.362 127.19 124.836 127.19C124.164 127.19 123.594 127.526 123.125 128.198V133.331H121.672V126.143H123.125ZM134.5 122.417H135.93V133.331H132.891C131.828 133.331 130.979 132.995 130.344 132.323C129.714 131.651 129.398 130.75 129.398 129.62C129.398 128.563 129.729 127.693 130.391 127.011C131.057 126.328 131.906 125.987 132.938 125.987C133.417 125.987 133.938 126.089 134.5 126.292V122.417ZM134.5 132.112V127.557C134.057 127.333 133.609 127.221 133.156 127.221C132.448 127.221 131.883 127.453 131.461 127.917C131.044 128.38 130.836 129.005 130.836 129.792C130.836 130.531 131.018 131.102 131.383 131.503C131.602 131.742 131.833 131.904 132.078 131.987C132.323 132.07 132.763 132.112 133.398 132.112H134.5ZM141.945 128.628C141.945 127.862 142.224 127.258 142.781 126.815C143.344 126.367 144.109 126.143 145.078 126.143H148.039V127.253H146.586C146.867 127.539 147.062 127.8 147.172 128.034C147.281 128.268 147.336 128.537 147.336 128.839C147.336 129.214 147.229 129.583 147.016 129.948C146.802 130.307 146.526 130.583 146.188 130.776C145.854 130.969 145.305 131.123 144.539 131.237C144.003 131.315 143.734 131.5 143.734 131.792C143.734 131.958 143.833 132.096 144.031 132.206C144.234 132.31 144.599 132.419 145.125 132.534C146.005 132.727 146.57 132.878 146.82 132.987C147.076 133.096 147.305 133.253 147.508 133.456C147.852 133.8 148.023 134.232 148.023 134.753C148.023 135.435 147.719 135.979 147.109 136.386C146.505 136.792 145.695 136.995 144.68 136.995C143.654 136.995 142.833 136.789 142.219 136.378C141.609 135.971 141.305 135.425 141.305 134.737C141.305 133.763 141.906 133.136 143.109 132.854C142.63 132.547 142.391 132.242 142.391 131.94C142.391 131.711 142.492 131.503 142.695 131.315C142.904 131.128 143.182 130.99 143.531 130.901C142.474 130.432 141.945 129.675 141.945 128.628ZM144.617 127.378C144.232 127.378 143.904 127.508 143.633 127.768C143.362 128.029 143.227 128.341 143.227 128.706C143.227 129.076 143.359 129.383 143.625 129.628C143.891 129.867 144.227 129.987 144.633 129.987C145.034 129.987 145.367 129.865 145.633 129.62C145.904 129.37 146.039 129.06 146.039 128.69C146.039 128.315 145.904 128.003 145.633 127.753C145.362 127.503 145.023 127.378 144.617 127.378ZM144.281 133.667C143.802 133.667 143.409 133.768 143.102 133.971C142.799 134.175 142.648 134.435 142.648 134.753C142.648 135.492 143.315 135.862 144.648 135.862C145.279 135.862 145.766 135.768 146.109 135.581C146.458 135.399 146.633 135.138 146.633 134.8C146.633 134.466 146.414 134.193 145.977 133.979C145.539 133.771 144.974 133.667 144.281 133.667ZM152.422 126.128C153.516 126.128 154.424 126.482 155.148 127.19C155.872 127.893 156.234 128.779 156.234 129.846C156.234 130.883 155.867 131.745 155.133 132.432C154.398 133.115 153.474 133.456 152.359 133.456C151.281 133.456 150.38 133.109 149.656 132.417C148.932 131.719 148.57 130.849 148.57 129.807C148.57 128.755 148.935 127.88 149.664 127.182C150.398 126.479 151.318 126.128 152.422 126.128ZM152.344 127.409C151.661 127.409 151.102 127.633 150.664 128.081C150.227 128.529 150.008 129.099 150.008 129.792C150.008 130.479 150.232 131.042 150.68 131.479C151.128 131.912 151.703 132.128 152.406 132.128C153.104 132.128 153.674 131.909 154.117 131.471C154.565 131.029 154.789 130.464 154.789 129.776C154.789 129.094 154.557 128.529 154.094 128.081C153.63 127.633 153.047 127.409 152.344 127.409ZM171.242 126.143H172.766L169.594 133.456H169.148L167.016 128.448L164.922 133.456H164.461L161.258 126.143H162.781L164.664 130.503L166.492 126.143H167.547L169.367 130.503L171.242 126.143ZM173.75 122.417H175.172V127.089C175.766 126.365 176.503 126.003 177.383 126.003C177.862 126.003 178.292 126.123 178.672 126.362C179.052 126.602 179.333 126.932 179.516 127.354C179.703 127.776 179.797 128.404 179.797 129.237V133.331H178.375V128.886C178.375 128.359 178.245 127.938 177.984 127.62C177.729 127.297 177.391 127.136 176.969 127.136C176.656 127.136 176.362 127.216 176.086 127.378C175.81 127.539 175.505 127.807 175.172 128.182V133.331H173.75V122.417ZM187.906 129.862H182.852C182.888 130.55 183.117 131.096 183.539 131.503C183.966 131.909 184.516 132.112 185.188 132.112C186.125 132.112 186.99 131.82 187.781 131.237V132.628C187.344 132.919 186.909 133.128 186.477 133.253C186.049 133.378 185.547 133.44 184.969 133.44C184.177 133.44 183.536 133.276 183.047 132.948C182.557 132.62 182.164 132.18 181.867 131.628C181.576 131.07 181.43 130.427 181.43 129.698C181.43 128.604 181.74 127.716 182.359 127.034C182.979 126.346 183.784 126.003 184.773 126.003C185.727 126.003 186.487 126.336 187.055 127.003C187.622 127.669 187.906 128.563 187.906 129.682V129.862ZM182.883 129.011H186.5C186.464 128.443 186.294 128.005 185.992 127.698C185.69 127.391 185.284 127.237 184.773 127.237C184.263 127.237 183.844 127.391 183.516 127.698C183.193 128.005 182.982 128.443 182.883 129.011ZM190.977 126.143V127.792L191.055 127.667C191.742 126.557 192.43 126.003 193.117 126.003C193.654 126.003 194.214 126.274 194.797 126.815L194.047 128.065C193.552 127.596 193.094 127.362 192.672 127.362C192.214 127.362 191.815 127.581 191.477 128.018C191.143 128.456 190.977 128.974 190.977 129.573V133.331H189.547V126.143H190.977ZM201.594 129.862H196.539C196.576 130.55 196.805 131.096 197.227 131.503C197.654 131.909 198.203 132.112 198.875 132.112C199.812 132.112 200.677 131.82 201.469 131.237V132.628C201.031 132.919 200.596 133.128 200.164 133.253C199.737 133.378 199.234 133.44 198.656 133.44C197.865 133.44 197.224 133.276 196.734 132.948C196.245 132.62 195.852 132.18 195.555 131.628C195.263 131.07 195.117 130.427 195.117 129.698C195.117 128.604 195.427 127.716 196.047 127.034C196.667 126.346 197.471 126.003 198.461 126.003C199.414 126.003 200.174 126.336 200.742 127.003C201.31 127.669 201.594 128.563 201.594 129.682V129.862ZM196.57 129.011H200.188C200.151 128.443 199.982 128.005 199.68 127.698C199.378 127.391 198.971 127.237 198.461 127.237C197.951 127.237 197.531 127.391 197.203 127.698C196.88 128.005 196.669 128.443 196.57 129.011ZM211.992 126.143H213.594L208.508 136.995H206.922L209.367 131.792L206.586 126.143H208.203L210.141 130.198L211.992 126.143ZM217.719 126.128C218.812 126.128 219.721 126.482 220.445 127.19C221.169 127.893 221.531 128.779 221.531 129.846C221.531 130.883 221.164 131.745 220.43 132.432C219.695 133.115 218.771 133.456 217.656 133.456C216.578 133.456 215.677 133.109 214.953 132.417C214.229 131.719 213.867 130.849 213.867 129.807C213.867 128.755 214.232 127.88 214.961 127.182C215.695 126.479 216.615 126.128 217.719 126.128ZM217.641 127.409C216.958 127.409 216.398 127.633 215.961 128.081C215.523 128.529 215.305 129.099 215.305 129.792C215.305 130.479 215.529 131.042 215.977 131.479C216.424 131.912 217 132.128 217.703 132.128C218.401 132.128 218.971 131.909 219.414 131.471C219.862 131.029 220.086 130.464 220.086 129.776C220.086 129.094 219.854 128.529 219.391 128.081C218.927 127.633 218.344 127.409 217.641 127.409ZM227.688 133.331V132.417C227.385 132.745 227.039 133 226.648 133.182C226.263 133.365 225.878 133.456 225.492 133.456C225.039 133.456 224.62 133.344 224.234 133.12C223.854 132.891 223.565 132.583 223.367 132.198C223.174 131.807 223.078 131.162 223.078 130.261V126.143H224.5V130.245C224.5 131 224.607 131.529 224.82 131.831C225.039 132.128 225.419 132.276 225.961 132.276C226.638 132.276 227.214 131.945 227.688 131.284V126.143H229.109V133.331H227.688ZM235.594 122.417H237.016V133.331H235.594V122.417ZM239.812 123.12C240.047 123.12 240.247 123.201 240.414 123.362C240.581 123.524 240.664 123.721 240.664 123.956C240.664 124.185 240.581 124.383 240.414 124.55C240.247 124.716 240.047 124.8 239.812 124.8C239.594 124.8 239.401 124.716 239.234 124.55C239.068 124.378 238.984 124.18 238.984 123.956C238.984 123.737 239.068 123.544 239.234 123.378C239.401 123.206 239.594 123.12 239.812 123.12ZM239.109 126.143H240.531V133.331H239.109V126.143ZM247.266 126.143H248.961L245.891 129.667L249.586 133.331H247.68L244.078 129.667L247.266 126.143ZM242.594 122.417H244.016V133.331H242.594V122.417ZM255.906 129.862H250.852C250.888 130.55 251.117 131.096 251.539 131.503C251.966 131.909 252.516 132.112 253.188 132.112C254.125 132.112 254.99 131.82 255.781 131.237V132.628C255.344 132.919 254.909 133.128 254.477 133.253C254.049 133.378 253.547 133.44 252.969 133.44C252.177 133.44 251.536 133.276 251.047 132.948C250.557 132.62 250.164 132.18 249.867 131.628C249.576 131.07 249.43 130.427 249.43 129.698C249.43 128.604 249.74 127.716 250.359 127.034C250.979 126.346 251.784 126.003 252.773 126.003C253.727 126.003 254.487 126.336 255.055 127.003C255.622 127.669 255.906 128.563 255.906 129.682V129.862ZM250.883 129.011H254.5C254.464 128.443 254.294 128.005 253.992 127.698C253.69 127.391 253.284 127.237 252.773 127.237C252.263 127.237 251.844 127.391 251.516 127.698C251.193 128.005 250.982 128.443 250.883 129.011ZM258.516 131.589C258.781 131.589 259.008 131.68 259.195 131.862C259.383 132.044 259.477 132.268 259.477 132.534C259.477 132.794 259.383 133.013 259.195 133.19C259.013 133.367 258.786 133.456 258.516 133.456C258.25 133.456 258.026 133.367 257.844 133.19C257.661 133.013 257.57 132.794 257.57 132.534C257.57 132.268 257.661 132.044 257.844 131.862C258.026 131.68 258.25 131.589 258.516 131.589ZM273.117 126.143H274.641L271.469 133.456H271.023L268.891 128.448L266.797 133.456H266.336L263.133 126.143H264.656L266.539 130.503L268.367 126.143H269.422L271.242 130.503L273.117 126.143ZM281.453 129.862H276.398C276.435 130.55 276.664 131.096 277.086 131.503C277.513 131.909 278.062 132.112 278.734 132.112C279.672 132.112 280.536 131.82 281.328 131.237V132.628C280.891 132.919 280.456 133.128 280.023 133.253C279.596 133.378 279.094 133.44 278.516 133.44C277.724 133.44 277.083 133.276 276.594 132.948C276.104 132.62 275.711 132.18 275.414 131.628C275.122 131.07 274.977 130.427 274.977 129.698C274.977 128.604 275.286 127.716 275.906 127.034C276.526 126.346 277.331 126.003 278.32 126.003C279.273 126.003 280.034 126.336 280.602 127.003C281.169 127.669 281.453 128.563 281.453 129.682V129.862ZM276.43 129.011H280.047C280.01 128.443 279.841 128.005 279.539 127.698C279.237 127.391 278.831 127.237 278.32 127.237C277.81 127.237 277.391 127.391 277.062 127.698C276.74 128.005 276.529 128.443 276.43 129.011ZM291.969 129.011V132.065C291.969 132.31 292.052 132.432 292.219 132.432C292.391 132.432 292.659 132.305 293.023 132.05V132.917C292.701 133.125 292.44 133.266 292.242 133.339C292.049 133.417 291.846 133.456 291.633 133.456C291.023 133.456 290.664 133.216 290.555 132.737C289.951 133.206 289.307 133.44 288.625 133.44C288.125 133.44 287.708 133.276 287.375 132.948C287.042 132.615 286.875 132.198 286.875 131.698C286.875 131.245 287.036 130.841 287.359 130.487C287.688 130.128 288.151 129.844 288.75 129.636L290.57 129.011V128.628C290.57 127.763 290.138 127.331 289.273 127.331C288.497 127.331 287.742 127.732 287.008 128.534V126.979C287.56 126.328 288.354 126.003 289.391 126.003C290.167 126.003 290.789 126.206 291.258 126.612C291.414 126.742 291.555 126.917 291.68 127.136C291.805 127.349 291.883 127.565 291.914 127.784C291.951 127.998 291.969 128.406 291.969 129.011ZM290.57 131.909V129.776L289.617 130.143C289.133 130.336 288.789 130.531 288.586 130.729C288.388 130.922 288.289 131.164 288.289 131.456C288.289 131.753 288.383 131.995 288.57 132.182C288.763 132.37 289.01 132.464 289.312 132.464C289.766 132.464 290.185 132.279 290.57 131.909ZM295.805 126.143V127.792L295.883 127.667C296.57 126.557 297.258 126.003 297.945 126.003C298.482 126.003 299.042 126.274 299.625 126.815L298.875 128.065C298.38 127.596 297.922 127.362 297.5 127.362C297.042 127.362 296.643 127.581 296.305 128.018C295.971 128.456 295.805 128.974 295.805 129.573V133.331H294.375V126.143H295.805ZM306.422 129.862H301.367C301.404 130.55 301.633 131.096 302.055 131.503C302.482 131.909 303.031 132.112 303.703 132.112C304.641 132.112 305.505 131.82 306.297 131.237V132.628C305.859 132.919 305.424 133.128 304.992 133.253C304.565 133.378 304.062 133.44 303.484 133.44C302.693 133.44 302.052 133.276 301.562 132.948C301.073 132.62 300.68 132.18 300.383 131.628C300.091 131.07 299.945 130.427 299.945 129.698C299.945 128.604 300.255 127.716 300.875 127.034C301.495 126.346 302.299 126.003 303.289 126.003C304.242 126.003 305.003 126.336 305.57 127.003C306.138 127.669 306.422 128.563 306.422 129.682V129.862ZM301.398 129.011H305.016C304.979 128.443 304.81 128.005 304.508 127.698C304.206 127.391 303.799 127.237 303.289 127.237C302.779 127.237 302.359 127.391 302.031 127.698C301.708 128.005 301.497 128.443 301.398 129.011ZM126.5 150.143H128.023L124.852 157.456H124.406L122.273 152.448L120.18 157.456H119.719L116.516 150.143H118.039L119.922 154.503L121.75 150.143H122.805L124.625 154.503L126.5 150.143ZM133.555 153.011V156.065C133.555 156.31 133.638 156.432 133.805 156.432C133.977 156.432 134.245 156.305 134.609 156.05V156.917C134.286 157.125 134.026 157.266 133.828 157.339C133.635 157.417 133.432 157.456 133.219 157.456C132.609 157.456 132.25 157.216 132.141 156.737C131.536 157.206 130.893 157.44 130.211 157.44C129.711 157.44 129.294 157.276 128.961 156.948C128.628 156.615 128.461 156.198 128.461 155.698C128.461 155.245 128.622 154.841 128.945 154.487C129.273 154.128 129.737 153.844 130.336 153.636L132.156 153.011V152.628C132.156 151.763 131.724 151.331 130.859 151.331C130.083 151.331 129.328 151.732 128.594 152.534V150.979C129.146 150.328 129.94 150.003 130.977 150.003C131.753 150.003 132.375 150.206 132.844 150.612C133 150.742 133.141 150.917 133.266 151.136C133.391 151.349 133.469 151.565 133.5 151.784C133.536 151.998 133.555 152.406 133.555 153.011ZM132.156 155.909V153.776L131.203 154.143C130.719 154.336 130.375 154.531 130.172 154.729C129.974 154.922 129.875 155.164 129.875 155.456C129.875 155.753 129.969 155.995 130.156 156.182C130.349 156.37 130.596 156.464 130.898 156.464C131.352 156.464 131.771 156.279 132.156 155.909ZM136.602 147.12C136.836 147.12 137.036 147.201 137.203 147.362C137.37 147.524 137.453 147.721 137.453 147.956C137.453 148.185 137.37 148.383 137.203 148.55C137.036 148.716 136.836 148.8 136.602 148.8C136.383 148.8 136.19 148.716 136.023 148.55C135.857 148.378 135.773 148.18 135.773 147.956C135.773 147.737 135.857 147.544 136.023 147.378C136.19 147.206 136.383 147.12 136.602 147.12ZM135.898 150.143H137.32V157.331H135.898V150.143ZM138.375 151.284L141.047 148.659V150.143H143.32V151.425H141.047V154.948C141.047 155.771 141.388 156.182 142.07 156.182C142.581 156.182 143.12 156.011 143.688 155.667V156.995C143.141 157.302 142.544 157.456 141.898 157.456C141.247 157.456 140.706 157.266 140.273 156.886C140.138 156.771 140.026 156.643 139.938 156.503C139.849 156.357 139.773 156.169 139.711 155.94C139.654 155.706 139.625 155.263 139.625 154.612V151.425H138.375V151.284ZM145.445 147.12C145.68 147.12 145.88 147.201 146.047 147.362C146.214 147.524 146.297 147.721 146.297 147.956C146.297 148.185 146.214 148.383 146.047 148.55C145.88 148.716 145.68 148.8 145.445 148.8C145.227 148.8 145.034 148.716 144.867 148.55C144.701 148.378 144.617 148.18 144.617 147.956C144.617 147.737 144.701 147.544 144.867 147.378C145.034 147.206 145.227 147.12 145.445 147.12ZM144.742 150.143H146.164V157.331H144.742V150.143ZM149.648 150.143V151.057C150.284 150.354 151.005 150.003 151.812 150.003C152.26 150.003 152.677 150.12 153.062 150.354C153.448 150.583 153.74 150.901 153.938 151.307C154.141 151.708 154.242 152.346 154.242 153.221V157.331H152.82V153.237C152.82 152.503 152.708 151.979 152.484 151.667C152.26 151.349 151.885 151.19 151.359 151.19C150.688 151.19 150.117 151.526 149.648 152.198V157.331H148.195V150.143H149.648ZM155.859 152.628C155.859 151.862 156.138 151.258 156.695 150.815C157.258 150.367 158.023 150.143 158.992 150.143H161.953V151.253H160.5C160.781 151.539 160.977 151.8 161.086 152.034C161.195 152.268 161.25 152.537 161.25 152.839C161.25 153.214 161.143 153.583 160.93 153.948C160.716 154.307 160.44 154.583 160.102 154.776C159.768 154.969 159.219 155.123 158.453 155.237C157.917 155.315 157.648 155.5 157.648 155.792C157.648 155.958 157.747 156.096 157.945 156.206C158.148 156.31 158.513 156.419 159.039 156.534C159.919 156.727 160.484 156.878 160.734 156.987C160.99 157.096 161.219 157.253 161.422 157.456C161.766 157.8 161.938 158.232 161.938 158.753C161.938 159.435 161.633 159.979 161.023 160.386C160.419 160.792 159.609 160.995 158.594 160.995C157.568 160.995 156.747 160.789 156.133 160.378C155.523 159.971 155.219 159.425 155.219 158.737C155.219 157.763 155.82 157.136 157.023 156.854C156.544 156.547 156.305 156.242 156.305 155.94C156.305 155.711 156.406 155.503 156.609 155.315C156.818 155.128 157.096 154.99 157.445 154.901C156.388 154.432 155.859 153.675 155.859 152.628ZM158.531 151.378C158.146 151.378 157.818 151.508 157.547 151.768C157.276 152.029 157.141 152.341 157.141 152.706C157.141 153.076 157.273 153.383 157.539 153.628C157.805 153.867 158.141 153.987 158.547 153.987C158.948 153.987 159.281 153.865 159.547 153.62C159.818 153.37 159.953 153.06 159.953 152.69C159.953 152.315 159.818 152.003 159.547 151.753C159.276 151.503 158.938 151.378 158.531 151.378ZM158.195 157.667C157.716 157.667 157.323 157.768 157.016 157.971C156.714 158.175 156.562 158.435 156.562 158.753C156.562 159.492 157.229 159.862 158.562 159.862C159.193 159.862 159.68 159.768 160.023 159.581C160.372 159.399 160.547 159.138 160.547 158.8C160.547 158.466 160.328 158.193 159.891 157.979C159.453 157.771 158.888 157.667 158.195 157.667ZM167.672 150.143V149.714C167.672 148.557 167.917 147.695 168.406 147.128C168.901 146.56 169.492 146.276 170.18 146.276C170.477 146.276 170.828 146.323 171.234 146.417V147.807C171.005 147.724 170.786 147.682 170.578 147.682C170.021 147.682 169.633 147.831 169.414 148.128C169.201 148.425 169.094 148.953 169.094 149.714V150.143H170.375V151.425H169.094V157.331H167.672V151.425H166.641V150.143H167.672ZM174.789 150.128C175.883 150.128 176.792 150.482 177.516 151.19C178.24 151.893 178.602 152.779 178.602 153.846C178.602 154.883 178.234 155.745 177.5 156.432C176.766 157.115 175.841 157.456 174.727 157.456C173.648 157.456 172.747 157.109 172.023 156.417C171.299 155.719 170.938 154.849 170.938 153.807C170.938 152.755 171.302 151.88 172.031 151.182C172.766 150.479 173.685 150.128 174.789 150.128ZM174.711 151.409C174.029 151.409 173.469 151.633 173.031 152.081C172.594 152.529 172.375 153.099 172.375 153.792C172.375 154.479 172.599 155.042 173.047 155.479C173.495 155.912 174.07 156.128 174.773 156.128C175.471 156.128 176.042 155.909 176.484 155.471C176.932 155.029 177.156 154.464 177.156 153.776C177.156 153.094 176.924 152.529 176.461 152.081C175.997 151.633 175.414 151.409 174.711 151.409ZM181.703 150.143V151.792L181.781 151.667C182.469 150.557 183.156 150.003 183.844 150.003C184.38 150.003 184.94 150.274 185.523 150.815L184.773 152.065C184.279 151.596 183.82 151.362 183.398 151.362C182.94 151.362 182.542 151.581 182.203 152.018C181.87 152.456 181.703 152.974 181.703 153.573V157.331H180.273V150.143H181.703ZM195.375 150.143H196.977L191.891 160.995H190.305L192.75 155.792L189.969 150.143H191.586L193.523 154.198L195.375 150.143ZM201.102 150.128C202.195 150.128 203.104 150.482 203.828 151.19C204.552 151.893 204.914 152.779 204.914 153.846C204.914 154.883 204.547 155.745 203.812 156.432C203.078 157.115 202.154 157.456 201.039 157.456C199.961 157.456 199.06 157.109 198.336 156.417C197.612 155.719 197.25 154.849 197.25 153.807C197.25 152.755 197.615 151.88 198.344 151.182C199.078 150.479 199.997 150.128 201.102 150.128ZM201.023 151.409C200.341 151.409 199.781 151.633 199.344 152.081C198.906 152.529 198.688 153.099 198.688 153.792C198.688 154.479 198.911 155.042 199.359 155.479C199.807 155.912 200.383 156.128 201.086 156.128C201.784 156.128 202.354 155.909 202.797 155.471C203.245 155.029 203.469 154.464 203.469 153.776C203.469 153.094 203.237 152.529 202.773 152.081C202.31 151.633 201.727 151.409 201.023 151.409ZM211.07 157.331V156.417C210.768 156.745 210.422 157 210.031 157.182C209.646 157.365 209.26 157.456 208.875 157.456C208.422 157.456 208.003 157.344 207.617 157.12C207.237 156.891 206.948 156.583 206.75 156.198C206.557 155.807 206.461 155.162 206.461 154.261V150.143H207.883V154.245C207.883 155 207.99 155.529 208.203 155.831C208.422 156.128 208.802 156.276 209.344 156.276C210.021 156.276 210.596 155.945 211.07 155.284V150.143H212.492V157.331H211.07Z" fill="#7D848D"/>
</svg>
